G04 DipTrace 3.3.1.3*
G04 Bottom.gbr*
%MOIN*%
G04 #@! TF.FileFunction,Copper,L2,Bot*
G04 #@! TF.Part,Single*
G04 #@! TA.AperFunction,Conductor*
%ADD15C,0.012*%
%ADD17C,0.035*%
G04 #@! TA.AperFunction,ViaPad*
%ADD18C,0.03*%
G04 #@! TA.AperFunction,Conductor*
%ADD19C,0.08*%
G04 #@! TA.AperFunction,ComponentPad*
%ADD20C,0.06*%
G04 #@! TA.AperFunction,CopperBalancing*
%ADD21C,0.025*%
G04 #@! TA.AperFunction,ComponentPad*
%ADD28R,0.059055X0.059055*%
%ADD29C,0.059055*%
%ADD30R,0.066929X0.066929*%
%ADD31C,0.066929*%
%ADD32O,0.07874X0.11811*%
%ADD33O,0.11811X0.07874*%
%ADD39C,0.2*%
%ADD41R,0.059X0.059*%
%ADD42C,0.059*%
G04 #@! TA.AperFunction,ViaPad*
%ADD48C,0.04*%
%FSLAX26Y26*%
G04*
G70*
G90*
G75*
G01*
G04 Bottom*
%LPD*%
X743701Y1143701D2*
D15*
X793701D1*
X843701Y1093701D1*
X1343701D1*
X1393701Y1143701D1*
X1443701D1*
X1506201D1*
X1556201Y1093701D1*
X2043701D1*
X2093701Y1143701D1*
X2143701D1*
X2206201D1*
X2256201Y1093701D1*
X2731201D1*
X2781201Y1143701D1*
X2843701D1*
X1031201Y2368701D2*
X2381201D1*
X656201Y1468701D2*
X1068701D1*
X606201Y1618701D2*
X1468701D1*
X3518409Y2634255D2*
X3479409Y2595255D1*
X2868409D1*
X2751409Y2478255D1*
X3056201Y3168701D2*
D17*
Y3106201D1*
X3006201Y3056201D1*
X2681201D1*
X2618701Y3118701D1*
Y3168701D1*
X843701Y2943701D2*
X2481201D1*
X2618701Y3081201D1*
Y3168701D1*
X1368701Y2468701D2*
D15*
X1268701D1*
X2068701Y2693701D2*
X1318701D1*
Y1543701D2*
X1581201D1*
X1968701Y2431201D2*
X1668701D1*
X2393701Y2256201D2*
X1718701D1*
X918701Y2330315D2*
X2218701D1*
X1031201Y2293701D2*
X1418701D1*
X1028543Y2503543D2*
X1031201Y2506201D1*
X1618701D1*
X2768701Y1581201D2*
X856201D1*
X818701Y1543701D1*
X920472Y2416929D2*
X922244Y2418701D1*
X1493701D1*
X2593701Y2068701D2*
X1093701D1*
X1006201Y1981201D1*
X918701D1*
X1568701Y2256201D2*
X1118701D1*
X1368701Y2568701D2*
X1218701D1*
X1168701Y2631201D2*
X1318701D1*
X943701Y3006201D2*
X1768701D1*
X2518701Y2206201D2*
X2118701D1*
X743701Y1343701D2*
X893701Y1193701D1*
X1546853D1*
X2252605D1*
X2731201D1*
X2756201Y1218701D1*
Y1318701D1*
X2781201Y1343701D1*
X2843701D1*
X2143701D2*
X2206201D1*
X2252605Y1297297D1*
Y1193701D1*
X1443701Y1343701D2*
X1506201D1*
X1546853Y1303049D1*
Y1193701D1*
X743701Y1681201D2*
X1168701D1*
X1118701Y2693701D2*
X943701D1*
X918701Y2718701D1*
Y2793701D1*
X1243701Y1343701D2*
D19*
Y1468701D1*
X1943701D1*
X2643701D1*
X3143701D1*
Y1743701D1*
X1943701Y1343701D2*
D20*
Y1468701D1*
X2643701Y1343701D2*
Y1468701D1*
X3343701Y1343701D2*
D19*
Y1406201D1*
X3281201Y1468701D1*
X3143701D1*
D48*
X1031201Y2368701D3*
X2381201D3*
X656201Y1468701D3*
X1068701D3*
X606201Y1618701D3*
X1468701D3*
X1368701Y2468701D3*
X1268701D3*
X2068701Y2693701D3*
X1318701D3*
Y1543701D3*
X1581201D3*
X1968701Y2431201D3*
X1668701D3*
X2393701Y2256201D3*
X1718701D3*
X918701Y2330315D3*
X2218701D3*
X1031201Y2293701D3*
X1418701D3*
X1028543Y2503543D3*
X1618701Y2506201D3*
X2768701Y1581201D3*
X818701Y1543701D3*
X920472Y2416929D3*
X1493701Y2418701D3*
X2593701Y2068701D3*
X918701Y1981201D3*
X1568701Y2256201D3*
X1118701D3*
X1368701Y2568701D3*
X1218701D3*
X1168701Y2631201D3*
X1318701D3*
X943701Y3006201D3*
X1768701D3*
X2518701Y2206201D3*
X2118701D3*
X743701Y1681201D3*
X1168701D3*
X1118701Y2693701D3*
D18*
X3050409Y2400255D3*
D48*
X931201Y1043701D3*
Y993701D3*
X1631201Y1043701D3*
Y993701D3*
X2331201Y1056201D3*
Y1006201D3*
D18*
X3050409Y2374255D3*
Y2348255D3*
X3011409Y2400255D3*
Y2374255D3*
Y2348255D3*
X2972409Y2400255D3*
Y2374255D3*
Y2348255D3*
X3401409Y2140255D3*
X3362409D3*
D48*
X2751409Y2478255D3*
X3518409Y2634255D3*
X631201Y2631201D3*
X618701Y2056201D3*
X881201Y2631201D3*
Y2056201D3*
X806201Y2943701D3*
X843701D3*
X2056201Y3006201D3*
X3031201Y1006201D3*
Y1056201D3*
X458719Y3206332D2*
D21*
X885190D1*
X1002220D2*
X1086608D1*
X1200803D2*
X1286626D1*
X1400786D2*
X1486609D1*
X1600769D2*
X2456236D1*
X2667892D2*
X2893736D1*
X3105392D2*
X3628715D1*
X458719Y3181463D2*
X885190D1*
X1002220D2*
X1086537D1*
X1200875D2*
X1286518D1*
X1400858D2*
X1486537D1*
X1600877D2*
X2456236D1*
X2679806D2*
X2893736D1*
X3117306D2*
X3628715D1*
X458719Y3156594D2*
X885190D1*
X1002220D2*
X1099239D1*
X1188172D2*
X1299222D1*
X1388190D2*
X1499205D1*
X1588173D2*
X2456236D1*
X2679913D2*
X2893736D1*
X3117413D2*
X3628715D1*
X458719Y3131726D2*
X2456236D1*
X2670404D2*
X2893736D1*
X3105895D2*
X3628715D1*
X458719Y3106857D2*
X2572214D1*
X2695273D2*
X2992130D1*
X3102702D2*
X3628715D1*
X458719Y3081988D2*
X2554774D1*
X3095453D2*
X3628715D1*
X458719Y3057119D2*
X2529906D1*
X3071841D2*
X3628715D1*
X458719Y3032251D2*
X902665D1*
X1809723D2*
X2505038D1*
X3046974D2*
X3628715D1*
X458719Y3007382D2*
X894699D1*
X1817689D2*
X2480171D1*
X2609617D2*
X3628715D1*
X458719Y2982513D2*
X778076D1*
X2584749D2*
X3628715D1*
X458719Y2957644D2*
X759344D1*
X2559882D2*
X3628715D1*
X458719Y2932776D2*
X758518D1*
X2535013D2*
X3628715D1*
X458719Y2907907D2*
X774021D1*
X2509285D2*
X3628715D1*
X458719Y2883038D2*
X3628715D1*
X458719Y2858169D2*
X3628715D1*
X458719Y2833301D2*
X475895D1*
X561491D2*
X575904D1*
X661500D2*
X675913D1*
X761509D2*
X775887D1*
X861518D2*
X875896D1*
X961492D2*
X1075915D1*
X1161510D2*
X1175888D1*
X1261484D2*
X1275898D1*
X1361493D2*
X1375907D1*
X1461503D2*
X1475916D1*
X1561512D2*
X1575888D1*
X1661484D2*
X1675898D1*
X1761495D2*
X1775907D1*
X1861504D2*
X1875917D1*
X1961513D2*
X1975890D1*
X2061486D2*
X2075899D1*
X2161495D2*
X2175908D1*
X2261504D2*
X2275917D1*
X2361513D2*
X3628715D1*
X975738Y2808432D2*
X1061668D1*
X2375760D2*
X3628715D1*
X976778Y2783563D2*
X1060629D1*
X2376801D2*
X3628715D1*
X458719Y2758694D2*
X471823D1*
X965547D2*
X1071860D1*
X2365533D2*
X3628715D1*
X458719Y2733825D2*
X883682D1*
X953705D2*
X1092709D1*
X1144717D2*
X1292692D1*
X1344699D2*
X2042706D1*
X2094715D2*
X3628715D1*
X458719Y2708957D2*
X885190D1*
X1165135D2*
X1272273D1*
X2115133D2*
X3628715D1*
X458719Y2684088D2*
X904854D1*
X1166714D2*
X1270694D1*
X2116711D2*
X3628715D1*
X458719Y2659219D2*
X1084993D1*
X1358299D2*
X2034991D1*
X2102394D2*
X3476675D1*
X3560154D2*
X3628715D1*
X458719Y2634350D2*
X1119801D1*
X1367593D2*
X3469425D1*
X3567402D2*
X3628715D1*
X458719Y2609482D2*
X1125076D1*
X1393538D2*
X2834168D1*
X3560261D2*
X3628715D1*
X458719Y2584613D2*
X1172514D1*
X1414888D2*
X2809301D1*
X3517236D2*
X3628715D1*
X458719Y2559744D2*
X498466D1*
X576741D2*
X1170577D1*
X1416827D2*
X2784433D1*
X2881367D2*
X3628715D1*
X458719Y2534875D2*
X484508D1*
X590701D2*
X991694D1*
X1657824D2*
X2759564D1*
X2856500D2*
X3628715D1*
X458719Y2510007D2*
X484686D1*
X590486D2*
X979996D1*
X1667550D2*
X2714925D1*
X2831633D2*
X3628715D1*
X458719Y2485138D2*
X499291D1*
X575916D2*
X983333D1*
X1662669D2*
X2702940D1*
X2806765D2*
X3628715D1*
X458719Y2460269D2*
X901123D1*
X939818D2*
X1009026D1*
X1048045D2*
X1220457D1*
X1416934D2*
X1470353D1*
X1517051D2*
X1608938D1*
X2007480D2*
X2706025D1*
X2796789D2*
X3628715D1*
X458719Y2435400D2*
X875286D1*
X1539587D2*
X1619883D1*
X2017528D2*
X2730857D1*
X2771957D2*
X3628715D1*
X458719Y2410531D2*
X871913D1*
X1541991D2*
X1624549D1*
X2012862D2*
X2358379D1*
X2404000D2*
X3628715D1*
X458719Y2385663D2*
X883539D1*
X2427003D2*
X3628715D1*
X458719Y2360794D2*
X881100D1*
X2429514D2*
X3628715D1*
X458719Y2335925D2*
X870047D1*
X2267353D2*
X2345713D1*
X2416703D2*
X3628715D1*
X458719Y2311056D2*
X873887D1*
X2263514D2*
X3628715D1*
X458719Y2286188D2*
X901554D1*
X935871D2*
X982795D1*
X1606726D2*
X1680671D1*
X2431739D2*
X3628715D1*
X458719Y2261319D2*
X995319D1*
X1617419D2*
X1669978D1*
X2442433D2*
X3628715D1*
X458719Y2236450D2*
X491648D1*
X583560D2*
X1074121D1*
X1613293D2*
X1674104D1*
X2556508D2*
X3628715D1*
X458719Y2211581D2*
X483215D1*
X591957D2*
X1103115D1*
X1134274D2*
X1553102D1*
X1584298D2*
X1703098D1*
X1734294D2*
X2070014D1*
X2567381D2*
X3628715D1*
X458719Y2186713D2*
X487593D1*
X587614D2*
X2073997D1*
X2563434D2*
X3628715D1*
X458719Y2161844D2*
X510919D1*
X564290D2*
X2102239D1*
X2135156D2*
X2502239D1*
X2535157D2*
X3628715D1*
X458719Y2136975D2*
X3628715D1*
X458719Y2112106D2*
X2574510D1*
X2612882D2*
X3628715D1*
X458719Y2087238D2*
X1063786D1*
X2638862D2*
X3628715D1*
X458719Y2062369D2*
X1038919D1*
X2642272D2*
X3628715D1*
X458719Y2037500D2*
X1014050D1*
X2630681D2*
X3628715D1*
X458719Y2012631D2*
X881925D1*
X1086081D2*
X3628715D1*
X458719Y1987762D2*
X870155D1*
X1061214D2*
X3210378D1*
X3313234D2*
X3628715D1*
X458719Y1962894D2*
X873457D1*
X1036346D2*
X3183285D1*
X3340327D2*
X3628715D1*
X458719Y1938025D2*
X481171D1*
X556252D2*
X581180D1*
X656226D2*
X681152D1*
X756235D2*
X781161D1*
X856244D2*
X881171D1*
X956253D2*
X981180D1*
X1056226D2*
X1081154D1*
X1156235D2*
X1181163D1*
X1256245D2*
X1281172D1*
X1356255D2*
X1381146D1*
X1456227D2*
X1481155D1*
X1556236D2*
X1581164D1*
X1656245D2*
X1681173D1*
X1756255D2*
X1781147D1*
X1856228D2*
X1881156D1*
X1956238D2*
X1981165D1*
X2056247D2*
X2081175D1*
X2156256D2*
X2181147D1*
X2256230D2*
X3174421D1*
X3349226D2*
X3628715D1*
X2274243Y1913156D2*
X3175642D1*
X3348005D2*
X3628715D1*
X2277437Y1888287D2*
X3187627D1*
X3335984D2*
X3628715D1*
X2268896Y1863419D2*
X3231155D1*
X3292493D2*
X3628715D1*
X2254794Y1838550D2*
X3628715D1*
X2273562Y1813681D2*
X3098671D1*
X3188752D2*
X3628715D1*
X2277007Y1788812D2*
X3080441D1*
X3206980D2*
X3628715D1*
X2268681Y1763944D2*
X3075345D1*
X3212076D2*
X3628715D1*
X577244Y1739075D2*
X603751D1*
X633654D2*
X703760D1*
X733663D2*
X803734D1*
X833636D2*
X903743D1*
X933646D2*
X1003752D1*
X1033655D2*
X1103761D1*
X1133664D2*
X1203734D1*
X1233638D2*
X1303743D1*
X1333647D2*
X1403752D1*
X1433656D2*
X1503761D1*
X1533665D2*
X1603735D1*
X1633639D2*
X1703744D1*
X1733648D2*
X1803753D1*
X1833657D2*
X1903762D1*
X1933667D2*
X2003736D1*
X2033640D2*
X2103745D1*
X2133650D2*
X2203755D1*
X2233659D2*
X3074699D1*
X3212686D2*
X3628715D1*
X458719Y1714206D2*
X708461D1*
X778949D2*
X1133437D1*
X1203962D2*
X3074699D1*
X3212686D2*
X3628715D1*
X458719Y1689337D2*
X695434D1*
X1216987D2*
X3074699D1*
X3212686D2*
X3628715D1*
X458719Y1664469D2*
X595497D1*
X616932D2*
X697803D1*
X1214583D2*
X1457974D1*
X1479408D2*
X3074699D1*
X3212686D2*
X3628715D1*
X458719Y1639600D2*
X562160D1*
X1512745D2*
X3074699D1*
X3212686D2*
X3628715D1*
X458719Y1614731D2*
X557388D1*
X1517517D2*
X2733979D1*
X2803428D2*
X3074699D1*
X3212686D2*
X3628715D1*
X458719Y1589862D2*
X567220D1*
X2816885D2*
X3074699D1*
X3212686D2*
X3628715D1*
X458719Y1564993D2*
X774846D1*
X2814803D2*
X3074699D1*
X3212686D2*
X3628715D1*
X458719Y1540125D2*
X769823D1*
X867547D2*
X1269833D1*
X1630050D2*
X2744421D1*
X2792986D2*
X3074699D1*
X3212686D2*
X3628715D1*
X458719Y1515256D2*
X779404D1*
X858003D2*
X1193722D1*
X3331176D2*
X3628715D1*
X458719Y1490387D2*
X612577D1*
X1112349D2*
X1178328D1*
X3356043D2*
X3628715D1*
X458719Y1465518D2*
X607303D1*
X1117588D2*
X1174703D1*
X3380912D2*
X3628715D1*
X458719Y1440650D2*
X616597D1*
X1108294D2*
X1174703D1*
X3403088D2*
X3628715D1*
X458719Y1415781D2*
X1174703D1*
X3412024D2*
X3628715D1*
X458719Y1390912D2*
X685207D1*
X802202D2*
X1174703D1*
X1312690D2*
X1385201D1*
X1502196D2*
X1884709D1*
X2002707D2*
X2085193D1*
X2202188D2*
X2584701D1*
X2702701D2*
X2785186D1*
X2902217D2*
X3262446D1*
X3412705D2*
X3628715D1*
X458719Y1366043D2*
X685207D1*
X802202D2*
X1174703D1*
X1312690D2*
X1385201D1*
X1532337D2*
X1884709D1*
X2002707D2*
X2085193D1*
X2232331D2*
X2584701D1*
X2702701D2*
X2755079D1*
X2902217D2*
X3274718D1*
X3412705D2*
X3628715D1*
X458719Y1341175D2*
X685207D1*
X802202D2*
X1174740D1*
X1312655D2*
X1385201D1*
X1557206D2*
X1884744D1*
X2002636D2*
X2085193D1*
X2257198D2*
X2584773D1*
X2702629D2*
X2730211D1*
X2902217D2*
X3274755D1*
X3412669D2*
X3628715D1*
X458719Y1316306D2*
X685207D1*
X819570D2*
X1180589D1*
X1306806D2*
X1385201D1*
X1579024D2*
X1891777D1*
X1995602D2*
X2085193D1*
X2281455D2*
X2591770D1*
X2695631D2*
X2721205D1*
X2902217D2*
X3280604D1*
X3406783D2*
X3628715D1*
X458719Y1291437D2*
X685207D1*
X844438D2*
X1200073D1*
X1287320D2*
X1385201D1*
X1581858D2*
X1919731D1*
X1967648D2*
X2085193D1*
X2287592D2*
X2619724D1*
X2667677D2*
X2721205D1*
X2902217D2*
X3300088D1*
X3387335D2*
X3628715D1*
X458719Y1266568D2*
X690088D1*
X869306D2*
X1390080D1*
X1581858D2*
X2090073D1*
X2287592D2*
X2721205D1*
X2897336D2*
X3628715D1*
X458719Y1241699D2*
X685244D1*
X894173D2*
X1385236D1*
X1581858D2*
X2085230D1*
X2287592D2*
X2721205D1*
X2902181D2*
X3628715D1*
X458719Y1216831D2*
X692062D1*
X2895327D2*
X3628715D1*
X458719Y1191962D2*
X712803D1*
X2874622D2*
X3312791D1*
X3374596D2*
X3628715D1*
X458719Y1167093D2*
X690303D1*
X2897085D2*
X3290328D1*
X3397096D2*
X3628715D1*
X458719Y1142224D2*
X685207D1*
X2902181D2*
X3285232D1*
X3402190D2*
X3628715D1*
X458719Y1117356D2*
X691774D1*
X2895614D2*
X3291799D1*
X3395625D2*
X3628715D1*
X458719Y1092487D2*
X713699D1*
X773710D2*
X796449D1*
X1390954D2*
X1413693D1*
X1473703D2*
X1508965D1*
X2090946D2*
X2113722D1*
X2173696D2*
X2208958D1*
X2778451D2*
X2813714D1*
X2873689D2*
X3313724D1*
X3373699D2*
X3628715D1*
X458719Y1067618D2*
X690554D1*
X796819D2*
X821819D1*
X1365584D2*
X1390583D1*
X1496848D2*
X1534299D1*
X2065576D2*
X2090576D1*
X2196841D2*
X2234328D1*
X2753081D2*
X2790568D1*
X2896833D2*
X3290579D1*
X3396844D2*
X3628715D1*
X458719Y1042749D2*
X685207D1*
X802202D2*
X1185218D1*
X1302177D2*
X1385201D1*
X1502196D2*
X1885211D1*
X2002205D2*
X2085193D1*
X2202188D2*
X2585203D1*
X2702198D2*
X2785222D1*
X2902181D2*
X3285197D1*
X3402190D2*
X3628715D1*
X458719Y1017881D2*
X691524D1*
X795887D2*
X1191497D1*
X1295896D2*
X1391516D1*
X1495879D2*
X1891526D1*
X1995890D2*
X2091509D1*
X2195908D2*
X2591520D1*
X2695882D2*
X2791501D1*
X2895900D2*
X3291512D1*
X3395875D2*
X3628715D1*
X458719Y993012D2*
X714668D1*
X772741D2*
X1214643D1*
X1272752D2*
X1414661D1*
X1472734D2*
X1914672D1*
X1972744D2*
X2114654D1*
X2172727D2*
X2614664D1*
X2672738D2*
X2814647D1*
X2872756D2*
X3314657D1*
X3372730D2*
X3628715D1*
X458719Y968143D2*
X690806D1*
X796568D2*
X1190816D1*
X1296579D2*
X1390835D1*
X1496597D2*
X1890808D1*
X1996571D2*
X2090827D1*
X2196589D2*
X2590802D1*
X2696600D2*
X2790820D1*
X2896583D2*
X3290831D1*
X3396593D2*
X3628715D1*
X458719Y943274D2*
X685207D1*
X802202D2*
X1185218D1*
X1302213D2*
X1385201D1*
X1502196D2*
X1885211D1*
X2002205D2*
X2085193D1*
X2202188D2*
X2585203D1*
X2702198D2*
X2785186D1*
X2902217D2*
X3285197D1*
X3402190D2*
X3628715D1*
X458719Y918406D2*
X691236D1*
X796173D2*
X1191247D1*
X1296148D2*
X1391228D1*
X1496167D2*
X1891239D1*
X1996177D2*
X2091222D1*
X2196159D2*
X2591232D1*
X2696169D2*
X2791251D1*
X2896152D2*
X3291224D1*
X3396163D2*
X3628715D1*
X458719Y893537D2*
X715673D1*
X771736D2*
X1215648D1*
X1271747D2*
X1415667D1*
X1471730D2*
X1915676D1*
X1971740D2*
X2115659D1*
X2171759D2*
X2615669D1*
X2671732D2*
X2815652D1*
X2871751D2*
X3315661D1*
X3371726D2*
X3628715D1*
X458719Y868668D2*
X691056D1*
X796318D2*
X1191067D1*
X1296327D2*
X1391085D1*
X1496310D2*
X1891060D1*
X1996320D2*
X2091079D1*
X2196339D2*
X2591088D1*
X2696314D2*
X2791071D1*
X2896332D2*
X3291081D1*
X3396341D2*
X3628715D1*
X458719Y843799D2*
X685207D1*
X802202D2*
X1185218D1*
X1302213D2*
X1385201D1*
X1502196D2*
X1885211D1*
X2002205D2*
X2085193D1*
X2202188D2*
X2585203D1*
X2702198D2*
X2785186D1*
X2902217D2*
X3285197D1*
X3402190D2*
X3628715D1*
X458719Y818930D2*
X690986D1*
X796425D2*
X1190959D1*
X1296436D2*
X1390978D1*
X1496417D2*
X1890988D1*
X1996428D2*
X2090971D1*
X2196411D2*
X2590980D1*
X2696421D2*
X2790963D1*
X2896440D2*
X3290974D1*
X3396413D2*
X3628715D1*
X458719Y794062D2*
X715278D1*
X772131D2*
X1215289D1*
X1272105D2*
X1415272D1*
X1472125D2*
X1915282D1*
X1972134D2*
X2115264D1*
X2172117D2*
X2615274D1*
X2672127D2*
X2815293D1*
X2872110D2*
X3315268D1*
X3372119D2*
X3628715D1*
X458719Y769193D2*
X691344D1*
X796066D2*
X1191354D1*
X1296076D2*
X1391337D1*
X1496059D2*
X1891346D1*
X1996070D2*
X2091329D1*
X2196051D2*
X2591340D1*
X2696062D2*
X2791323D1*
X2896045D2*
X3291332D1*
X3396055D2*
X3628715D1*
X458719Y744324D2*
X685207D1*
X802202D2*
X1185218D1*
X1302213D2*
X1385201D1*
X1502196D2*
X1885211D1*
X2002205D2*
X2085193D1*
X2202188D2*
X2585203D1*
X2702198D2*
X2785222D1*
X2902181D2*
X3285197D1*
X3402190D2*
X3628715D1*
X458719Y719455D2*
X690734D1*
X796676D2*
X1190709D1*
X1296686D2*
X1390727D1*
X1496669D2*
X1890736D1*
X1996678D2*
X2090719D1*
X2196698D2*
X2590730D1*
X2696672D2*
X2790713D1*
X2896690D2*
X3290723D1*
X3396665D2*
X3628715D1*
X458719Y694587D2*
X714310D1*
X773100D2*
X1214283D1*
X1273110D2*
X1414303D1*
X1473093D2*
X1914312D1*
X1973104D2*
X2114295D1*
X2173122D2*
X2614306D1*
X2673096D2*
X2814289D1*
X2873114D2*
X3314298D1*
X3373089D2*
X3628715D1*
X458719Y669718D2*
X691594D1*
X795780D2*
X1391623D1*
X1495807D2*
X2091617D1*
X2195801D2*
X2791609D1*
X2895793D2*
X3628715D1*
X458719Y644849D2*
X685207D1*
X802202D2*
X1385201D1*
X1502196D2*
X2085230D1*
X2202188D2*
X2785222D1*
X2902181D2*
X3628715D1*
X458719Y619980D2*
X690483D1*
X796928D2*
X1390475D1*
X1496920D2*
X2090469D1*
X2196913D2*
X2790461D1*
X2896941D2*
X3628715D1*
X458719Y595112D2*
X713377D1*
X774033D2*
X1413370D1*
X1474026D2*
X2113362D1*
X2174055D2*
X2813356D1*
X2874047D2*
X3628715D1*
X458719Y570243D2*
X3628715D1*
X458719Y545374D2*
X785181D1*
X902211D2*
X919531D1*
X967844D2*
X1019541D1*
X1067853D2*
X1119550D1*
X1167862D2*
X1485173D1*
X1602240D2*
X1619560D1*
X1667873D2*
X1719533D1*
X1767845D2*
X1819542D1*
X1867854D2*
X2185167D1*
X2302232D2*
X2319552D1*
X2367865D2*
X2419562D1*
X2467839D2*
X2519535D1*
X2567848D2*
X2885159D1*
X3002226D2*
X3019546D1*
X3067858D2*
X3119555D1*
X3167867D2*
X3219529D1*
X3267840D2*
X3628715D1*
X458719Y520505D2*
X785181D1*
X1195386D2*
X1485173D1*
X1895413D2*
X2185167D1*
X2595407D2*
X2885159D1*
X3295399D2*
X3628715D1*
X458719Y495636D2*
X785181D1*
X1202203D2*
X1485173D1*
X1902196D2*
X2185167D1*
X2602189D2*
X2885159D1*
X3302181D2*
X3628715D1*
X458719Y470768D2*
X785181D1*
X1197323D2*
X1485173D1*
X1897316D2*
X2185167D1*
X2597308D2*
X2885159D1*
X3297337D2*
X3628715D1*
X2896860Y549728D2*
X2999728D1*
Y528449D1*
X3004083Y533319D1*
X3010769Y539028D1*
X3018265Y543622D1*
X3026387Y546986D1*
X3034936Y549038D1*
X3043701Y549728D1*
X3052466Y549038D1*
X3061014Y546986D1*
X3069136Y543622D1*
X3076633Y539028D1*
X3083319Y533319D1*
X3089028Y526633D1*
X3093701Y518965D1*
X3098374Y526633D1*
X3104083Y533319D1*
X3110769Y539028D1*
X3118265Y543622D1*
X3126387Y546986D1*
X3134936Y549038D1*
X3143701Y549728D1*
X3152466Y549038D1*
X3161014Y546986D1*
X3169136Y543622D1*
X3176633Y539028D1*
X3183319Y533319D1*
X3189028Y526633D1*
X3193701Y518965D1*
X3198374Y526633D1*
X3204083Y533319D1*
X3210769Y539028D1*
X3218265Y543622D1*
X3226387Y546986D1*
X3234936Y549038D1*
X3243701Y549728D1*
X3252466Y549038D1*
X3261014Y546986D1*
X3269136Y543622D1*
X3276633Y539028D1*
X3283319Y533319D1*
X3289028Y526633D1*
X3293622Y519136D1*
X3296986Y511014D1*
X3299038Y502466D1*
X3299728Y493701D1*
X3299038Y484936D1*
X3296986Y476387D1*
X3293622Y468265D1*
X3289028Y460769D1*
X3285266Y456190D1*
X3631185Y456201D1*
X3631201Y3231220D1*
X1585348Y3231201D1*
X1589028Y3226633D1*
X1593622Y3219136D1*
X1596986Y3211014D1*
X1599038Y3202466D1*
X1599728Y3193701D1*
X1599038Y3184936D1*
X1596986Y3176387D1*
X1593622Y3168265D1*
X1589028Y3160769D1*
X1583319Y3154083D1*
X1576633Y3148374D1*
X1569136Y3143780D1*
X1561014Y3140416D1*
X1552466Y3138364D1*
X1543701Y3137673D1*
X1534936Y3138364D1*
X1526387Y3140416D1*
X1518265Y3143780D1*
X1510769Y3148374D1*
X1504083Y3154083D1*
X1498374Y3160769D1*
X1493780Y3168265D1*
X1490416Y3176387D1*
X1488364Y3184936D1*
X1487673Y3193701D1*
X1488364Y3202466D1*
X1490416Y3211014D1*
X1493780Y3219136D1*
X1498374Y3226633D1*
X1502135Y3231211D1*
X1385329Y3231201D1*
X1389028Y3226633D1*
X1393622Y3219136D1*
X1396986Y3211014D1*
X1399038Y3202466D1*
X1399728Y3193701D1*
X1399038Y3184936D1*
X1396986Y3176387D1*
X1393622Y3168265D1*
X1389028Y3160769D1*
X1383319Y3154083D1*
X1376633Y3148374D1*
X1369136Y3143780D1*
X1361014Y3140416D1*
X1352466Y3138364D1*
X1343701Y3137673D1*
X1334936Y3138364D1*
X1326387Y3140416D1*
X1318265Y3143780D1*
X1310769Y3148374D1*
X1304083Y3154083D1*
X1298374Y3160769D1*
X1293780Y3168265D1*
X1290416Y3176387D1*
X1288364Y3184936D1*
X1287673Y3193701D1*
X1288364Y3202466D1*
X1290416Y3211014D1*
X1293780Y3219136D1*
X1298374Y3226633D1*
X1302135Y3231211D1*
X1185311Y3231201D1*
X1189028Y3226633D1*
X1193622Y3219136D1*
X1196986Y3211014D1*
X1199038Y3202466D1*
X1199728Y3193701D1*
X1199038Y3184936D1*
X1196986Y3176387D1*
X1193622Y3168265D1*
X1189028Y3160769D1*
X1183319Y3154083D1*
X1176633Y3148374D1*
X1169136Y3143780D1*
X1161014Y3140416D1*
X1152466Y3138364D1*
X1143701Y3137673D1*
X1134936Y3138364D1*
X1126387Y3140416D1*
X1118265Y3143780D1*
X1110769Y3148374D1*
X1104083Y3154083D1*
X1098374Y3160769D1*
X1093780Y3168265D1*
X1090416Y3176387D1*
X1088364Y3184936D1*
X1087673Y3193701D1*
X1088364Y3202466D1*
X1090416Y3211014D1*
X1093780Y3219136D1*
X1098374Y3226633D1*
X1102135Y3231211D1*
X999718Y3231201D1*
X999728Y3137673D1*
X887673D1*
Y3231223D1*
X456217Y3231201D1*
X456201Y456181D1*
X787651Y456201D1*
X787673Y549728D1*
X899728D1*
Y528449D1*
X904083Y533319D1*
X910769Y539028D1*
X918265Y543622D1*
X926387Y546986D1*
X934936Y549038D1*
X943701Y549728D1*
X952466Y549038D1*
X961014Y546986D1*
X969136Y543622D1*
X976633Y539028D1*
X983319Y533319D1*
X989028Y526633D1*
X993701Y518965D1*
X998374Y526633D1*
X1004083Y533319D1*
X1010769Y539028D1*
X1018265Y543622D1*
X1026387Y546986D1*
X1034936Y549038D1*
X1043701Y549728D1*
X1052466Y549038D1*
X1061014Y546986D1*
X1069136Y543622D1*
X1076633Y539028D1*
X1083319Y533319D1*
X1089028Y526633D1*
X1093701Y518965D1*
X1098374Y526633D1*
X1104083Y533319D1*
X1110769Y539028D1*
X1118265Y543622D1*
X1126387Y546986D1*
X1134936Y549038D1*
X1143701Y549728D1*
X1152466Y549038D1*
X1161014Y546986D1*
X1169136Y543622D1*
X1176633Y539028D1*
X1183319Y533319D1*
X1189028Y526633D1*
X1193622Y519136D1*
X1196986Y511014D1*
X1199038Y502466D1*
X1199728Y493701D1*
X1199038Y484936D1*
X1196986Y476387D1*
X1193622Y468265D1*
X1189028Y460769D1*
X1185266Y456190D1*
X1487680Y456201D1*
X1487673Y549728D1*
X1599728D1*
Y528449D1*
X1604083Y533319D1*
X1610769Y539028D1*
X1618265Y543622D1*
X1626387Y546986D1*
X1634936Y549038D1*
X1643701Y549728D1*
X1652466Y549038D1*
X1661014Y546986D1*
X1669136Y543622D1*
X1676633Y539028D1*
X1683319Y533319D1*
X1689028Y526633D1*
X1693701Y518965D1*
X1698374Y526633D1*
X1704083Y533319D1*
X1710769Y539028D1*
X1718265Y543622D1*
X1726387Y546986D1*
X1734936Y549038D1*
X1743701Y549728D1*
X1752466Y549038D1*
X1761014Y546986D1*
X1769136Y543622D1*
X1776633Y539028D1*
X1783319Y533319D1*
X1789028Y526633D1*
X1793701Y518965D1*
X1798374Y526633D1*
X1804083Y533319D1*
X1810769Y539028D1*
X1818265Y543622D1*
X1826387Y546986D1*
X1834936Y549038D1*
X1843701Y549728D1*
X1852466Y549038D1*
X1861014Y546986D1*
X1869136Y543622D1*
X1876633Y539028D1*
X1883319Y533319D1*
X1889028Y526633D1*
X1893622Y519136D1*
X1896986Y511014D1*
X1899038Y502466D1*
X1899728Y493701D1*
X1899038Y484936D1*
X1896986Y476387D1*
X1893622Y468265D1*
X1889028Y460769D1*
X1885266Y456190D1*
X2187709Y456201D1*
X2187673Y549728D1*
X2299728D1*
Y528449D1*
X2304083Y533319D1*
X2310769Y539028D1*
X2318265Y543622D1*
X2326387Y546986D1*
X2334936Y549038D1*
X2343701Y549728D1*
X2352466Y549038D1*
X2361014Y546986D1*
X2369136Y543622D1*
X2376633Y539028D1*
X2383319Y533319D1*
X2389028Y526633D1*
X2393701Y518965D1*
X2398374Y526633D1*
X2404083Y533319D1*
X2410769Y539028D1*
X2418265Y543622D1*
X2426387Y546986D1*
X2434936Y549038D1*
X2443701Y549728D1*
X2452466Y549038D1*
X2461014Y546986D1*
X2469136Y543622D1*
X2476633Y539028D1*
X2483319Y533319D1*
X2489028Y526633D1*
X2493701Y518965D1*
X2498374Y526633D1*
X2504083Y533319D1*
X2510769Y539028D1*
X2518265Y543622D1*
X2526387Y546986D1*
X2534936Y549038D1*
X2543701Y549728D1*
X2552466Y549038D1*
X2561014Y546986D1*
X2569136Y543622D1*
X2576633Y539028D1*
X2583319Y533319D1*
X2589028Y526633D1*
X2593622Y519136D1*
X2596986Y511014D1*
X2599038Y502466D1*
X2599728Y493701D1*
X2599038Y484936D1*
X2596986Y476387D1*
X2593622Y468265D1*
X2589028Y460769D1*
X2585266Y456190D1*
X2887665Y456201D1*
X2887673Y549728D1*
X2896860D1*
X2467923Y3228665D2*
X2578665D1*
Y3213343D1*
X2583454Y3217213D1*
X2591478Y3222130D1*
X2600171Y3225731D1*
X2609320Y3227927D1*
X2618701Y3228665D1*
X2628081Y3227927D1*
X2637231Y3225731D1*
X2645924Y3222130D1*
X2653948Y3217213D1*
X2661102Y3211102D1*
X2667213Y3203948D1*
X2672130Y3195924D1*
X2675731Y3187231D1*
X2677927Y3178081D1*
X2678665Y3168701D1*
X2677927Y3159320D1*
X2675731Y3150171D1*
X2672130Y3141478D1*
X2667213Y3133454D1*
X2666747Y3132862D1*
X2699573Y3100201D1*
X2988080Y3100304D1*
X2996529Y3108755D1*
X2896236Y3108736D1*
Y3228665D1*
X3016165D1*
Y3213343D1*
X3020954Y3217213D1*
X3028978Y3222130D1*
X3037671Y3225731D1*
X3046820Y3227927D1*
X3056201Y3228665D1*
X3065581Y3227927D1*
X3074731Y3225731D1*
X3083424Y3222130D1*
X3091448Y3217213D1*
X3098602Y3211102D1*
X3104713Y3203948D1*
X3109630Y3195924D1*
X3113231Y3187231D1*
X3115427Y3178081D1*
X3116165Y3168701D1*
X3115427Y3159320D1*
X3113231Y3150171D1*
X3109630Y3141478D1*
X3104713Y3133454D1*
X3100213Y3128042D1*
X3100066Y3102748D1*
X3098986Y3095929D1*
X3096852Y3089362D1*
X3093717Y3083211D1*
X3089659Y3077625D1*
X3061331Y3049105D1*
X3034777Y3022743D1*
X3029190Y3018685D1*
X3023039Y3015550D1*
X3016472Y3013416D1*
X3009654Y3012336D1*
X2969455Y3012201D1*
X2677748Y3012336D1*
X2670929Y3013416D1*
X2664362Y3015550D1*
X2658211Y3018685D1*
X2652625Y3022743D1*
X2637427Y3037749D1*
X2512314Y2912588D1*
X2507063Y2908104D1*
X2501176Y2904496D1*
X2494798Y2901854D1*
X2488084Y2900243D1*
X2481188Y2899701D1*
X858070Y2899476D1*
X850975Y2897773D1*
X843701Y2897201D1*
X836427Y2897773D1*
X829332Y2899476D1*
X824987Y2901164D1*
X817056Y2898486D1*
X809849Y2897344D1*
X802552D1*
X795345Y2898486D1*
X788406Y2900740D1*
X781904Y2904052D1*
X776001Y2908343D1*
X770843Y2913501D1*
X766552Y2919404D1*
X763240Y2925906D1*
X760986Y2932845D1*
X759844Y2940052D1*
Y2947349D1*
X760986Y2954556D1*
X763240Y2961496D1*
X766552Y2967997D1*
X770843Y2973900D1*
X776001Y2979059D1*
X781904Y2983349D1*
X788406Y2986661D1*
X795345Y2988916D1*
X802552Y2990058D1*
X809849D1*
X817056Y2988916D1*
X823996Y2986661D1*
X824915Y2986238D1*
X832845Y2988916D1*
X840052Y2990058D1*
X847349D1*
X854556Y2988916D1*
X858672Y2987703D1*
X901008Y2987701D1*
X898486Y2995345D1*
X897344Y3002552D1*
Y3009849D1*
X898486Y3017056D1*
X900740Y3023996D1*
X904052Y3030497D1*
X908343Y3036400D1*
X913501Y3041559D1*
X919404Y3045849D1*
X925906Y3049161D1*
X932845Y3051416D1*
X940052Y3052558D1*
X947349D1*
X954556Y3051416D1*
X961496Y3049161D1*
X967997Y3045849D1*
X973900Y3041559D1*
X976940Y3038694D1*
X1735413Y3038701D1*
X1741369Y3043820D1*
X1747591Y3047633D1*
X1754332Y3050425D1*
X1761427Y3052129D1*
X1768701Y3052701D1*
X1775975Y3052129D1*
X1783070Y3050425D1*
X1789811Y3047633D1*
X1796033Y3043820D1*
X1801581Y3039081D1*
X1806320Y3033533D1*
X1810133Y3027311D1*
X1812925Y3020570D1*
X1814629Y3013475D1*
X1815201Y3006201D1*
X1814629Y2998927D1*
X1812925Y2991832D1*
X1811333Y2987694D1*
X2463080Y2987804D1*
X2574701Y3099573D1*
Y3108724D1*
X2458736Y3108736D1*
Y3228665D1*
X2467923D1*
X471860Y1849728D2*
X483235D1*
X478749Y1853749D1*
X472991Y1860491D1*
X468358Y1868050D1*
X464966Y1876241D1*
X462896Y1884862D1*
X462201Y1893701D1*
X462896Y1902539D1*
X464966Y1911160D1*
X468358Y1919352D1*
X472991Y1926911D1*
X478749Y1933652D1*
X485491Y1939411D1*
X493050Y1944043D1*
X501241Y1947436D1*
X509862Y1949505D1*
X518701Y1950201D1*
X527539Y1949505D1*
X536160Y1947436D1*
X544352Y1944043D1*
X551911Y1939411D1*
X558652Y1933652D1*
X564411Y1926911D1*
X568696Y1919971D1*
X572991Y1926911D1*
X578749Y1933652D1*
X585491Y1939411D1*
X593050Y1944043D1*
X601241Y1947436D1*
X609862Y1949505D1*
X618701Y1950201D1*
X627539Y1949505D1*
X636160Y1947436D1*
X644352Y1944043D1*
X651911Y1939411D1*
X658652Y1933652D1*
X664411Y1926911D1*
X668696Y1919971D1*
X672991Y1926911D1*
X678749Y1933652D1*
X685491Y1939411D1*
X693050Y1944043D1*
X701241Y1947436D1*
X709862Y1949505D1*
X718701Y1950201D1*
X727539Y1949505D1*
X736160Y1947436D1*
X744352Y1944043D1*
X751911Y1939411D1*
X758652Y1933652D1*
X764411Y1926911D1*
X768696Y1919971D1*
X772991Y1926911D1*
X778749Y1933652D1*
X785491Y1939411D1*
X793050Y1944043D1*
X801241Y1947436D1*
X809862Y1949505D1*
X818701Y1950201D1*
X827539Y1949505D1*
X836160Y1947436D1*
X844352Y1944043D1*
X851911Y1939411D1*
X858652Y1933652D1*
X864411Y1926911D1*
X868696Y1919971D1*
X872991Y1926911D1*
X878749Y1933652D1*
X885491Y1939411D1*
X891735Y1943306D1*
X885820Y1948320D1*
X881081Y1953869D1*
X877269Y1960091D1*
X874476Y1966832D1*
X872773Y1973927D1*
X872201Y1981201D1*
X872773Y1988475D1*
X874476Y1995570D1*
X877269Y2002311D1*
X881081Y2008533D1*
X885820Y2014081D1*
X891369Y2018820D1*
X897591Y2022633D1*
X904332Y2025425D1*
X911427Y2027129D1*
X918701Y2027701D1*
X925975Y2027129D1*
X933070Y2025425D1*
X939811Y2022633D1*
X946033Y2018820D1*
X951940Y2013694D1*
X992730Y2013701D1*
X1072593Y2093415D1*
X1076719Y2096412D1*
X1081264Y2098727D1*
X1086114Y2100303D1*
X1091151Y2101101D1*
X1158005Y2101201D1*
X2560467D1*
X2566369Y2106320D1*
X2572591Y2110133D1*
X2579332Y2112925D1*
X2586427Y2114629D1*
X2593701Y2115201D1*
X2600975Y2114629D1*
X2608070Y2112925D1*
X2614811Y2110133D1*
X2621033Y2106320D1*
X2626581Y2101581D1*
X2631320Y2096033D1*
X2635133Y2089811D1*
X2637925Y2083070D1*
X2639629Y2075975D1*
X2640201Y2068701D1*
X2639629Y2061427D1*
X2637925Y2054332D1*
X2635133Y2047591D1*
X2631320Y2041369D1*
X2626581Y2035820D1*
X2621033Y2031081D1*
X2614811Y2027269D1*
X2608070Y2024476D1*
X2600975Y2022773D1*
X2593701Y2022201D1*
X2586427Y2022773D1*
X2579332Y2024476D1*
X2572591Y2027269D1*
X2566369Y2031081D1*
X2560462Y2036207D1*
X1107198Y2036201D1*
X1027308Y1956487D1*
X1023182Y1953490D1*
X1018638Y1951175D1*
X1016235Y1950289D1*
X1027539Y1949505D1*
X1036160Y1947436D1*
X1044352Y1944043D1*
X1051911Y1939411D1*
X1058652Y1933652D1*
X1064411Y1926911D1*
X1068696Y1919971D1*
X1072991Y1926911D1*
X1078749Y1933652D1*
X1085491Y1939411D1*
X1093050Y1944043D1*
X1101241Y1947436D1*
X1109862Y1949505D1*
X1118701Y1950201D1*
X1127539Y1949505D1*
X1136160Y1947436D1*
X1144352Y1944043D1*
X1151911Y1939411D1*
X1158652Y1933652D1*
X1164411Y1926911D1*
X1168696Y1919971D1*
X1172991Y1926911D1*
X1178749Y1933652D1*
X1185491Y1939411D1*
X1193050Y1944043D1*
X1201241Y1947436D1*
X1209862Y1949505D1*
X1218701Y1950201D1*
X1227539Y1949505D1*
X1236160Y1947436D1*
X1244352Y1944043D1*
X1251911Y1939411D1*
X1258652Y1933652D1*
X1264411Y1926911D1*
X1268696Y1919971D1*
X1272991Y1926911D1*
X1278749Y1933652D1*
X1285491Y1939411D1*
X1293050Y1944043D1*
X1301241Y1947436D1*
X1309862Y1949505D1*
X1318701Y1950201D1*
X1327539Y1949505D1*
X1336160Y1947436D1*
X1344352Y1944043D1*
X1351911Y1939411D1*
X1358652Y1933652D1*
X1364411Y1926911D1*
X1368696Y1919971D1*
X1372991Y1926911D1*
X1378749Y1933652D1*
X1385491Y1939411D1*
X1393050Y1944043D1*
X1401241Y1947436D1*
X1409862Y1949505D1*
X1418701Y1950201D1*
X1427539Y1949505D1*
X1436160Y1947436D1*
X1444352Y1944043D1*
X1451911Y1939411D1*
X1458652Y1933652D1*
X1464411Y1926911D1*
X1468696Y1919971D1*
X1472991Y1926911D1*
X1478749Y1933652D1*
X1485491Y1939411D1*
X1493050Y1944043D1*
X1501241Y1947436D1*
X1509862Y1949505D1*
X1518701Y1950201D1*
X1527539Y1949505D1*
X1536160Y1947436D1*
X1544352Y1944043D1*
X1551911Y1939411D1*
X1558652Y1933652D1*
X1564411Y1926911D1*
X1568696Y1919971D1*
X1572991Y1926911D1*
X1578749Y1933652D1*
X1585491Y1939411D1*
X1593050Y1944043D1*
X1601241Y1947436D1*
X1609862Y1949505D1*
X1618701Y1950201D1*
X1627539Y1949505D1*
X1636160Y1947436D1*
X1644352Y1944043D1*
X1651911Y1939411D1*
X1658652Y1933652D1*
X1664411Y1926911D1*
X1668696Y1919971D1*
X1672991Y1926911D1*
X1678749Y1933652D1*
X1685491Y1939411D1*
X1693050Y1944043D1*
X1701241Y1947436D1*
X1709862Y1949505D1*
X1718701Y1950201D1*
X1727539Y1949505D1*
X1736160Y1947436D1*
X1744352Y1944043D1*
X1751911Y1939411D1*
X1758652Y1933652D1*
X1764411Y1926911D1*
X1768696Y1919971D1*
X1772991Y1926911D1*
X1778749Y1933652D1*
X1785491Y1939411D1*
X1793050Y1944043D1*
X1801241Y1947436D1*
X1809862Y1949505D1*
X1818701Y1950201D1*
X1827539Y1949505D1*
X1836160Y1947436D1*
X1844352Y1944043D1*
X1851911Y1939411D1*
X1858652Y1933652D1*
X1864411Y1926911D1*
X1868696Y1919971D1*
X1872991Y1926911D1*
X1878749Y1933652D1*
X1885491Y1939411D1*
X1893050Y1944043D1*
X1901241Y1947436D1*
X1909862Y1949505D1*
X1918701Y1950201D1*
X1927539Y1949505D1*
X1936160Y1947436D1*
X1944352Y1944043D1*
X1951911Y1939411D1*
X1958652Y1933652D1*
X1964411Y1926911D1*
X1968696Y1919971D1*
X1972991Y1926911D1*
X1978749Y1933652D1*
X1985491Y1939411D1*
X1993050Y1944043D1*
X2001241Y1947436D1*
X2009862Y1949505D1*
X2018701Y1950201D1*
X2027539Y1949505D1*
X2036160Y1947436D1*
X2044352Y1944043D1*
X2051911Y1939411D1*
X2058652Y1933652D1*
X2064411Y1926911D1*
X2068696Y1919971D1*
X2072991Y1926911D1*
X2078749Y1933652D1*
X2085491Y1939411D1*
X2093050Y1944043D1*
X2101241Y1947436D1*
X2109862Y1949505D1*
X2118701Y1950201D1*
X2127539Y1949505D1*
X2136160Y1947436D1*
X2144352Y1944043D1*
X2151911Y1939411D1*
X2158652Y1933652D1*
X2164411Y1926911D1*
X2168696Y1919971D1*
X2172991Y1926911D1*
X2178749Y1933652D1*
X2185491Y1939411D1*
X2193050Y1944043D1*
X2201241Y1947436D1*
X2209862Y1949505D1*
X2218701Y1950201D1*
X2227539Y1949505D1*
X2236160Y1947436D1*
X2244352Y1944043D1*
X2251911Y1939411D1*
X2258652Y1933652D1*
X2264411Y1926911D1*
X2269043Y1919352D1*
X2272436Y1911160D1*
X2274505Y1902539D1*
X2275201Y1893701D1*
X2274505Y1884862D1*
X2272436Y1876241D1*
X2269043Y1868050D1*
X2264411Y1860491D1*
X2258652Y1853749D1*
X2251911Y1847991D1*
X2244487Y1843436D1*
X2251633Y1839028D1*
X2258319Y1833319D1*
X2264028Y1826633D1*
X2268622Y1819136D1*
X2271986Y1811014D1*
X2274038Y1802466D1*
X2274728Y1793701D1*
X2274038Y1784936D1*
X2271986Y1776387D1*
X2268622Y1768265D1*
X2264028Y1760769D1*
X2258319Y1754083D1*
X2251633Y1748374D1*
X2244136Y1743780D1*
X2236014Y1740416D1*
X2227466Y1738364D1*
X2218701Y1737673D1*
X2209936Y1738364D1*
X2201387Y1740416D1*
X2193265Y1743780D1*
X2185769Y1748374D1*
X2179083Y1754083D1*
X2173374Y1760769D1*
X2168701Y1768437D1*
X2164028Y1760769D1*
X2158319Y1754083D1*
X2151633Y1748374D1*
X2144136Y1743780D1*
X2136014Y1740416D1*
X2127466Y1738364D1*
X2118701Y1737673D1*
X2109936Y1738364D1*
X2101387Y1740416D1*
X2093265Y1743780D1*
X2085769Y1748374D1*
X2079083Y1754083D1*
X2073374Y1760769D1*
X2068701Y1768437D1*
X2064028Y1760769D1*
X2058319Y1754083D1*
X2051633Y1748374D1*
X2044136Y1743780D1*
X2036014Y1740416D1*
X2027466Y1738364D1*
X2018701Y1737673D1*
X2009936Y1738364D1*
X2001387Y1740416D1*
X1993265Y1743780D1*
X1985769Y1748374D1*
X1979083Y1754083D1*
X1973374Y1760769D1*
X1968701Y1768437D1*
X1964028Y1760769D1*
X1958319Y1754083D1*
X1951633Y1748374D1*
X1944136Y1743780D1*
X1936014Y1740416D1*
X1927466Y1738364D1*
X1918701Y1737673D1*
X1909936Y1738364D1*
X1901387Y1740416D1*
X1893265Y1743780D1*
X1885769Y1748374D1*
X1879083Y1754083D1*
X1873374Y1760769D1*
X1868701Y1768437D1*
X1864028Y1760769D1*
X1858319Y1754083D1*
X1851633Y1748374D1*
X1844136Y1743780D1*
X1836014Y1740416D1*
X1827466Y1738364D1*
X1818701Y1737673D1*
X1809936Y1738364D1*
X1801387Y1740416D1*
X1793265Y1743780D1*
X1785769Y1748374D1*
X1779083Y1754083D1*
X1773374Y1760769D1*
X1768701Y1768437D1*
X1764028Y1760769D1*
X1758319Y1754083D1*
X1751633Y1748374D1*
X1744136Y1743780D1*
X1736014Y1740416D1*
X1727466Y1738364D1*
X1718701Y1737673D1*
X1709936Y1738364D1*
X1701387Y1740416D1*
X1693265Y1743780D1*
X1685769Y1748374D1*
X1679083Y1754083D1*
X1673374Y1760769D1*
X1668701Y1768437D1*
X1664028Y1760769D1*
X1658319Y1754083D1*
X1651633Y1748374D1*
X1644136Y1743780D1*
X1636014Y1740416D1*
X1627466Y1738364D1*
X1618701Y1737673D1*
X1609936Y1738364D1*
X1601387Y1740416D1*
X1593265Y1743780D1*
X1585769Y1748374D1*
X1579083Y1754083D1*
X1573374Y1760769D1*
X1568701Y1768437D1*
X1564028Y1760769D1*
X1558319Y1754083D1*
X1551633Y1748374D1*
X1544136Y1743780D1*
X1536014Y1740416D1*
X1527466Y1738364D1*
X1518701Y1737673D1*
X1509936Y1738364D1*
X1501387Y1740416D1*
X1493265Y1743780D1*
X1485769Y1748374D1*
X1479083Y1754083D1*
X1473374Y1760769D1*
X1468701Y1768437D1*
X1464028Y1760769D1*
X1458319Y1754083D1*
X1451633Y1748374D1*
X1444136Y1743780D1*
X1436014Y1740416D1*
X1427466Y1738364D1*
X1418701Y1737673D1*
X1409936Y1738364D1*
X1401387Y1740416D1*
X1393265Y1743780D1*
X1385769Y1748374D1*
X1379083Y1754083D1*
X1373374Y1760769D1*
X1368701Y1768437D1*
X1364028Y1760769D1*
X1358319Y1754083D1*
X1351633Y1748374D1*
X1344136Y1743780D1*
X1336014Y1740416D1*
X1327466Y1738364D1*
X1318701Y1737673D1*
X1309936Y1738364D1*
X1301387Y1740416D1*
X1293265Y1743780D1*
X1285769Y1748374D1*
X1279083Y1754083D1*
X1273374Y1760769D1*
X1268701Y1768437D1*
X1264028Y1760769D1*
X1258319Y1754083D1*
X1251633Y1748374D1*
X1244136Y1743780D1*
X1236014Y1740416D1*
X1227466Y1738364D1*
X1218701Y1737673D1*
X1209936Y1738364D1*
X1201387Y1740416D1*
X1193265Y1743780D1*
X1185769Y1748374D1*
X1179083Y1754083D1*
X1173374Y1760769D1*
X1168701Y1768437D1*
X1164028Y1760769D1*
X1158319Y1754083D1*
X1151633Y1748374D1*
X1144136Y1743780D1*
X1136014Y1740416D1*
X1127466Y1738364D1*
X1118701Y1737673D1*
X1109936Y1738364D1*
X1101387Y1740416D1*
X1093265Y1743780D1*
X1085769Y1748374D1*
X1079083Y1754083D1*
X1073374Y1760769D1*
X1068701Y1768437D1*
X1064028Y1760769D1*
X1058319Y1754083D1*
X1051633Y1748374D1*
X1044136Y1743780D1*
X1036014Y1740416D1*
X1027466Y1738364D1*
X1018701Y1737673D1*
X1009936Y1738364D1*
X1001387Y1740416D1*
X993265Y1743780D1*
X985769Y1748374D1*
X979083Y1754083D1*
X973374Y1760769D1*
X968701Y1768437D1*
X964028Y1760769D1*
X958319Y1754083D1*
X951633Y1748374D1*
X944136Y1743780D1*
X936014Y1740416D1*
X927466Y1738364D1*
X918701Y1737673D1*
X909936Y1738364D1*
X901387Y1740416D1*
X893265Y1743780D1*
X885769Y1748374D1*
X879083Y1754083D1*
X873374Y1760769D1*
X868701Y1768437D1*
X864028Y1760769D1*
X858319Y1754083D1*
X851633Y1748374D1*
X844136Y1743780D1*
X836014Y1740416D1*
X827466Y1738364D1*
X818701Y1737673D1*
X809936Y1738364D1*
X801387Y1740416D1*
X793265Y1743780D1*
X785769Y1748374D1*
X779083Y1754083D1*
X773374Y1760769D1*
X768701Y1768437D1*
X764028Y1760769D1*
X758319Y1754083D1*
X751633Y1748374D1*
X744136Y1743780D1*
X736014Y1740416D1*
X727466Y1738364D1*
X718701Y1737673D1*
X709936Y1738364D1*
X701387Y1740416D1*
X693265Y1743780D1*
X685769Y1748374D1*
X679083Y1754083D1*
X673374Y1760769D1*
X668701Y1768437D1*
X664028Y1760769D1*
X658319Y1754083D1*
X651633Y1748374D1*
X644136Y1743780D1*
X636014Y1740416D1*
X627466Y1738364D1*
X618701Y1737673D1*
X609936Y1738364D1*
X601387Y1740416D1*
X593265Y1743780D1*
X585769Y1748374D1*
X579083Y1754083D1*
X574724Y1759055D1*
X574728Y1737673D1*
X462673D1*
Y1849728D1*
X471860D1*
X3077832Y1763366D2*
X3078642Y1773690D1*
X3081055Y1783740D1*
X3085010Y1793290D1*
X3090411Y1802104D1*
X3097123Y1809963D1*
X3104983Y1816676D1*
X3113797Y1822076D1*
X3123346Y1826031D1*
X3133396Y1828445D1*
X3143701Y1829256D1*
X3154005Y1828445D1*
X3164055Y1826031D1*
X3173605Y1822076D1*
X3182419Y1816676D1*
X3190278Y1809963D1*
X3196991Y1802104D1*
X3202391Y1793290D1*
X3206346Y1783740D1*
X3208760Y1773690D1*
X3209571Y1763386D1*
Y1752799D1*
X3210201Y1743701D1*
Y1535177D1*
X3281201Y1535201D1*
X3291604Y1534382D1*
X3301751Y1531946D1*
X3311391Y1527953D1*
X3320289Y1522500D1*
X3328238Y1515709D1*
X3394268Y1449390D1*
X3400402Y1440948D1*
X3405139Y1431650D1*
X3408364Y1421724D1*
X3409996Y1411419D1*
X3410201Y1387828D1*
X3409996Y1338483D1*
X3408364Y1328177D1*
X3405139Y1318252D1*
X3400402Y1308954D1*
X3394268Y1300512D1*
X3386890Y1293134D1*
X3378448Y1287000D1*
X3369150Y1282262D1*
X3359224Y1279038D1*
X3348919Y1277406D1*
X3338483D1*
X3328177Y1279038D1*
X3318252Y1282262D1*
X3308954Y1287000D1*
X3300512Y1293134D1*
X3293134Y1300512D1*
X3287000Y1308954D1*
X3282262Y1318252D1*
X3279038Y1328177D1*
X3277406Y1338483D1*
X3277201Y1362073D1*
X3277190Y1378665D1*
X3253642Y1402201D1*
X2700209D1*
X2700026Y1339268D1*
X2698639Y1330510D1*
X2695900Y1322079D1*
X2691875Y1314180D1*
X2686664Y1307007D1*
X2680395Y1300738D1*
X2673222Y1295526D1*
X2665323Y1291501D1*
X2656891Y1288762D1*
X2648134Y1287375D1*
X2639268D1*
X2630510Y1288762D1*
X2622079Y1291501D1*
X2614180Y1295526D1*
X2607007Y1300738D1*
X2600738Y1307007D1*
X2595526Y1314180D1*
X2591501Y1322079D1*
X2588762Y1330510D1*
X2587375Y1339268D1*
X2587201Y1362073D1*
Y1402228D1*
X2000190Y1402201D1*
X2000026Y1339268D1*
X1998639Y1330510D1*
X1995900Y1322079D1*
X1991875Y1314180D1*
X1986664Y1307007D1*
X1980395Y1300738D1*
X1973222Y1295526D1*
X1965323Y1291501D1*
X1956891Y1288762D1*
X1948134Y1287375D1*
X1939268D1*
X1930510Y1288762D1*
X1922079Y1291501D1*
X1914180Y1295526D1*
X1907007Y1300738D1*
X1900738Y1307007D1*
X1895526Y1314180D1*
X1891501Y1322079D1*
X1888762Y1330510D1*
X1887375Y1339268D1*
X1887201Y1362073D1*
Y1402228D1*
X1310165Y1402201D1*
X1310201Y1343701D1*
X1309382Y1333298D1*
X1306946Y1323151D1*
X1302953Y1313510D1*
X1297500Y1304613D1*
X1290723Y1296678D1*
X1282789Y1289902D1*
X1273891Y1284449D1*
X1264251Y1280455D1*
X1254104Y1278020D1*
X1243701Y1277201D1*
X1233298Y1278020D1*
X1223151Y1280455D1*
X1213510Y1284449D1*
X1204613Y1289902D1*
X1196678Y1296678D1*
X1189902Y1304613D1*
X1184449Y1313510D1*
X1180455Y1323151D1*
X1178020Y1333298D1*
X1177201Y1343701D1*
X1177406Y1473919D1*
X1179038Y1484224D1*
X1182262Y1494150D1*
X1187000Y1503448D1*
X1193134Y1511888D1*
X1200513Y1519268D1*
X1208954Y1525402D1*
X1218252Y1530139D1*
X1228177Y1533364D1*
X1238483Y1534996D1*
X1262073Y1535201D1*
X1273018D1*
X1272344Y1540052D1*
Y1547349D1*
X1272504Y1548694D1*
X869673Y1548701D1*
X865201Y1544239D1*
X864629Y1536427D1*
X862925Y1529332D1*
X860133Y1522591D1*
X856320Y1516369D1*
X851581Y1510820D1*
X846033Y1506081D1*
X839811Y1502269D1*
X837493Y1501201D1*
X1035461D1*
X1041369Y1506320D1*
X1047591Y1510133D1*
X1054332Y1512925D1*
X1061427Y1514629D1*
X1068701Y1515201D1*
X1075975Y1514629D1*
X1083070Y1512925D1*
X1089811Y1510133D1*
X1096033Y1506320D1*
X1101581Y1501581D1*
X1106320Y1496033D1*
X1110133Y1489811D1*
X1112925Y1483070D1*
X1114629Y1475975D1*
X1115201Y1468701D1*
X1114629Y1461427D1*
X1112925Y1454332D1*
X1110133Y1447591D1*
X1106320Y1441369D1*
X1101581Y1435820D1*
X1096033Y1431081D1*
X1089811Y1427269D1*
X1083070Y1424476D1*
X1075975Y1422773D1*
X1068701Y1422201D1*
X1061427Y1422773D1*
X1054332Y1424476D1*
X1047591Y1427269D1*
X1041369Y1431081D1*
X1035462Y1436207D1*
X689441Y1436201D1*
X683533Y1431081D1*
X677311Y1427269D1*
X670570Y1424476D1*
X663475Y1422773D1*
X656201Y1422201D1*
X648927Y1422773D1*
X641832Y1424476D1*
X635091Y1427269D1*
X628869Y1431081D1*
X623320Y1435820D1*
X618581Y1441369D1*
X614769Y1447591D1*
X611976Y1454332D1*
X610273Y1461427D1*
X609701Y1468701D1*
X610273Y1475975D1*
X611976Y1483070D1*
X614769Y1489811D1*
X618581Y1496033D1*
X623320Y1501581D1*
X628869Y1506320D1*
X635091Y1510133D1*
X641832Y1512925D1*
X648927Y1514629D1*
X656201Y1515201D1*
X663475Y1514629D1*
X670570Y1512925D1*
X677311Y1510133D1*
X683533Y1506320D1*
X689440Y1501194D1*
X799845Y1501201D1*
X794404Y1504052D1*
X788501Y1508343D1*
X783343Y1513501D1*
X779052Y1519404D1*
X775740Y1525906D1*
X773486Y1532845D1*
X772344Y1540052D1*
Y1547349D1*
X773486Y1554556D1*
X775740Y1561496D1*
X779052Y1567997D1*
X783343Y1573900D1*
X788501Y1579059D1*
X794404Y1583349D1*
X799908Y1586201D1*
X639453D1*
X633533Y1581081D1*
X627311Y1577269D1*
X620570Y1574476D1*
X613475Y1572773D1*
X606201Y1572201D1*
X598927Y1572773D1*
X591832Y1574476D1*
X585091Y1577269D1*
X578869Y1581081D1*
X573320Y1585820D1*
X568581Y1591369D1*
X564769Y1597591D1*
X561976Y1604332D1*
X560273Y1611427D1*
X559701Y1618701D1*
X560273Y1625975D1*
X561976Y1633070D1*
X564769Y1639811D1*
X568581Y1646033D1*
X573320Y1651581D1*
X578869Y1656320D1*
X585091Y1660133D1*
X591832Y1662925D1*
X598927Y1664629D1*
X606201Y1665201D1*
X613475Y1664629D1*
X620570Y1662925D1*
X627311Y1660133D1*
X633533Y1656320D1*
X639440Y1651194D1*
X708148Y1651201D1*
X704052Y1656904D1*
X700740Y1663406D1*
X698486Y1670345D1*
X697344Y1677552D1*
Y1684849D1*
X698486Y1692056D1*
X700740Y1698996D1*
X704052Y1705497D1*
X708343Y1711400D1*
X713501Y1716559D1*
X719404Y1720849D1*
X725906Y1724161D1*
X732845Y1726416D1*
X740052Y1727558D1*
X747349D1*
X754556Y1726416D1*
X761496Y1724161D1*
X767997Y1720849D1*
X773900Y1716559D1*
X776940Y1713694D1*
X1135449Y1713701D1*
X1141369Y1718820D1*
X1147591Y1722633D1*
X1154332Y1725425D1*
X1161427Y1727129D1*
X1168701Y1727701D1*
X1175975Y1727129D1*
X1183070Y1725425D1*
X1189811Y1722633D1*
X1196033Y1718820D1*
X1201581Y1714081D1*
X1206320Y1708533D1*
X1210133Y1702311D1*
X1212925Y1695570D1*
X1214629Y1688475D1*
X1215201Y1681201D1*
X1214629Y1673927D1*
X1212925Y1666832D1*
X1210133Y1660091D1*
X1206320Y1653869D1*
X1204210Y1651192D1*
X1435449Y1651201D1*
X1441369Y1656320D1*
X1447591Y1660133D1*
X1454332Y1662925D1*
X1461427Y1664629D1*
X1468701Y1665201D1*
X1475975Y1664629D1*
X1483070Y1662925D1*
X1489811Y1660133D1*
X1496033Y1656320D1*
X1501581Y1651581D1*
X1506320Y1646033D1*
X1510133Y1639811D1*
X1512925Y1633070D1*
X1514629Y1625975D1*
X1515201Y1618701D1*
X1514898Y1613707D1*
X2735420Y1613701D1*
X2741369Y1618820D1*
X2747591Y1622633D1*
X2754332Y1625425D1*
X2761427Y1627129D1*
X2768701Y1627701D1*
X2775975Y1627129D1*
X2783070Y1625425D1*
X2789811Y1622633D1*
X2796033Y1618820D1*
X2801581Y1614081D1*
X2806320Y1608533D1*
X2810133Y1602311D1*
X2812925Y1595570D1*
X2814629Y1588475D1*
X2815201Y1581201D1*
X2814629Y1573927D1*
X2812925Y1566832D1*
X2810133Y1560091D1*
X2806320Y1553869D1*
X2801581Y1548320D1*
X2796033Y1543581D1*
X2789811Y1539769D1*
X2783070Y1536976D1*
X2775366Y1535201D1*
X3077218D1*
X3077201Y1743701D1*
X3077831Y1752504D1*
Y1763252D1*
X3242146Y1862871D2*
X3231822Y1863681D1*
X3221772Y1866094D1*
X3212222Y1870050D1*
X3203408Y1875450D1*
X3195549Y1882163D1*
X3188836Y1890022D1*
X3183436Y1898836D1*
X3179480Y1908386D1*
X3177067Y1918436D1*
X3176256Y1928740D1*
X3177067Y1939045D1*
X3179480Y1949094D1*
X3183436Y1958644D1*
X3188836Y1967458D1*
X3195549Y1975318D1*
X3203408Y1982030D1*
X3212222Y1987430D1*
X3221772Y1991386D1*
X3231822Y1993799D1*
X3242146Y1994609D1*
X3286664Y1994407D1*
X3296873Y1992790D1*
X3306703Y1989596D1*
X3315913Y1984904D1*
X3324276Y1978828D1*
X3331584Y1971520D1*
X3337660Y1963157D1*
X3342352Y1953948D1*
X3345546Y1944117D1*
X3347163Y1933908D1*
Y1923572D1*
X3345546Y1913364D1*
X3342352Y1903533D1*
X3337660Y1894323D1*
X3331584Y1885961D1*
X3324276Y1878652D1*
X3315913Y1872576D1*
X3306703Y1867885D1*
X3296873Y1864690D1*
X3286664Y1863073D1*
X3263123Y1862870D1*
X3242126Y1862906D1*
X589440Y2518755D2*
X588163Y2510696D1*
X585642Y2502934D1*
X581937Y2495664D1*
X577140Y2489063D1*
X571370Y2483293D1*
X564769Y2478496D1*
X557499Y2474791D1*
X549738Y2472270D1*
X541678Y2470993D1*
X533518D1*
X525459Y2472270D1*
X517698Y2474791D1*
X510428Y2478496D1*
X503827Y2483293D1*
X498056Y2489063D1*
X493260Y2495664D1*
X489555Y2502934D1*
X487034Y2510696D1*
X485757Y2518755D1*
Y2526915D1*
X487034Y2534974D1*
X489555Y2542735D1*
X493260Y2550005D1*
X498056Y2556606D1*
X503827Y2562377D1*
X510428Y2567173D1*
X517698Y2570878D1*
X525459Y2573399D1*
X533518Y2574676D1*
X541678D1*
X549738Y2573399D1*
X557499Y2570878D1*
X564769Y2567173D1*
X571370Y2562377D1*
X577140Y2556606D1*
X581937Y2550005D1*
X585642Y2542735D1*
X588163Y2534974D1*
X589440Y2526915D1*
Y2518755D1*
Y2203794D2*
X588163Y2195735D1*
X585642Y2187974D1*
X581937Y2180703D1*
X577140Y2174102D1*
X571370Y2168332D1*
X564769Y2163535D1*
X557499Y2159831D1*
X549738Y2157310D1*
X541678Y2156033D1*
X533518D1*
X525459Y2157310D1*
X517698Y2159831D1*
X510428Y2163535D1*
X503827Y2168332D1*
X498056Y2174102D1*
X493260Y2180703D1*
X489555Y2187974D1*
X487034Y2195735D1*
X485757Y2203794D1*
Y2211954D1*
X487034Y2220013D1*
X489555Y2227774D1*
X493260Y2235045D1*
X498056Y2241646D1*
X503827Y2247416D1*
X510428Y2252213D1*
X517698Y2255917D1*
X525459Y2258438D1*
X533518Y2259715D1*
X541678D1*
X549738Y2258438D1*
X557499Y2255917D1*
X564769Y2252213D1*
X571370Y2247416D1*
X577140Y2241646D1*
X581937Y2235045D1*
X585642Y2227774D1*
X588163Y2220013D1*
X589440Y2211954D1*
Y2203794D1*
X696887Y1399701D2*
X799701D1*
Y1333638D1*
X907177Y1226186D1*
X1390517Y1226201D1*
X1388390Y1234941D1*
X1387701Y1243701D1*
X1388390Y1252461D1*
X1390442Y1261005D1*
X1393804Y1269125D1*
X1398396Y1276617D1*
X1404102Y1283299D1*
X1409126Y1287698D1*
X1387701Y1287701D1*
Y1399701D1*
X1499701D1*
Y1376197D1*
X1508751Y1376101D1*
X1513787Y1375303D1*
X1518638Y1373727D1*
X1523182Y1371412D1*
X1527308Y1368415D1*
X1569835Y1326030D1*
X1573146Y1322152D1*
X1575811Y1317803D1*
X1577762Y1313092D1*
X1578953Y1308133D1*
X1579353Y1303049D1*
Y1226220D1*
X2090534Y1226201D1*
X2088390Y1234941D1*
X2087701Y1243701D1*
X2088390Y1252461D1*
X2090442Y1261005D1*
X2093804Y1269125D1*
X2098396Y1276617D1*
X2104102Y1283299D1*
X2109126Y1287698D1*
X2087701Y1287701D1*
Y1399701D1*
X2199701D1*
Y1376197D1*
X2208751Y1376101D1*
X2213787Y1375303D1*
X2218638Y1373727D1*
X2223182Y1371412D1*
X2227308Y1368415D1*
X2275587Y1320278D1*
X2278898Y1316400D1*
X2281563Y1312051D1*
X2283514Y1307340D1*
X2284705Y1302381D1*
X2285105Y1297297D1*
Y1226210D1*
X2717772Y1226201D1*
X2723723Y1232185D1*
X2723801Y1321251D1*
X2724598Y1326287D1*
X2726175Y1331138D1*
X2728490Y1335682D1*
X2731487Y1339808D1*
X2758219Y1366682D1*
X2762097Y1369993D1*
X2766446Y1372659D1*
X2771157Y1374610D1*
X2776117Y1375801D1*
X2781201Y1376201D1*
X2787696D1*
X2787701Y1399701D1*
X2899701D1*
Y1287701D1*
X2878350D1*
X2883299Y1283299D1*
X2889005Y1276617D1*
X2893597Y1269125D1*
X2896959Y1261005D1*
X2899012Y1252461D1*
X2899701Y1243701D1*
X2899012Y1234941D1*
X2896959Y1226396D1*
X2893597Y1218277D1*
X2889005Y1210785D1*
X2883299Y1204102D1*
X2876617Y1198396D1*
X2868921Y1193711D1*
X2876617Y1189005D1*
X2883299Y1183299D1*
X2889005Y1176617D1*
X2893597Y1169125D1*
X2896959Y1161005D1*
X2899012Y1152461D1*
X2899701Y1143701D1*
X2899012Y1134941D1*
X2896959Y1126396D1*
X2893597Y1118277D1*
X2889005Y1110785D1*
X2883299Y1104102D1*
X2876617Y1098396D1*
X2868921Y1093711D1*
X2876617Y1089005D1*
X2883299Y1083299D1*
X2889005Y1076617D1*
X2893597Y1069125D1*
X2896959Y1061005D1*
X2899012Y1052461D1*
X2899701Y1043701D1*
X2899012Y1034941D1*
X2896959Y1026396D1*
X2893597Y1018277D1*
X2889005Y1010785D1*
X2883299Y1004102D1*
X2876617Y998396D1*
X2868921Y993711D1*
X2876617Y989005D1*
X2883299Y983299D1*
X2889005Y976617D1*
X2893597Y969125D1*
X2896959Y961005D1*
X2899012Y952461D1*
X2899701Y943701D1*
X2899012Y934941D1*
X2896959Y926396D1*
X2893597Y918277D1*
X2889005Y910785D1*
X2883299Y904102D1*
X2876617Y898396D1*
X2868921Y893711D1*
X2876617Y889005D1*
X2883299Y883299D1*
X2889005Y876617D1*
X2893597Y869125D1*
X2896959Y861005D1*
X2899012Y852461D1*
X2899701Y843701D1*
X2899012Y834941D1*
X2896959Y826396D1*
X2893597Y818277D1*
X2889005Y810785D1*
X2883299Y804102D1*
X2876617Y798396D1*
X2868921Y793711D1*
X2876617Y789005D1*
X2883299Y783299D1*
X2889005Y776617D1*
X2893597Y769125D1*
X2896959Y761005D1*
X2899012Y752461D1*
X2899701Y743701D1*
X2899012Y734941D1*
X2896959Y726396D1*
X2893597Y718277D1*
X2889005Y710785D1*
X2883299Y704102D1*
X2876617Y698396D1*
X2868921Y693711D1*
X2876617Y689005D1*
X2883299Y683299D1*
X2889005Y676617D1*
X2893597Y669125D1*
X2896959Y661005D1*
X2899012Y652461D1*
X2899701Y643701D1*
X2899012Y634941D1*
X2896959Y626396D1*
X2893597Y618277D1*
X2889005Y610785D1*
X2883299Y604102D1*
X2876617Y598396D1*
X2869125Y593804D1*
X2861005Y590442D1*
X2852461Y588390D1*
X2843701Y587701D1*
X2834941Y588390D1*
X2826396Y590442D1*
X2818277Y593804D1*
X2810785Y598396D1*
X2804102Y604102D1*
X2798396Y610785D1*
X2793804Y618277D1*
X2790442Y626396D1*
X2788390Y634941D1*
X2787701Y643701D1*
X2788390Y652461D1*
X2790442Y661005D1*
X2793804Y669125D1*
X2798396Y676617D1*
X2804102Y683299D1*
X2810785Y689005D1*
X2818480Y693690D1*
X2810785Y698396D1*
X2804102Y704102D1*
X2798396Y710785D1*
X2793804Y718277D1*
X2790442Y726396D1*
X2788390Y734941D1*
X2787701Y743701D1*
X2788390Y752461D1*
X2790442Y761005D1*
X2793804Y769125D1*
X2798396Y776617D1*
X2804102Y783299D1*
X2810785Y789005D1*
X2818480Y793690D1*
X2810785Y798396D1*
X2804102Y804102D1*
X2798396Y810785D1*
X2793804Y818277D1*
X2790442Y826396D1*
X2788390Y834941D1*
X2787701Y843701D1*
X2788390Y852461D1*
X2790442Y861005D1*
X2793804Y869125D1*
X2798396Y876617D1*
X2804102Y883299D1*
X2810785Y889005D1*
X2818480Y893690D1*
X2810785Y898396D1*
X2804102Y904102D1*
X2798396Y910785D1*
X2793804Y918277D1*
X2790442Y926396D1*
X2788390Y934941D1*
X2787701Y943701D1*
X2788390Y952461D1*
X2790442Y961005D1*
X2793804Y969125D1*
X2798396Y976617D1*
X2804102Y983299D1*
X2810785Y989005D1*
X2818480Y993690D1*
X2810785Y998396D1*
X2804102Y1004102D1*
X2798396Y1010785D1*
X2793804Y1018277D1*
X2790442Y1026396D1*
X2788390Y1034941D1*
X2787701Y1043701D1*
X2788390Y1052461D1*
X2790442Y1061005D1*
X2793804Y1069125D1*
X2798396Y1076617D1*
X2804102Y1083299D1*
X2810785Y1089005D1*
X2818480Y1093690D1*
X2810785Y1098396D1*
X2804102Y1104102D1*
X2798119Y1111199D1*
X2794647Y1111201D1*
X2752308Y1068987D1*
X2748182Y1065990D1*
X2743638Y1063675D1*
X2738787Y1062098D1*
X2733751Y1061301D1*
X2696932Y1061201D1*
X2699012Y1052461D1*
X2699701Y1043701D1*
X2699012Y1034941D1*
X2696959Y1026396D1*
X2693597Y1018277D1*
X2689005Y1010785D1*
X2683299Y1004102D1*
X2676617Y998396D1*
X2668921Y993711D1*
X2676617Y989005D1*
X2683299Y983299D1*
X2689005Y976617D1*
X2693597Y969125D1*
X2696959Y961005D1*
X2699012Y952461D1*
X2699701Y943701D1*
X2699012Y934941D1*
X2696959Y926396D1*
X2693597Y918277D1*
X2689005Y910785D1*
X2683299Y904102D1*
X2676617Y898396D1*
X2668921Y893711D1*
X2676617Y889005D1*
X2683299Y883299D1*
X2689005Y876617D1*
X2693597Y869125D1*
X2696959Y861005D1*
X2699012Y852461D1*
X2699701Y843701D1*
X2699012Y834941D1*
X2696959Y826396D1*
X2693597Y818277D1*
X2689005Y810785D1*
X2683299Y804102D1*
X2676617Y798396D1*
X2668921Y793711D1*
X2676617Y789005D1*
X2683299Y783299D1*
X2689005Y776617D1*
X2693597Y769125D1*
X2696959Y761005D1*
X2699012Y752461D1*
X2699701Y743701D1*
X2699012Y734941D1*
X2696959Y726396D1*
X2693597Y718277D1*
X2689005Y710785D1*
X2683299Y704102D1*
X2676617Y698396D1*
X2669125Y693804D1*
X2661005Y690442D1*
X2652461Y688390D1*
X2643701Y687701D1*
X2634941Y688390D1*
X2626396Y690442D1*
X2618277Y693804D1*
X2610785Y698396D1*
X2604102Y704102D1*
X2598396Y710785D1*
X2593804Y718277D1*
X2590442Y726396D1*
X2588390Y734941D1*
X2587701Y743701D1*
X2588390Y752461D1*
X2590442Y761005D1*
X2593804Y769125D1*
X2598396Y776617D1*
X2604102Y783299D1*
X2610785Y789005D1*
X2618480Y793690D1*
X2610785Y798396D1*
X2604102Y804102D1*
X2598396Y810785D1*
X2593804Y818277D1*
X2590442Y826396D1*
X2588390Y834941D1*
X2587701Y843701D1*
X2588390Y852461D1*
X2590442Y861005D1*
X2593804Y869125D1*
X2598396Y876617D1*
X2604102Y883299D1*
X2610785Y889005D1*
X2618480Y893690D1*
X2610785Y898396D1*
X2604102Y904102D1*
X2598396Y910785D1*
X2593804Y918277D1*
X2590442Y926396D1*
X2588390Y934941D1*
X2587701Y943701D1*
X2588390Y952461D1*
X2590442Y961005D1*
X2593804Y969125D1*
X2598396Y976617D1*
X2604102Y983299D1*
X2610785Y989005D1*
X2618480Y993690D1*
X2610785Y998396D1*
X2604102Y1004102D1*
X2598396Y1010785D1*
X2593804Y1018277D1*
X2590442Y1026396D1*
X2588390Y1034941D1*
X2587701Y1043701D1*
X2588390Y1052461D1*
X2590518Y1061215D1*
X2253651Y1061301D1*
X2248614Y1062098D1*
X2243764Y1063675D1*
X2239219Y1065990D1*
X2235093Y1068988D1*
X2192748Y1111192D1*
X2189005Y1110785D1*
X2183299Y1104102D1*
X2176617Y1098396D1*
X2168921Y1093711D1*
X2176617Y1089005D1*
X2183299Y1083299D1*
X2189005Y1076617D1*
X2193597Y1069125D1*
X2196959Y1061005D1*
X2199012Y1052461D1*
X2199701Y1043701D1*
X2199012Y1034941D1*
X2196959Y1026396D1*
X2193597Y1018277D1*
X2189005Y1010785D1*
X2183299Y1004102D1*
X2176617Y998396D1*
X2168921Y993711D1*
X2176617Y989005D1*
X2183299Y983299D1*
X2189005Y976617D1*
X2193597Y969125D1*
X2196959Y961005D1*
X2199012Y952461D1*
X2199701Y943701D1*
X2199012Y934941D1*
X2196959Y926396D1*
X2193597Y918277D1*
X2189005Y910785D1*
X2183299Y904102D1*
X2176617Y898396D1*
X2168921Y893711D1*
X2176617Y889005D1*
X2183299Y883299D1*
X2189005Y876617D1*
X2193597Y869125D1*
X2196959Y861005D1*
X2199012Y852461D1*
X2199701Y843701D1*
X2199012Y834941D1*
X2196959Y826396D1*
X2193597Y818277D1*
X2189005Y810785D1*
X2183299Y804102D1*
X2176617Y798396D1*
X2168921Y793711D1*
X2176617Y789005D1*
X2183299Y783299D1*
X2189005Y776617D1*
X2193597Y769125D1*
X2196959Y761005D1*
X2199012Y752461D1*
X2199701Y743701D1*
X2199012Y734941D1*
X2196959Y726396D1*
X2193597Y718277D1*
X2189005Y710785D1*
X2183299Y704102D1*
X2176617Y698396D1*
X2168921Y693711D1*
X2176617Y689005D1*
X2183299Y683299D1*
X2189005Y676617D1*
X2193597Y669125D1*
X2196959Y661005D1*
X2199012Y652461D1*
X2199701Y643701D1*
X2199012Y634941D1*
X2196959Y626396D1*
X2193597Y618277D1*
X2189005Y610785D1*
X2183299Y604102D1*
X2176617Y598396D1*
X2169125Y593804D1*
X2161005Y590442D1*
X2152461Y588390D1*
X2143701Y587701D1*
X2134941Y588390D1*
X2126396Y590442D1*
X2118277Y593804D1*
X2110785Y598396D1*
X2104102Y604102D1*
X2098396Y610785D1*
X2093804Y618277D1*
X2090442Y626396D1*
X2088390Y634941D1*
X2087701Y643701D1*
X2088390Y652461D1*
X2090442Y661005D1*
X2093804Y669125D1*
X2098396Y676617D1*
X2104102Y683299D1*
X2110785Y689005D1*
X2118480Y693690D1*
X2110785Y698396D1*
X2104102Y704102D1*
X2098396Y710785D1*
X2093804Y718277D1*
X2090442Y726396D1*
X2088390Y734941D1*
X2087701Y743701D1*
X2088390Y752461D1*
X2090442Y761005D1*
X2093804Y769125D1*
X2098396Y776617D1*
X2104102Y783299D1*
X2110785Y789005D1*
X2118480Y793690D1*
X2110785Y798396D1*
X2104102Y804102D1*
X2098396Y810785D1*
X2093804Y818277D1*
X2090442Y826396D1*
X2088390Y834941D1*
X2087701Y843701D1*
X2088390Y852461D1*
X2090442Y861005D1*
X2093804Y869125D1*
X2098396Y876617D1*
X2104102Y883299D1*
X2110785Y889005D1*
X2118480Y893690D1*
X2110785Y898396D1*
X2104102Y904102D1*
X2098396Y910785D1*
X2093804Y918277D1*
X2090442Y926396D1*
X2088390Y934941D1*
X2087701Y943701D1*
X2088390Y952461D1*
X2090442Y961005D1*
X2093804Y969125D1*
X2098396Y976617D1*
X2104102Y983299D1*
X2110785Y989005D1*
X2118480Y993690D1*
X2110785Y998396D1*
X2104102Y1004102D1*
X2098396Y1010785D1*
X2093804Y1018277D1*
X2090442Y1026396D1*
X2088390Y1034941D1*
X2087701Y1043701D1*
X2088390Y1052461D1*
X2090442Y1061005D1*
X2093804Y1069125D1*
X2098396Y1076617D1*
X2104102Y1083299D1*
X2110785Y1089005D1*
X2118480Y1093690D1*
X2110785Y1098396D1*
X2104102Y1104102D1*
X2102156Y1106209D1*
X2064808Y1068988D1*
X2060682Y1065990D1*
X2056138Y1063675D1*
X2051287Y1062098D1*
X2046251Y1061301D1*
X1996871Y1061201D1*
X1999012Y1052461D1*
X1999701Y1043701D1*
X1999012Y1034941D1*
X1996959Y1026396D1*
X1993597Y1018277D1*
X1989005Y1010785D1*
X1983299Y1004102D1*
X1976617Y998396D1*
X1968921Y993711D1*
X1976617Y989005D1*
X1983299Y983299D1*
X1989005Y976617D1*
X1993597Y969125D1*
X1996959Y961005D1*
X1999012Y952461D1*
X1999701Y943701D1*
X1999012Y934941D1*
X1996959Y926396D1*
X1993597Y918277D1*
X1989005Y910785D1*
X1983299Y904102D1*
X1976617Y898396D1*
X1968921Y893711D1*
X1976617Y889005D1*
X1983299Y883299D1*
X1989005Y876617D1*
X1993597Y869125D1*
X1996959Y861005D1*
X1999012Y852461D1*
X1999701Y843701D1*
X1999012Y834941D1*
X1996959Y826396D1*
X1993597Y818277D1*
X1989005Y810785D1*
X1983299Y804102D1*
X1976617Y798396D1*
X1968921Y793711D1*
X1976617Y789005D1*
X1983299Y783299D1*
X1989005Y776617D1*
X1993597Y769125D1*
X1996959Y761005D1*
X1999012Y752461D1*
X1999701Y743701D1*
X1999012Y734941D1*
X1996959Y726396D1*
X1993597Y718277D1*
X1989005Y710785D1*
X1983299Y704102D1*
X1976617Y698396D1*
X1969125Y693804D1*
X1961005Y690442D1*
X1952461Y688390D1*
X1943701Y687701D1*
X1934941Y688390D1*
X1926396Y690442D1*
X1918277Y693804D1*
X1910785Y698396D1*
X1904102Y704102D1*
X1898396Y710785D1*
X1893804Y718277D1*
X1890442Y726396D1*
X1888390Y734941D1*
X1887701Y743701D1*
X1888390Y752461D1*
X1890442Y761005D1*
X1893804Y769125D1*
X1898396Y776617D1*
X1904102Y783299D1*
X1910785Y789005D1*
X1918480Y793690D1*
X1910785Y798396D1*
X1904102Y804102D1*
X1898396Y810785D1*
X1893804Y818277D1*
X1890442Y826396D1*
X1888390Y834941D1*
X1887701Y843701D1*
X1888390Y852461D1*
X1890442Y861005D1*
X1893804Y869125D1*
X1898396Y876617D1*
X1904102Y883299D1*
X1910785Y889005D1*
X1918480Y893690D1*
X1910785Y898396D1*
X1904102Y904102D1*
X1898396Y910785D1*
X1893804Y918277D1*
X1890442Y926396D1*
X1888390Y934941D1*
X1887701Y943701D1*
X1888390Y952461D1*
X1890442Y961005D1*
X1893804Y969125D1*
X1898396Y976617D1*
X1904102Y983299D1*
X1910785Y989005D1*
X1918480Y993690D1*
X1910785Y998396D1*
X1904102Y1004102D1*
X1898396Y1010785D1*
X1893804Y1018277D1*
X1890442Y1026396D1*
X1888390Y1034941D1*
X1887701Y1043701D1*
X1888390Y1052461D1*
X1890518Y1061215D1*
X1553651Y1061301D1*
X1548614Y1062098D1*
X1543764Y1063675D1*
X1539219Y1065990D1*
X1535093Y1068988D1*
X1492748Y1111192D1*
X1489005Y1110785D1*
X1483299Y1104102D1*
X1476617Y1098396D1*
X1468921Y1093711D1*
X1476617Y1089005D1*
X1483299Y1083299D1*
X1489005Y1076617D1*
X1493597Y1069125D1*
X1496959Y1061005D1*
X1499012Y1052461D1*
X1499701Y1043701D1*
X1499012Y1034941D1*
X1496959Y1026396D1*
X1493597Y1018277D1*
X1489005Y1010785D1*
X1483299Y1004102D1*
X1476617Y998396D1*
X1468921Y993711D1*
X1476617Y989005D1*
X1483299Y983299D1*
X1489005Y976617D1*
X1493597Y969125D1*
X1496959Y961005D1*
X1499012Y952461D1*
X1499701Y943701D1*
X1499012Y934941D1*
X1496959Y926396D1*
X1493597Y918277D1*
X1489005Y910785D1*
X1483299Y904102D1*
X1476617Y898396D1*
X1468921Y893711D1*
X1476617Y889005D1*
X1483299Y883299D1*
X1489005Y876617D1*
X1493597Y869125D1*
X1496959Y861005D1*
X1499012Y852461D1*
X1499701Y843701D1*
X1499012Y834941D1*
X1496959Y826396D1*
X1493597Y818277D1*
X1489005Y810785D1*
X1483299Y804102D1*
X1476617Y798396D1*
X1468921Y793711D1*
X1476617Y789005D1*
X1483299Y783299D1*
X1489005Y776617D1*
X1493597Y769125D1*
X1496959Y761005D1*
X1499012Y752461D1*
X1499701Y743701D1*
X1499012Y734941D1*
X1496959Y726396D1*
X1493597Y718277D1*
X1489005Y710785D1*
X1483299Y704102D1*
X1476617Y698396D1*
X1468921Y693711D1*
X1476617Y689005D1*
X1483299Y683299D1*
X1489005Y676617D1*
X1493597Y669125D1*
X1496959Y661005D1*
X1499012Y652461D1*
X1499701Y643701D1*
X1499012Y634941D1*
X1496959Y626396D1*
X1493597Y618277D1*
X1489005Y610785D1*
X1483299Y604102D1*
X1476617Y598396D1*
X1469125Y593804D1*
X1461005Y590442D1*
X1452461Y588390D1*
X1443701Y587701D1*
X1434941Y588390D1*
X1426396Y590442D1*
X1418277Y593804D1*
X1410785Y598396D1*
X1404102Y604102D1*
X1398396Y610785D1*
X1393804Y618277D1*
X1390442Y626396D1*
X1388390Y634941D1*
X1387701Y643701D1*
X1388390Y652461D1*
X1390442Y661005D1*
X1393804Y669125D1*
X1398396Y676617D1*
X1404102Y683299D1*
X1410785Y689005D1*
X1418480Y693690D1*
X1410785Y698396D1*
X1404102Y704102D1*
X1398396Y710785D1*
X1393804Y718277D1*
X1390442Y726396D1*
X1388390Y734941D1*
X1387701Y743701D1*
X1388390Y752461D1*
X1390442Y761005D1*
X1393804Y769125D1*
X1398396Y776617D1*
X1404102Y783299D1*
X1410785Y789005D1*
X1418480Y793690D1*
X1410785Y798396D1*
X1404102Y804102D1*
X1398396Y810785D1*
X1393804Y818277D1*
X1390442Y826396D1*
X1388390Y834941D1*
X1387701Y843701D1*
X1388390Y852461D1*
X1390442Y861005D1*
X1393804Y869125D1*
X1398396Y876617D1*
X1404102Y883299D1*
X1410785Y889005D1*
X1418480Y893690D1*
X1410785Y898396D1*
X1404102Y904102D1*
X1398396Y910785D1*
X1393804Y918277D1*
X1390442Y926396D1*
X1388390Y934941D1*
X1387701Y943701D1*
X1388390Y952461D1*
X1390442Y961005D1*
X1393804Y969125D1*
X1398396Y976617D1*
X1404102Y983299D1*
X1410785Y989005D1*
X1418480Y993690D1*
X1410785Y998396D1*
X1404102Y1004102D1*
X1398396Y1010785D1*
X1393804Y1018277D1*
X1390442Y1026396D1*
X1388390Y1034941D1*
X1387701Y1043701D1*
X1388390Y1052461D1*
X1390442Y1061005D1*
X1393804Y1069125D1*
X1398396Y1076617D1*
X1404102Y1083299D1*
X1410785Y1089005D1*
X1418480Y1093690D1*
X1410785Y1098396D1*
X1404102Y1104102D1*
X1402156Y1106209D1*
X1364808Y1068988D1*
X1360682Y1065990D1*
X1356138Y1063675D1*
X1351287Y1062098D1*
X1346251Y1061301D1*
X1296871Y1061201D1*
X1299012Y1052461D1*
X1299701Y1043701D1*
X1299012Y1034941D1*
X1296959Y1026396D1*
X1293597Y1018277D1*
X1289005Y1010785D1*
X1283299Y1004102D1*
X1276617Y998396D1*
X1268921Y993711D1*
X1276617Y989005D1*
X1283299Y983299D1*
X1289005Y976617D1*
X1293597Y969125D1*
X1296959Y961005D1*
X1299012Y952461D1*
X1299701Y943701D1*
X1299012Y934941D1*
X1296959Y926396D1*
X1293597Y918277D1*
X1289005Y910785D1*
X1283299Y904102D1*
X1276617Y898396D1*
X1268921Y893711D1*
X1276617Y889005D1*
X1283299Y883299D1*
X1289005Y876617D1*
X1293597Y869125D1*
X1296959Y861005D1*
X1299012Y852461D1*
X1299701Y843701D1*
X1299012Y834941D1*
X1296959Y826396D1*
X1293597Y818277D1*
X1289005Y810785D1*
X1283299Y804102D1*
X1276617Y798396D1*
X1268921Y793711D1*
X1276617Y789005D1*
X1283299Y783299D1*
X1289005Y776617D1*
X1293597Y769125D1*
X1296959Y761005D1*
X1299012Y752461D1*
X1299701Y743701D1*
X1299012Y734941D1*
X1296959Y726396D1*
X1293597Y718277D1*
X1289005Y710785D1*
X1283299Y704102D1*
X1276617Y698396D1*
X1269125Y693804D1*
X1261005Y690442D1*
X1252461Y688390D1*
X1243701Y687701D1*
X1234941Y688390D1*
X1226396Y690442D1*
X1218277Y693804D1*
X1210785Y698396D1*
X1204102Y704102D1*
X1198396Y710785D1*
X1193804Y718277D1*
X1190442Y726396D1*
X1188390Y734941D1*
X1187701Y743701D1*
X1188390Y752461D1*
X1190442Y761005D1*
X1193804Y769125D1*
X1198396Y776617D1*
X1204102Y783299D1*
X1210785Y789005D1*
X1218480Y793690D1*
X1210785Y798396D1*
X1204102Y804102D1*
X1198396Y810785D1*
X1193804Y818277D1*
X1190442Y826396D1*
X1188390Y834941D1*
X1187701Y843701D1*
X1188390Y852461D1*
X1190442Y861005D1*
X1193804Y869125D1*
X1198396Y876617D1*
X1204102Y883299D1*
X1210785Y889005D1*
X1218480Y893690D1*
X1210785Y898396D1*
X1204102Y904102D1*
X1198396Y910785D1*
X1193804Y918277D1*
X1190442Y926396D1*
X1188390Y934941D1*
X1187701Y943701D1*
X1188390Y952461D1*
X1190442Y961005D1*
X1193804Y969125D1*
X1198396Y976617D1*
X1204102Y983299D1*
X1210785Y989005D1*
X1218480Y993690D1*
X1210785Y998396D1*
X1204102Y1004102D1*
X1198396Y1010785D1*
X1193804Y1018277D1*
X1190442Y1026396D1*
X1188390Y1034941D1*
X1187701Y1043701D1*
X1188390Y1052461D1*
X1190518Y1061215D1*
X841151Y1061301D1*
X836114Y1062098D1*
X831264Y1063675D1*
X826719Y1065990D1*
X822593Y1068987D1*
X785272Y1106167D1*
X780070Y1101118D1*
X772961Y1095953D1*
X769125Y1093597D1*
X776617Y1089005D1*
X783299Y1083299D1*
X789005Y1076617D1*
X793597Y1069125D1*
X796959Y1061005D1*
X799012Y1052461D1*
X799701Y1043701D1*
X799012Y1034941D1*
X796959Y1026396D1*
X793597Y1018277D1*
X789005Y1010785D1*
X783299Y1004102D1*
X776617Y998396D1*
X768921Y993711D1*
X776617Y989005D1*
X783299Y983299D1*
X789005Y976617D1*
X793597Y969125D1*
X796959Y961005D1*
X799012Y952461D1*
X799701Y943701D1*
X799012Y934941D1*
X796959Y926396D1*
X793597Y918277D1*
X789005Y910785D1*
X783299Y904102D1*
X776617Y898396D1*
X768921Y893711D1*
X776617Y889005D1*
X783299Y883299D1*
X789005Y876617D1*
X793597Y869125D1*
X796959Y861005D1*
X799012Y852461D1*
X799701Y843701D1*
X799012Y834941D1*
X796959Y826396D1*
X793597Y818277D1*
X789005Y810785D1*
X783299Y804102D1*
X776617Y798396D1*
X768921Y793711D1*
X776617Y789005D1*
X783299Y783299D1*
X789005Y776617D1*
X793597Y769125D1*
X796959Y761005D1*
X799012Y752461D1*
X799701Y743701D1*
X799012Y734941D1*
X796959Y726396D1*
X793597Y718277D1*
X789005Y710785D1*
X783299Y704102D1*
X776617Y698396D1*
X768921Y693711D1*
X776617Y689005D1*
X783299Y683299D1*
X789005Y676617D1*
X793597Y669125D1*
X796959Y661005D1*
X799012Y652461D1*
X799701Y643701D1*
X799012Y634941D1*
X796959Y626396D1*
X793597Y618277D1*
X789005Y610785D1*
X783299Y604102D1*
X776617Y598396D1*
X769125Y593804D1*
X761005Y590442D1*
X752461Y588390D1*
X743701Y587701D1*
X734941Y588390D1*
X726396Y590442D1*
X718277Y593804D1*
X710785Y598396D1*
X704102Y604102D1*
X698396Y610785D1*
X693804Y618277D1*
X690442Y626396D1*
X688390Y634941D1*
X687701Y643701D1*
X688390Y652461D1*
X690442Y661005D1*
X693804Y669125D1*
X698396Y676617D1*
X704102Y683299D1*
X710785Y689005D1*
X718480Y693690D1*
X710785Y698396D1*
X704102Y704102D1*
X698396Y710785D1*
X693804Y718277D1*
X690442Y726396D1*
X688390Y734941D1*
X687701Y743701D1*
X688390Y752461D1*
X690442Y761005D1*
X693804Y769125D1*
X698396Y776617D1*
X704102Y783299D1*
X710785Y789005D1*
X718480Y793690D1*
X710785Y798396D1*
X704102Y804102D1*
X698396Y810785D1*
X693804Y818277D1*
X690442Y826396D1*
X688390Y834941D1*
X687701Y843701D1*
X688390Y852461D1*
X690442Y861005D1*
X693804Y869125D1*
X698396Y876617D1*
X704102Y883299D1*
X710785Y889005D1*
X718480Y893690D1*
X710785Y898396D1*
X704102Y904102D1*
X698396Y910785D1*
X693804Y918277D1*
X690442Y926396D1*
X688390Y934941D1*
X687701Y943701D1*
X688390Y952461D1*
X690442Y961005D1*
X693804Y969125D1*
X698396Y976617D1*
X704102Y983299D1*
X710785Y989005D1*
X718480Y993690D1*
X710785Y998396D1*
X704102Y1004102D1*
X698396Y1010785D1*
X693804Y1018277D1*
X690442Y1026396D1*
X688390Y1034941D1*
X687701Y1043701D1*
X688390Y1052461D1*
X690442Y1061005D1*
X693804Y1069125D1*
X698396Y1076617D1*
X704102Y1083299D1*
X710785Y1089005D1*
X718480Y1093690D1*
X710785Y1098396D1*
X704102Y1104102D1*
X698396Y1110785D1*
X693804Y1118277D1*
X690442Y1126396D1*
X688390Y1134941D1*
X687701Y1143701D1*
X688390Y1152461D1*
X690442Y1161005D1*
X693804Y1169125D1*
X698396Y1176617D1*
X704102Y1183299D1*
X710785Y1189005D1*
X718480Y1193690D1*
X710785Y1198396D1*
X704102Y1204102D1*
X698396Y1210785D1*
X693804Y1218277D1*
X690442Y1226396D1*
X688390Y1234941D1*
X687701Y1243701D1*
X688390Y1252461D1*
X690442Y1261005D1*
X693804Y1269125D1*
X698396Y1276617D1*
X704102Y1283299D1*
X709126Y1287698D1*
X687701Y1287701D1*
Y1399701D1*
X696887D1*
X3399528Y739307D2*
X3398154Y730627D1*
X3395438Y722270D1*
X3391449Y714441D1*
X3386283Y707332D1*
X3380070Y701118D1*
X3372961Y695953D1*
X3365131Y691963D1*
X3356774Y689248D1*
X3348094Y687874D1*
X3339307D1*
X3330627Y689248D1*
X3322270Y691963D1*
X3314441Y695953D1*
X3307332Y701118D1*
X3301118Y707332D1*
X3295953Y714441D1*
X3291963Y722270D1*
X3289248Y730627D1*
X3287874Y739307D1*
Y748094D1*
X3289248Y756774D1*
X3291963Y765131D1*
X3295953Y772961D1*
X3301118Y780070D1*
X3307332Y786283D1*
X3314441Y791449D1*
X3318277Y793804D1*
X3310785Y798396D1*
X3304102Y804102D1*
X3298396Y810785D1*
X3293804Y818277D1*
X3290442Y826396D1*
X3288390Y834941D1*
X3287701Y843701D1*
X3288390Y852461D1*
X3290442Y861005D1*
X3293804Y869125D1*
X3298396Y876617D1*
X3304102Y883299D1*
X3310785Y889005D1*
X3318480Y893690D1*
X3310785Y898396D1*
X3304102Y904102D1*
X3298396Y910785D1*
X3293804Y918277D1*
X3290442Y926396D1*
X3288390Y934941D1*
X3287701Y943701D1*
X3288390Y952461D1*
X3290442Y961005D1*
X3293804Y969125D1*
X3298396Y976617D1*
X3304102Y983299D1*
X3310785Y989005D1*
X3318480Y993690D1*
X3310785Y998396D1*
X3304102Y1004102D1*
X3298396Y1010785D1*
X3293804Y1018277D1*
X3290442Y1026396D1*
X3288390Y1034941D1*
X3287701Y1043701D1*
X3288390Y1052461D1*
X3290442Y1061005D1*
X3293804Y1069125D1*
X3298396Y1076617D1*
X3304102Y1083299D1*
X3310785Y1089005D1*
X3318480Y1093690D1*
X3310785Y1098396D1*
X3304102Y1104102D1*
X3298396Y1110785D1*
X3293804Y1118277D1*
X3290442Y1126396D1*
X3288390Y1134941D1*
X3287701Y1143701D1*
X3288390Y1152461D1*
X3290442Y1161005D1*
X3293804Y1169125D1*
X3298396Y1176617D1*
X3304102Y1183299D1*
X3310785Y1189005D1*
X3318277Y1193597D1*
X3326396Y1196959D1*
X3334941Y1199012D1*
X3343701Y1199701D1*
X3352461Y1199012D1*
X3361005Y1196959D1*
X3369125Y1193597D1*
X3376617Y1189005D1*
X3383299Y1183299D1*
X3389005Y1176617D1*
X3393597Y1169125D1*
X3396959Y1161005D1*
X3399012Y1152461D1*
X3399701Y1143701D1*
X3399012Y1134941D1*
X3396959Y1126396D1*
X3393597Y1118277D1*
X3389005Y1110785D1*
X3383299Y1104102D1*
X3376617Y1098396D1*
X3368921Y1093711D1*
X3376617Y1089005D1*
X3383299Y1083299D1*
X3389005Y1076617D1*
X3393597Y1069125D1*
X3396959Y1061005D1*
X3399012Y1052461D1*
X3399701Y1043701D1*
X3399012Y1034941D1*
X3396959Y1026396D1*
X3393597Y1018277D1*
X3389005Y1010785D1*
X3383299Y1004102D1*
X3376617Y998396D1*
X3368921Y993711D1*
X3376617Y989005D1*
X3383299Y983299D1*
X3389005Y976617D1*
X3393597Y969125D1*
X3396959Y961005D1*
X3399012Y952461D1*
X3399701Y943701D1*
X3399012Y934941D1*
X3396959Y926396D1*
X3393597Y918277D1*
X3389005Y910785D1*
X3383299Y904102D1*
X3376617Y898396D1*
X3368921Y893711D1*
X3376617Y889005D1*
X3383299Y883299D1*
X3389005Y876617D1*
X3393597Y869125D1*
X3396959Y861005D1*
X3399012Y852461D1*
X3399701Y843701D1*
X3399012Y834941D1*
X3396959Y826396D1*
X3393597Y818277D1*
X3389005Y810785D1*
X3383299Y804102D1*
X3376617Y798396D1*
X3368921Y793711D1*
X3376617Y789005D1*
X3383299Y783299D1*
X3389005Y776617D1*
X3393597Y769125D1*
X3396959Y761005D1*
X3399012Y752461D1*
X3399701Y743701D1*
X3399528Y739307D1*
X568696Y2767430D2*
X564411Y2760491D1*
X558652Y2753749D1*
X551911Y2747991D1*
X544352Y2743358D1*
X536160Y2739966D1*
X527539Y2737896D1*
X518701Y2737201D1*
X509862Y2737896D1*
X501241Y2739966D1*
X493050Y2743358D1*
X485491Y2747991D1*
X478749Y2753749D1*
X472991Y2760491D1*
X468358Y2768050D1*
X464966Y2776241D1*
X462896Y2784862D1*
X462201Y2793701D1*
X462896Y2802539D1*
X464966Y2811160D1*
X468358Y2819352D1*
X472991Y2826911D1*
X478749Y2833652D1*
X485491Y2839411D1*
X493050Y2844043D1*
X501241Y2847436D1*
X509862Y2849505D1*
X518701Y2850201D1*
X527539Y2849505D1*
X536160Y2847436D1*
X544352Y2844043D1*
X551911Y2839411D1*
X558652Y2833652D1*
X564411Y2826911D1*
X568696Y2819971D1*
X572991Y2826911D1*
X578749Y2833652D1*
X585491Y2839411D1*
X593050Y2844043D1*
X601241Y2847436D1*
X609862Y2849505D1*
X618701Y2850201D1*
X627539Y2849505D1*
X636160Y2847436D1*
X644352Y2844043D1*
X651911Y2839411D1*
X658652Y2833652D1*
X664411Y2826911D1*
X668696Y2819971D1*
X672991Y2826911D1*
X678749Y2833652D1*
X685491Y2839411D1*
X693050Y2844043D1*
X701241Y2847436D1*
X709862Y2849505D1*
X718701Y2850201D1*
X727539Y2849505D1*
X736160Y2847436D1*
X744352Y2844043D1*
X751911Y2839411D1*
X758652Y2833652D1*
X764411Y2826911D1*
X768696Y2819971D1*
X772991Y2826911D1*
X778749Y2833652D1*
X785491Y2839411D1*
X793050Y2844043D1*
X801241Y2847436D1*
X809862Y2849505D1*
X818701Y2850201D1*
X827539Y2849505D1*
X836160Y2847436D1*
X844352Y2844043D1*
X851911Y2839411D1*
X858652Y2833652D1*
X864411Y2826911D1*
X868696Y2819971D1*
X872991Y2826911D1*
X878749Y2833652D1*
X885491Y2839411D1*
X893050Y2844043D1*
X901241Y2847436D1*
X909862Y2849505D1*
X918701Y2850201D1*
X927539Y2849505D1*
X936160Y2847436D1*
X944352Y2844043D1*
X951911Y2839411D1*
X958652Y2833652D1*
X964411Y2826911D1*
X969043Y2819352D1*
X972436Y2811160D1*
X974505Y2802539D1*
X975201Y2793701D1*
X974505Y2784862D1*
X972436Y2776241D1*
X969043Y2768050D1*
X964411Y2760491D1*
X958652Y2753749D1*
X951911Y2747991D1*
X951205Y2747520D1*
X951201Y2732159D1*
X957185Y2726178D1*
X1085479Y2726201D1*
X1091369Y2731320D1*
X1097591Y2735133D1*
X1104332Y2737925D1*
X1106487Y2738533D1*
X1101241Y2739966D1*
X1093050Y2743358D1*
X1085491Y2747991D1*
X1078749Y2753749D1*
X1072991Y2760491D1*
X1068358Y2768050D1*
X1064966Y2776241D1*
X1062896Y2784862D1*
X1062201Y2793701D1*
X1062896Y2802539D1*
X1064966Y2811160D1*
X1068358Y2819352D1*
X1072991Y2826911D1*
X1078749Y2833652D1*
X1085491Y2839411D1*
X1093050Y2844043D1*
X1101241Y2847436D1*
X1109862Y2849505D1*
X1118701Y2850201D1*
X1127539Y2849505D1*
X1136160Y2847436D1*
X1144352Y2844043D1*
X1151911Y2839411D1*
X1158652Y2833652D1*
X1164411Y2826911D1*
X1168696Y2819971D1*
X1172991Y2826911D1*
X1178749Y2833652D1*
X1185491Y2839411D1*
X1193050Y2844043D1*
X1201241Y2847436D1*
X1209862Y2849505D1*
X1218701Y2850201D1*
X1227539Y2849505D1*
X1236160Y2847436D1*
X1244352Y2844043D1*
X1251911Y2839411D1*
X1258652Y2833652D1*
X1264411Y2826911D1*
X1268696Y2819971D1*
X1272991Y2826911D1*
X1278749Y2833652D1*
X1285491Y2839411D1*
X1293050Y2844043D1*
X1301241Y2847436D1*
X1309862Y2849505D1*
X1318701Y2850201D1*
X1327539Y2849505D1*
X1336160Y2847436D1*
X1344352Y2844043D1*
X1351911Y2839411D1*
X1358652Y2833652D1*
X1364411Y2826911D1*
X1368696Y2819971D1*
X1372991Y2826911D1*
X1378749Y2833652D1*
X1385491Y2839411D1*
X1393050Y2844043D1*
X1401241Y2847436D1*
X1409862Y2849505D1*
X1418701Y2850201D1*
X1427539Y2849505D1*
X1436160Y2847436D1*
X1444352Y2844043D1*
X1451911Y2839411D1*
X1458652Y2833652D1*
X1464411Y2826911D1*
X1468696Y2819971D1*
X1472991Y2826911D1*
X1478749Y2833652D1*
X1485491Y2839411D1*
X1493050Y2844043D1*
X1501241Y2847436D1*
X1509862Y2849505D1*
X1518701Y2850201D1*
X1527539Y2849505D1*
X1536160Y2847436D1*
X1544352Y2844043D1*
X1551911Y2839411D1*
X1558652Y2833652D1*
X1564411Y2826911D1*
X1568696Y2819971D1*
X1572991Y2826911D1*
X1578749Y2833652D1*
X1585491Y2839411D1*
X1593050Y2844043D1*
X1601241Y2847436D1*
X1609862Y2849505D1*
X1618701Y2850201D1*
X1627539Y2849505D1*
X1636160Y2847436D1*
X1644352Y2844043D1*
X1651911Y2839411D1*
X1658652Y2833652D1*
X1664411Y2826911D1*
X1668696Y2819971D1*
X1672991Y2826911D1*
X1678749Y2833652D1*
X1685491Y2839411D1*
X1693050Y2844043D1*
X1701241Y2847436D1*
X1709862Y2849505D1*
X1718701Y2850201D1*
X1727539Y2849505D1*
X1736160Y2847436D1*
X1744352Y2844043D1*
X1751911Y2839411D1*
X1758652Y2833652D1*
X1764411Y2826911D1*
X1768696Y2819971D1*
X1772991Y2826911D1*
X1778749Y2833652D1*
X1785491Y2839411D1*
X1793050Y2844043D1*
X1801241Y2847436D1*
X1809862Y2849505D1*
X1818701Y2850201D1*
X1827539Y2849505D1*
X1836160Y2847436D1*
X1844352Y2844043D1*
X1851911Y2839411D1*
X1858652Y2833652D1*
X1864411Y2826911D1*
X1868696Y2819971D1*
X1872991Y2826911D1*
X1878749Y2833652D1*
X1885491Y2839411D1*
X1893050Y2844043D1*
X1901241Y2847436D1*
X1909862Y2849505D1*
X1918701Y2850201D1*
X1927539Y2849505D1*
X1936160Y2847436D1*
X1944352Y2844043D1*
X1951911Y2839411D1*
X1958652Y2833652D1*
X1964411Y2826911D1*
X1968696Y2819971D1*
X1972991Y2826911D1*
X1978749Y2833652D1*
X1985491Y2839411D1*
X1993050Y2844043D1*
X2001241Y2847436D1*
X2009862Y2849505D1*
X2018701Y2850201D1*
X2027539Y2849505D1*
X2036160Y2847436D1*
X2044352Y2844043D1*
X2051911Y2839411D1*
X2058652Y2833652D1*
X2064411Y2826911D1*
X2068696Y2819971D1*
X2072991Y2826911D1*
X2078749Y2833652D1*
X2085491Y2839411D1*
X2093050Y2844043D1*
X2101241Y2847436D1*
X2109862Y2849505D1*
X2118701Y2850201D1*
X2127539Y2849505D1*
X2136160Y2847436D1*
X2144352Y2844043D1*
X2151911Y2839411D1*
X2158652Y2833652D1*
X2164411Y2826911D1*
X2168696Y2819971D1*
X2172991Y2826911D1*
X2178749Y2833652D1*
X2185491Y2839411D1*
X2193050Y2844043D1*
X2201241Y2847436D1*
X2209862Y2849505D1*
X2218701Y2850201D1*
X2227539Y2849505D1*
X2236160Y2847436D1*
X2244352Y2844043D1*
X2251911Y2839411D1*
X2258652Y2833652D1*
X2264411Y2826911D1*
X2268696Y2819971D1*
X2272991Y2826911D1*
X2278749Y2833652D1*
X2285491Y2839411D1*
X2293050Y2844043D1*
X2301241Y2847436D1*
X2309862Y2849505D1*
X2318701Y2850201D1*
X2327539Y2849505D1*
X2336160Y2847436D1*
X2344352Y2844043D1*
X2351911Y2839411D1*
X2358652Y2833652D1*
X2364411Y2826911D1*
X2369043Y2819352D1*
X2372436Y2811160D1*
X2374505Y2802539D1*
X2375201Y2793701D1*
X2374505Y2784862D1*
X2372436Y2776241D1*
X2369043Y2768050D1*
X2364411Y2760491D1*
X2358652Y2753749D1*
X2351911Y2747991D1*
X2344352Y2743358D1*
X2336160Y2739966D1*
X2327539Y2737896D1*
X2318701Y2737201D1*
X2309862Y2737896D1*
X2301241Y2739966D1*
X2293050Y2743358D1*
X2285491Y2747991D1*
X2278749Y2753749D1*
X2272991Y2760491D1*
X2268706Y2767430D1*
X2264411Y2760491D1*
X2258652Y2753749D1*
X2251911Y2747991D1*
X2244352Y2743358D1*
X2236160Y2739966D1*
X2227539Y2737896D1*
X2218701Y2737201D1*
X2209862Y2737896D1*
X2201241Y2739966D1*
X2193050Y2743358D1*
X2185491Y2747991D1*
X2178749Y2753749D1*
X2172991Y2760491D1*
X2168706Y2767430D1*
X2164411Y2760491D1*
X2158652Y2753749D1*
X2151911Y2747991D1*
X2144352Y2743358D1*
X2136160Y2739966D1*
X2127539Y2737896D1*
X2118701Y2737201D1*
X2109862Y2737896D1*
X2101241Y2739966D1*
X2093050Y2743358D1*
X2085491Y2747991D1*
X2078749Y2753749D1*
X2072991Y2760491D1*
X2068706Y2767430D1*
X2064411Y2760491D1*
X2058652Y2753749D1*
X2051911Y2747991D1*
X2044352Y2743358D1*
X2036160Y2739966D1*
X2027539Y2737896D1*
X2018701Y2737201D1*
X2009862Y2737896D1*
X2001241Y2739966D1*
X1993050Y2743358D1*
X1985491Y2747991D1*
X1978749Y2753749D1*
X1972991Y2760491D1*
X1968706Y2767430D1*
X1964411Y2760491D1*
X1958652Y2753749D1*
X1951911Y2747991D1*
X1944352Y2743358D1*
X1936160Y2739966D1*
X1927539Y2737896D1*
X1918701Y2737201D1*
X1909862Y2737896D1*
X1901241Y2739966D1*
X1893050Y2743358D1*
X1885491Y2747991D1*
X1878749Y2753749D1*
X1872991Y2760491D1*
X1868706Y2767430D1*
X1864411Y2760491D1*
X1858652Y2753749D1*
X1851911Y2747991D1*
X1844352Y2743358D1*
X1836160Y2739966D1*
X1827539Y2737896D1*
X1818701Y2737201D1*
X1809862Y2737896D1*
X1801241Y2739966D1*
X1793050Y2743358D1*
X1785491Y2747991D1*
X1778749Y2753749D1*
X1772991Y2760491D1*
X1768706Y2767430D1*
X1764411Y2760491D1*
X1758652Y2753749D1*
X1751911Y2747991D1*
X1744352Y2743358D1*
X1736160Y2739966D1*
X1727539Y2737896D1*
X1718701Y2737201D1*
X1709862Y2737896D1*
X1701241Y2739966D1*
X1693050Y2743358D1*
X1685491Y2747991D1*
X1678749Y2753749D1*
X1672991Y2760491D1*
X1668706Y2767430D1*
X1664411Y2760491D1*
X1658652Y2753749D1*
X1651911Y2747991D1*
X1644352Y2743358D1*
X1636160Y2739966D1*
X1627539Y2737896D1*
X1618701Y2737201D1*
X1609862Y2737896D1*
X1601241Y2739966D1*
X1593050Y2743358D1*
X1585491Y2747991D1*
X1578749Y2753749D1*
X1572991Y2760491D1*
X1568706Y2767430D1*
X1564411Y2760491D1*
X1558652Y2753749D1*
X1551911Y2747991D1*
X1544352Y2743358D1*
X1536160Y2739966D1*
X1527539Y2737896D1*
X1518701Y2737201D1*
X1509862Y2737896D1*
X1501241Y2739966D1*
X1493050Y2743358D1*
X1485491Y2747991D1*
X1478749Y2753749D1*
X1472991Y2760491D1*
X1468706Y2767430D1*
X1464411Y2760491D1*
X1458652Y2753749D1*
X1451911Y2747991D1*
X1444352Y2743358D1*
X1436160Y2739966D1*
X1427539Y2737896D1*
X1418701Y2737201D1*
X1409862Y2737896D1*
X1401241Y2739966D1*
X1393050Y2743358D1*
X1385491Y2747991D1*
X1378749Y2753749D1*
X1372991Y2760491D1*
X1368706Y2767430D1*
X1364411Y2760491D1*
X1358652Y2753749D1*
X1351911Y2747991D1*
X1344352Y2743358D1*
X1336160Y2739966D1*
X1330921Y2738570D1*
X1336496Y2736661D1*
X1342997Y2733349D1*
X1348900Y2729059D1*
X1351940Y2726194D1*
X2035416Y2726201D1*
X2041369Y2731320D1*
X2047591Y2735133D1*
X2054332Y2737925D1*
X2061427Y2739629D1*
X2068701Y2740201D1*
X2075975Y2739629D1*
X2083070Y2737925D1*
X2089811Y2735133D1*
X2096033Y2731320D1*
X2101581Y2726581D1*
X2106320Y2721033D1*
X2110133Y2714811D1*
X2112925Y2708070D1*
X2114629Y2700975D1*
X2115201Y2693701D1*
X2114629Y2686427D1*
X2112925Y2679332D1*
X2110133Y2672591D1*
X2106320Y2666369D1*
X2101581Y2660820D1*
X2096033Y2656081D1*
X2089811Y2652269D1*
X2083070Y2649476D1*
X2075975Y2647773D1*
X2068701Y2647201D1*
X2061427Y2647773D1*
X2054332Y2649476D1*
X2047591Y2652269D1*
X2041369Y2656081D1*
X2035462Y2661207D1*
X1354211Y2661201D1*
X1358349Y2655497D1*
X1361661Y2648996D1*
X1363916Y2642056D1*
X1365058Y2634849D1*
Y2627552D1*
X1363916Y2620345D1*
X1362150Y2614731D1*
X1368701Y2615201D1*
X1375975Y2614629D1*
X1383070Y2612925D1*
X1389811Y2610133D1*
X1396033Y2606320D1*
X1401581Y2601581D1*
X1406320Y2596033D1*
X1410133Y2589811D1*
X1412925Y2583070D1*
X1414629Y2575975D1*
X1415201Y2568701D1*
X1414629Y2561427D1*
X1412925Y2554332D1*
X1410133Y2547591D1*
X1406320Y2541369D1*
X1404210Y2538692D1*
X1585432Y2538701D1*
X1591369Y2543820D1*
X1597591Y2547633D1*
X1604332Y2550425D1*
X1611427Y2552129D1*
X1618701Y2552701D1*
X1625975Y2552129D1*
X1633070Y2550425D1*
X1639811Y2547633D1*
X1646033Y2543820D1*
X1651581Y2539081D1*
X1656320Y2533533D1*
X1660133Y2527311D1*
X1662925Y2520570D1*
X1664629Y2513475D1*
X1665201Y2506201D1*
X1664629Y2498927D1*
X1662925Y2491832D1*
X1660133Y2485091D1*
X1656320Y2478869D1*
X1653159Y2475028D1*
X1657845Y2476416D1*
X1665052Y2477558D1*
X1672349D1*
X1679556Y2476416D1*
X1686496Y2474161D1*
X1692997Y2470849D1*
X1698900Y2466559D1*
X1701940Y2463694D1*
X1935428Y2463701D1*
X1941369Y2468820D1*
X1947591Y2472633D1*
X1954332Y2475425D1*
X1961427Y2477129D1*
X1968701Y2477701D1*
X1975975Y2477129D1*
X1983070Y2475425D1*
X1989811Y2472633D1*
X1996033Y2468820D1*
X2001581Y2464081D1*
X2006320Y2458533D1*
X2010133Y2452311D1*
X2012925Y2445570D1*
X2014629Y2438475D1*
X2015201Y2431201D1*
X2014629Y2423927D1*
X2012925Y2416832D1*
X2010133Y2410091D1*
X2006320Y2403869D1*
X2004210Y2401192D1*
X2347971Y2401201D1*
X2353869Y2406320D1*
X2360091Y2410133D1*
X2366832Y2412925D1*
X2373927Y2414629D1*
X2381201Y2415201D1*
X2388475Y2414629D1*
X2395570Y2412925D1*
X2402311Y2410133D1*
X2408533Y2406320D1*
X2414081Y2401581D1*
X2418820Y2396033D1*
X2422633Y2389811D1*
X2425425Y2383070D1*
X2427129Y2375975D1*
X2427701Y2368701D1*
X2427129Y2361427D1*
X2425425Y2354332D1*
X2422633Y2347591D1*
X2418820Y2341369D1*
X2414081Y2335820D1*
X2408533Y2331081D1*
X2402311Y2327269D1*
X2395570Y2324476D1*
X2388475Y2322773D1*
X2381201Y2322201D1*
X2373927Y2322773D1*
X2366832Y2324476D1*
X2360091Y2327269D1*
X2353869Y2331081D1*
X2347962Y2336207D1*
X2264828Y2336201D1*
X2265201Y2330315D1*
X2264629Y2323041D1*
X2262925Y2315946D1*
X2260133Y2309205D1*
X2256320Y2302983D1*
X2251581Y2297434D1*
X2246033Y2292696D1*
X2239409Y2288698D1*
X2360417Y2288701D1*
X2366369Y2293820D1*
X2372591Y2297633D1*
X2379332Y2300425D1*
X2386427Y2302129D1*
X2393701Y2302701D1*
X2400975Y2302129D1*
X2408070Y2300425D1*
X2414811Y2297633D1*
X2421033Y2293820D1*
X2426581Y2289081D1*
X2431320Y2283533D1*
X2435133Y2277311D1*
X2437925Y2270570D1*
X2439629Y2263475D1*
X2440201Y2256201D1*
X2439629Y2248927D1*
X2437925Y2241832D1*
X2436774Y2238714D1*
X2485472Y2238701D1*
X2491369Y2243820D1*
X2497591Y2247633D1*
X2504332Y2250425D1*
X2511427Y2252129D1*
X2518701Y2252701D1*
X2525975Y2252129D1*
X2533070Y2250425D1*
X2539811Y2247633D1*
X2546033Y2243820D1*
X2551581Y2239081D1*
X2556320Y2233533D1*
X2560133Y2227311D1*
X2562925Y2220570D1*
X2564629Y2213475D1*
X2565201Y2206201D1*
X2564629Y2198927D1*
X2562925Y2191832D1*
X2560133Y2185091D1*
X2556320Y2178869D1*
X2551581Y2173320D1*
X2546033Y2168581D1*
X2539811Y2164769D1*
X2533070Y2161976D1*
X2525975Y2160273D1*
X2518701Y2159701D1*
X2511427Y2160273D1*
X2504332Y2161976D1*
X2497591Y2164769D1*
X2491369Y2168581D1*
X2485462Y2173707D1*
X2151929Y2173701D1*
X2146033Y2168581D1*
X2139811Y2164769D1*
X2133070Y2161976D1*
X2125975Y2160273D1*
X2118701Y2159701D1*
X2111427Y2160273D1*
X2104332Y2161976D1*
X2097591Y2164769D1*
X2091369Y2168581D1*
X2085820Y2173320D1*
X2081081Y2178869D1*
X2077269Y2185091D1*
X2074476Y2191832D1*
X2072773Y2198927D1*
X2072201Y2206201D1*
X2072773Y2213475D1*
X2074476Y2220570D1*
X2075627Y2223688D1*
X1751984Y2223701D1*
X1746033Y2218581D1*
X1739811Y2214769D1*
X1733070Y2211976D1*
X1725975Y2210273D1*
X1718701Y2209701D1*
X1711427Y2210273D1*
X1704332Y2211976D1*
X1697591Y2214769D1*
X1691369Y2218581D1*
X1685820Y2223320D1*
X1681081Y2228869D1*
X1677269Y2235091D1*
X1674476Y2241832D1*
X1672773Y2248927D1*
X1672201Y2256201D1*
X1672773Y2263475D1*
X1674476Y2270570D1*
X1677269Y2277311D1*
X1681081Y2283533D1*
X1685820Y2289081D1*
X1691369Y2293820D1*
X1697992Y2297818D1*
X1589811Y2297633D1*
X1596033Y2293820D1*
X1601581Y2289081D1*
X1606320Y2283533D1*
X1610133Y2277311D1*
X1612925Y2270570D1*
X1614629Y2263475D1*
X1615201Y2256201D1*
X1614629Y2248927D1*
X1612925Y2241832D1*
X1610133Y2235091D1*
X1606320Y2228869D1*
X1601581Y2223320D1*
X1596033Y2218581D1*
X1589811Y2214769D1*
X1583070Y2211976D1*
X1575975Y2210273D1*
X1568701Y2209701D1*
X1561427Y2210273D1*
X1554332Y2211976D1*
X1547591Y2214769D1*
X1541369Y2218581D1*
X1535462Y2223707D1*
X1151978Y2223701D1*
X1146033Y2218581D1*
X1139811Y2214769D1*
X1133070Y2211976D1*
X1125975Y2210273D1*
X1118701Y2209701D1*
X1111427Y2210273D1*
X1104332Y2211976D1*
X1097591Y2214769D1*
X1091369Y2218581D1*
X1085820Y2223320D1*
X1081081Y2228869D1*
X1077269Y2235091D1*
X1074476Y2241832D1*
X1072773Y2248927D1*
X1072201Y2256201D1*
X1072504Y2261194D1*
X1064488Y2261201D1*
X1058533Y2256081D1*
X1052311Y2252269D1*
X1045570Y2249476D1*
X1038475Y2247773D1*
X1031201Y2247201D1*
X1023927Y2247773D1*
X1016832Y2249476D1*
X1010091Y2252269D1*
X1003869Y2256081D1*
X998320Y2260820D1*
X993581Y2266369D1*
X989769Y2272591D1*
X986976Y2279332D1*
X985273Y2286427D1*
X984701Y2293701D1*
X984899Y2297816D1*
X951953Y2297815D1*
X946033Y2292696D1*
X939811Y2288883D1*
X933070Y2286091D1*
X925975Y2284387D1*
X918701Y2283815D1*
X911427Y2284387D1*
X904332Y2286091D1*
X897591Y2288883D1*
X891369Y2292696D1*
X885820Y2297434D1*
X881081Y2302983D1*
X877269Y2309205D1*
X874476Y2315946D1*
X872773Y2323041D1*
X872201Y2330315D1*
X872773Y2337589D1*
X874476Y2344684D1*
X877269Y2351425D1*
X881081Y2357647D1*
X885820Y2363196D1*
X891369Y2367934D1*
X897591Y2371747D1*
X902677Y2373969D1*
X896176Y2377281D1*
X890273Y2381571D1*
X885114Y2386730D1*
X880824Y2392633D1*
X877512Y2399134D1*
X875257Y2406073D1*
X874115Y2413281D1*
Y2420577D1*
X875257Y2427785D1*
X877512Y2434724D1*
X880824Y2441226D1*
X885114Y2447129D1*
X890273Y2452287D1*
X896176Y2456577D1*
X902677Y2459890D1*
X909617Y2462144D1*
X916824Y2463286D1*
X924121D1*
X931328Y2462144D1*
X938268Y2459890D1*
X944769Y2456577D1*
X950672Y2452287D1*
X951856Y2451194D1*
X1225644Y2451201D1*
X1223486Y2457845D1*
X1222344Y2465052D1*
Y2472349D1*
X1222504Y2473694D1*
X1064182Y2473701D1*
X1058743Y2468185D1*
X1052840Y2463895D1*
X1046339Y2460583D1*
X1039399Y2458328D1*
X1032192Y2457186D1*
X1024895D1*
X1017688Y2458328D1*
X1010748Y2460583D1*
X1004247Y2463895D1*
X998344Y2468185D1*
X993185Y2473344D1*
X988895Y2479247D1*
X985583Y2485748D1*
X983328Y2492688D1*
X982186Y2499895D1*
Y2507192D1*
X983328Y2514399D1*
X985583Y2521339D1*
X988895Y2527840D1*
X993185Y2533743D1*
X998344Y2538902D1*
X1004247Y2543192D1*
X1010748Y2546504D1*
X1017688Y2548759D1*
X1024895Y2549900D1*
X1032192D1*
X1039399Y2548759D1*
X1046339Y2546504D1*
X1052840Y2543192D1*
X1058962Y2538699D1*
X1183171Y2538701D1*
X1179052Y2544404D1*
X1175740Y2550906D1*
X1173486Y2557845D1*
X1172344Y2565052D1*
Y2572349D1*
X1173486Y2579556D1*
X1175252Y2585171D1*
X1168701Y2584701D1*
X1161427Y2585273D1*
X1154332Y2586976D1*
X1147591Y2589769D1*
X1141369Y2593581D1*
X1135820Y2598320D1*
X1131081Y2603869D1*
X1127269Y2610091D1*
X1124476Y2616832D1*
X1122773Y2623927D1*
X1122201Y2631201D1*
X1122773Y2638475D1*
X1124476Y2645570D1*
X1125252Y2647671D1*
X1118701Y2647201D1*
X1111427Y2647773D1*
X1104332Y2649476D1*
X1097591Y2652269D1*
X1091369Y2656081D1*
X1085462Y2661207D1*
X941151Y2661301D1*
X936114Y2662098D1*
X931264Y2663675D1*
X926719Y2665990D1*
X922593Y2668988D1*
X895719Y2695719D1*
X892408Y2699597D1*
X889743Y2703946D1*
X887791Y2708657D1*
X886601Y2713617D1*
X886201Y2718701D1*
Y2747516D1*
X882007Y2750738D1*
X875738Y2757007D1*
X870526Y2764180D1*
X868706Y2767430D1*
X864411Y2760491D1*
X858652Y2753749D1*
X851911Y2747991D1*
X844352Y2743358D1*
X836160Y2739966D1*
X827539Y2737896D1*
X818701Y2737201D1*
X809862Y2737896D1*
X801241Y2739966D1*
X793050Y2743358D1*
X785491Y2747991D1*
X778749Y2753749D1*
X772991Y2760491D1*
X768706Y2767430D1*
X764411Y2760491D1*
X758652Y2753749D1*
X751911Y2747991D1*
X744352Y2743358D1*
X736160Y2739966D1*
X727539Y2737896D1*
X718701Y2737201D1*
X709862Y2737896D1*
X701241Y2739966D1*
X693050Y2743358D1*
X685491Y2747991D1*
X678749Y2753749D1*
X672991Y2760491D1*
X668706Y2767430D1*
X664411Y2760491D1*
X658652Y2753749D1*
X651911Y2747991D1*
X644352Y2743358D1*
X636160Y2739966D1*
X627539Y2737896D1*
X618701Y2737201D1*
X609862Y2737896D1*
X601241Y2739966D1*
X593050Y2743358D1*
X585491Y2747991D1*
X578749Y2753749D1*
X572991Y2760491D1*
X568706Y2767430D1*
X1168696D2*
X1164411Y2760491D1*
X1158652Y2753749D1*
X1151911Y2747991D1*
X1144352Y2743358D1*
X1136160Y2739966D1*
X1130921Y2738570D1*
X1136496Y2736661D1*
X1142997Y2733349D1*
X1148900Y2729059D1*
X1154059Y2723900D1*
X1158349Y2717997D1*
X1161661Y2711496D1*
X1163916Y2704556D1*
X1165058Y2697349D1*
Y2690052D1*
X1163916Y2682845D1*
X1162150Y2677231D1*
X1168701Y2677701D1*
X1175975Y2677129D1*
X1183070Y2675425D1*
X1189811Y2672633D1*
X1196033Y2668820D1*
X1201940Y2663694D1*
X1283207Y2663701D1*
X1279052Y2669404D1*
X1275740Y2675906D1*
X1273486Y2682845D1*
X1272344Y2690052D1*
Y2697349D1*
X1273486Y2704556D1*
X1275740Y2711496D1*
X1279052Y2717997D1*
X1283343Y2723900D1*
X1288501Y2729059D1*
X1294404Y2733349D1*
X1300906Y2736661D1*
X1306487Y2738533D1*
X1301241Y2739966D1*
X1293050Y2743358D1*
X1285491Y2747991D1*
X1278749Y2753749D1*
X1272991Y2760491D1*
X1268706Y2767430D1*
X1264411Y2760491D1*
X1258652Y2753749D1*
X1251911Y2747991D1*
X1244352Y2743358D1*
X1236160Y2739966D1*
X1227539Y2737896D1*
X1218701Y2737201D1*
X1209862Y2737896D1*
X1201241Y2739966D1*
X1193050Y2743358D1*
X1185491Y2747991D1*
X1178749Y2753749D1*
X1172991Y2760491D1*
X1168706Y2767430D1*
X945667Y1943306D2*
X951911Y1939411D1*
X958652Y1933652D1*
X964411Y1926911D1*
X968696Y1919971D1*
X972991Y1926911D1*
X978749Y1933652D1*
X985491Y1939411D1*
X993050Y1944043D1*
X1001241Y1947436D1*
X1005835Y1948703D1*
X951980Y1948701D1*
X945689Y1943352D1*
X2797766Y2474606D2*
X2796625Y2467399D1*
X2794370Y2460459D1*
X2791058Y2453958D1*
X2786768Y2448055D1*
X2781609Y2442896D1*
X2775706Y2438606D1*
X2769205Y2435294D1*
X2762265Y2433039D1*
X2755058Y2431898D1*
X2747761D1*
X2740554Y2433039D1*
X2733614Y2435294D1*
X2727113Y2438606D1*
X2721210Y2442896D1*
X2716051Y2448055D1*
X2711761Y2453958D1*
X2708449Y2460459D1*
X2706194Y2467399D1*
X2705052Y2474606D1*
Y2481903D1*
X2706194Y2489110D1*
X2708449Y2496050D1*
X2711761Y2502551D1*
X2716051Y2508454D1*
X2721210Y2513613D1*
X2727113Y2517903D1*
X2733614Y2521215D1*
X2740554Y2523470D1*
X2747761Y2524612D1*
X2751937Y2524734D1*
X2847302Y2619969D1*
X2851428Y2622966D1*
X2855972Y2625281D1*
X2860823Y2626857D1*
X2865860Y2627655D1*
X2932714Y2627755D1*
X3465917D1*
X3471932Y2633739D1*
X3472482Y2641529D1*
X3474185Y2648623D1*
X3476978Y2655365D1*
X3480790Y2661587D1*
X3485529Y2667135D1*
X3491077Y2671874D1*
X3497299Y2675686D1*
X3504041Y2678479D1*
X3511135Y2680182D1*
X3518409Y2680755D1*
X3525684Y2680182D1*
X3532778Y2678479D1*
X3539520Y2675686D1*
X3545741Y2671874D1*
X3551290Y2667135D1*
X3556029Y2661587D1*
X3559841Y2655365D1*
X3562634Y2648623D1*
X3564337Y2641529D1*
X3564909Y2634255D1*
X3564337Y2626980D1*
X3562634Y2619886D1*
X3559841Y2613144D1*
X3556029Y2606923D1*
X3551290Y2601374D1*
X3545741Y2596635D1*
X3539520Y2592823D1*
X3532778Y2590030D1*
X3525684Y2588327D1*
X3517882Y2587776D1*
X3500517Y2570541D1*
X3496391Y2567543D1*
X3491846Y2565228D1*
X3486996Y2563652D1*
X3481959Y2562854D1*
X3415105Y2562755D1*
X2881902D1*
X2797887Y2478770D1*
X2797766Y2474606D1*
X1536773Y2401201D2*
X1633157D1*
X1629052Y2406904D1*
X1625740Y2413406D1*
X1623486Y2420345D1*
X1622344Y2427552D1*
Y2434849D1*
X1623486Y2442056D1*
X1625740Y2448996D1*
X1629052Y2455497D1*
X1633343Y2461400D1*
X1634243Y2462374D1*
X1629556Y2460986D1*
X1622349Y2459844D1*
X1615052D1*
X1607845Y2460986D1*
X1600906Y2463240D1*
X1594404Y2466552D1*
X1588501Y2470843D1*
X1585462Y2473707D1*
X1414915Y2473701D1*
X1415201Y2468701D1*
X1414629Y2461427D1*
X1412925Y2454332D1*
X1411774Y2451214D1*
X1460471Y2451201D1*
X1466369Y2456320D1*
X1472591Y2460133D1*
X1479332Y2462925D1*
X1486427Y2464629D1*
X1493701Y2465201D1*
X1500975Y2464629D1*
X1508070Y2462925D1*
X1514811Y2460133D1*
X1521033Y2456320D1*
X1526581Y2451581D1*
X1531320Y2446033D1*
X1535133Y2439811D1*
X1537925Y2433070D1*
X1539629Y2425975D1*
X1540201Y2418701D1*
X1539629Y2411427D1*
X1537925Y2404332D1*
X1536774Y2401214D1*
X1627558Y1540052D2*
X1626886Y1535210D1*
X2761427Y1535273D1*
X2754332Y1536976D1*
X2747591Y1539769D1*
X2741369Y1543581D1*
X2735462Y1548707D1*
X1627404Y1548701D1*
X1627701Y1543701D1*
X1627558Y1540052D1*
D28*
X2943701Y493701D3*
D29*
X3043701D3*
X3143701D3*
X3243701D3*
D30*
X2518701Y3168701D3*
D31*
X2618701D3*
X2718701D3*
D28*
X943701Y3193701D3*
D29*
X1043701D3*
X1143701D3*
X1243701D3*
X1343701D3*
X1443701D3*
X1543701D3*
X1643701D3*
D28*
X843701Y493701D3*
D29*
X943701D3*
X1043701D3*
X1143701D3*
D28*
X518701Y1793701D3*
D29*
X618701D3*
X718701D3*
X818701D3*
X918701D3*
X1018701D3*
X1118701D3*
X1218701D3*
X1318701D3*
X1418701D3*
X1518701D3*
X1618701D3*
X1718701D3*
X1818701D3*
X1918701D3*
X2018701D3*
X2118701D3*
X2218701D3*
X2318701D3*
D30*
X2956201Y3168701D3*
D31*
X3056201D3*
X3156201D3*
D28*
X1543701Y493701D3*
D29*
X1643701D3*
X1743701D3*
X1843701D3*
D28*
X2243701D3*
D29*
X2343701D3*
X2443701D3*
X2543701D3*
D32*
X3143701Y1743701D3*
X3379921D3*
D33*
X3261811Y1928740D3*
D39*
X531496Y531496D3*
X3543307D3*
Y3149606D3*
X531496D3*
D41*
X743701Y1343701D3*
D42*
Y1243701D3*
Y1143701D3*
Y1043701D3*
Y943701D3*
Y843701D3*
Y743701D3*
Y643701D3*
X1243701D3*
Y743701D3*
Y843701D3*
Y943701D3*
Y1043701D3*
Y1143701D3*
Y1243701D3*
Y1343701D3*
D41*
X1443701D3*
D42*
Y1243701D3*
Y1143701D3*
Y1043701D3*
Y943701D3*
Y843701D3*
Y743701D3*
Y643701D3*
X1943701D3*
Y743701D3*
Y843701D3*
Y943701D3*
Y1043701D3*
Y1143701D3*
Y1243701D3*
Y1343701D3*
D41*
X2143701D3*
D42*
Y1243701D3*
Y1143701D3*
Y1043701D3*
Y943701D3*
Y843701D3*
Y743701D3*
Y643701D3*
X2643701D3*
Y743701D3*
Y843701D3*
Y943701D3*
Y1043701D3*
Y1143701D3*
Y1243701D3*
Y1343701D3*
D41*
X2843701D3*
D42*
Y1243701D3*
Y1143701D3*
Y1043701D3*
Y943701D3*
Y843701D3*
Y743701D3*
Y643701D3*
X3343701D3*
Y743701D3*
Y843701D3*
Y943701D3*
Y1043701D3*
Y1143701D3*
Y1243701D3*
Y1343701D3*
D20*
X518701Y2793701D3*
X618701D3*
X718701D3*
X818701D3*
X918701D3*
X1018701D3*
X1118701D3*
X1218701D3*
X1318701D3*
X1418701D3*
X1518701D3*
X1618701D3*
X1718701D3*
X1818701D3*
X1918701D3*
X2018701D3*
X2118701D3*
X2218701D3*
X2318701D3*
X518701Y1893701D3*
X618701D3*
X718701D3*
X818701D3*
X918701D3*
X1018701D3*
X1118701D3*
X1218701D3*
X1318701D3*
X1418701D3*
X1518701D3*
X1618701D3*
X1718701D3*
X1818701D3*
X1918701D3*
X2018701D3*
X2118701D3*
X2218701D3*
X2318701D3*
M02*
