G04 DipTrace 3.3.1.3*
G04 BottomMask.gbr*
%MOIN*%
G04 #@! TF.FileFunction,Soldermask,Bot*
G04 #@! TF.Part,Single*
%ADD51C,0.03937*%
%ADD62C,0.068031*%
%ADD68C,0.067031*%
%ADD70R,0.067031X0.067031*%
%ADD74C,0.208031*%
%ADD86O,0.126142X0.086772*%
%ADD88O,0.086772X0.126142*%
%ADD90C,0.074961*%
%ADD92R,0.074961X0.074961*%
%ADD94C,0.067087*%
%ADD96R,0.067087X0.067087*%
%FSLAX26Y26*%
G04*
G70*
G90*
G75*
G01*
G04 BotMask*
%LPD*%
D96*
X2943701Y493701D3*
D94*
X3043701D3*
X3143701D3*
X3243701D3*
D92*
X2518701Y3168701D3*
D90*
X2618701D3*
X2718701D3*
D96*
X943701Y3193701D3*
D94*
X1043701D3*
X1143701D3*
X1243701D3*
X1343701D3*
X1443701D3*
X1543701D3*
X1643701D3*
D96*
X843701Y493701D3*
D94*
X943701D3*
X1043701D3*
X1143701D3*
D96*
X518701Y1793701D3*
D94*
X618701D3*
X718701D3*
X818701D3*
X918701D3*
X1018701D3*
X1118701D3*
X1218701D3*
X1318701D3*
X1418701D3*
X1518701D3*
X1618701D3*
X1718701D3*
X1818701D3*
X1918701D3*
X2018701D3*
X2118701D3*
X2218701D3*
X2318701D3*
D92*
X2956201Y3168701D3*
D90*
X3056201D3*
X3156201D3*
D96*
X1543701Y493701D3*
D94*
X1643701D3*
X1743701D3*
X1843701D3*
D96*
X2243701D3*
D94*
X2343701D3*
X2443701D3*
X2543701D3*
D88*
X3143701Y1743701D3*
X3379921D3*
D86*
X3261811Y1928740D3*
D51*
X537598Y2522835D3*
Y2207874D3*
D74*
X531496Y531496D3*
X3543307D3*
Y3149606D3*
X531496D3*
D70*
X743701Y1343701D3*
D68*
Y1243701D3*
Y1143701D3*
Y1043701D3*
Y943701D3*
Y843701D3*
Y743701D3*
Y643701D3*
X1243701D3*
Y743701D3*
Y843701D3*
Y943701D3*
Y1043701D3*
Y1143701D3*
Y1243701D3*
Y1343701D3*
D70*
X1443701D3*
D68*
Y1243701D3*
Y1143701D3*
Y1043701D3*
Y943701D3*
Y843701D3*
Y743701D3*
Y643701D3*
X1943701D3*
Y743701D3*
Y843701D3*
Y943701D3*
Y1043701D3*
Y1143701D3*
Y1243701D3*
Y1343701D3*
D70*
X2143701D3*
D68*
Y1243701D3*
Y1143701D3*
Y1043701D3*
Y943701D3*
Y843701D3*
Y743701D3*
Y643701D3*
X2643701D3*
Y743701D3*
Y843701D3*
Y943701D3*
Y1043701D3*
Y1143701D3*
Y1243701D3*
Y1343701D3*
D70*
X2843701D3*
D68*
Y1243701D3*
Y1143701D3*
Y1043701D3*
Y943701D3*
Y843701D3*
Y743701D3*
Y643701D3*
X3343701D3*
Y743701D3*
Y843701D3*
Y943701D3*
Y1043701D3*
Y1143701D3*
Y1243701D3*
Y1343701D3*
D62*
X518701Y2793701D3*
X618701D3*
X718701D3*
X818701D3*
X918701D3*
X1018701D3*
X1118701D3*
X1218701D3*
X1318701D3*
X1418701D3*
X1518701D3*
X1618701D3*
X1718701D3*
X1818701D3*
X1918701D3*
X2018701D3*
X2118701D3*
X2218701D3*
X2318701D3*
X518701Y1893701D3*
X618701D3*
X718701D3*
X818701D3*
X918701D3*
X1018701D3*
X1118701D3*
X1218701D3*
X1318701D3*
X1418701D3*
X1518701D3*
X1618701D3*
X1718701D3*
X1818701D3*
X1918701D3*
X2018701D3*
X2118701D3*
X2218701D3*
X2318701D3*
M02*
