M48
INCH
T01C0.013
T02C0.0191
T03C0.035
T04C0.0354
T05C0.0394
T06C0.0433
T07C0.14
%
T01
X+030504Y+024003
X+030504Y+023743
X+030504Y+023483
X+030114Y+023483
X+030114Y+023743
X+030114Y+024003
X+029724Y+024003
X+029724Y+023743
X+029724Y+023483
X+033624Y+021403
X+034014Y+021403
T02
X+009312Y+010437
X+009312Y+009937
X+010687Y+014687
X+011687Y+016812
X+013187Y+015437
X+014687Y+016187
X+015812Y+015437
X+016312Y+010437
X+016312Y+009937
X+023312Y+010062
X+023312Y+010562
X+027687Y+015812
X+025937Y+020687
X+025187Y+022062
X+023937Y+022562
X+023812Y+023687
X+022187Y+023303
X+021187Y+022062
X+019687Y+024312
X+020687Y+026937
X+020562Y+030062
X+017687Y+030062
X+016187Y+025062
X+016687Y+024312
X+014937Y+024187
X+013687Y+024687
X+012687Y+024687
X+012187Y+025687
X+011687Y+026312
X+011187Y+026937
X+013187Y+026937
X+013187Y+026312
X+013687Y+025687
X+014187Y+022937
X+015687Y+022562
X+017187Y+022562
X+011187Y+022562
X+010312Y+022937
X+010312Y+023687
X+009187Y+023303
X+009205Y+024169
X+010285Y+025035
X+008812Y+026312
X+006312Y+026312
X+008062Y+029437
X+008437Y+029437
X+009437Y+030062
X+008812Y+020562
X+009187Y+019812
X+006187Y+020562
X+007437Y+016812
X+006062Y+016187
X+006562Y+014687
X+008187Y+015437
X+027514Y+024783
X+035184Y+026343
X+030312Y+010562
X+030312Y+010062
T03
X+007437Y+013437
X+007437Y+012437
X+007437Y+011437
X+007437Y+010437
X+007437Y+009437
X+007437Y+008437
X+007437Y+007437
X+007437Y+006437
X+012437Y+006437
X+012437Y+007437
X+012437Y+008437
X+012437Y+009437
X+012437Y+010437
X+012437Y+011437
X+012437Y+012437
X+012437Y+013437
X+014437Y+013437
X+014437Y+012437
X+014437Y+011437
X+014437Y+010437
X+014437Y+009437
X+014437Y+008437
X+014437Y+007437
X+014437Y+006437
X+019437Y+006437
X+019437Y+007437
X+019437Y+008437
X+019437Y+009437
X+019437Y+010437
X+019437Y+011437
X+019437Y+012437
X+019437Y+013437
X+021437Y+013437
X+021437Y+012437
X+021437Y+011437
X+021437Y+010437
X+021437Y+009437
X+021437Y+008437
X+021437Y+007437
X+021437Y+006437
X+026437Y+006437
X+026437Y+007437
X+026437Y+008437
X+026437Y+009437
X+026437Y+010437
X+026437Y+011437
X+026437Y+012437
X+026437Y+013437
X+028437Y+013437
X+028437Y+012437
X+028437Y+011437
X+028437Y+010437
X+028437Y+009437
X+028437Y+008437
X+028437Y+007437
X+028437Y+006437
X+033437Y+006437
X+033437Y+007437
X+033437Y+008437
X+033437Y+009437
X+033437Y+010437
X+033437Y+011437
X+033437Y+012437
X+033437Y+013437
X+023187Y+018937
X+022187Y+018937
X+021187Y+018937
X+020187Y+018937
X+019187Y+018937
X+018187Y+018937
X+017187Y+018937
X+016187Y+018937
X+015187Y+018937
X+014187Y+018937
X+013187Y+018937
X+012187Y+018937
X+011187Y+018937
X+010187Y+018937
X+009187Y+018937
X+008187Y+018937
X+007187Y+018937
X+006187Y+018937
X+005187Y+018937
X+005187Y+027937
X+006187Y+027937
X+007187Y+027937
X+008187Y+027937
X+009187Y+027937
X+010187Y+027937
X+011187Y+027937
X+012187Y+027937
X+013187Y+027937
X+014187Y+027937
X+015187Y+027937
X+016187Y+027937
X+017187Y+027937
X+018187Y+027937
X+019187Y+027937
X+020187Y+027937
X+021187Y+027937
X+022187Y+027937
X+023187Y+027937
T04
X+029437Y+004937
X+030437Y+004937
X+031437Y+004937
X+032437Y+004937
X+025437Y+004937
X+024437Y+004937
X+023437Y+004937
X+022437Y+004937
X+018437Y+004937
X+017437Y+004937
X+016437Y+004937
X+015437Y+004937
X+011437Y+004937
X+010437Y+004937
X+009437Y+004937
X+008437Y+004937
X+008187Y+017937
X+007187Y+017937
X+006187Y+017937
X+005187Y+017937
X+009187Y+017937
X+010187Y+017937
X+011187Y+017937
X+012187Y+017937
X+013187Y+017937
X+014187Y+017937
X+015187Y+017937
X+016187Y+017937
X+017187Y+017937
X+018187Y+017937
X+019187Y+017937
X+020187Y+017937
X+021187Y+017937
X+022187Y+017937
X+023187Y+017937
X+016437Y+031937
X+015437Y+031937
X+014437Y+031937
X+013437Y+031937
X+012437Y+031937
X+011437Y+031937
X+010437Y+031937
X+009437Y+031937
T05
X+031437Y+017240G85X+031437Y+017634
X+032815Y+019287G85X+032421Y+019287
X+033799Y+017240G85X+033799Y+017634
X+005376Y+022079
X+005376Y+025228
T06
X+025187Y+031687
X+026187Y+031687
X+027187Y+031687
X+029562Y+031687
X+030562Y+031687
X+031562Y+031687
T07
X+005315Y+005315
X+005315Y+031496
X+035433Y+031496
X+035433Y+005315
T00
M30
