G04 DipTrace 3.3.1.3*
G04 Top.gbr*
%MOIN*%
G04 #@! TF.FileFunction,Copper,L1,Top*
G04 #@! TF.Part,Single*
G04 #@! TA.AperFunction,Conductor*
%ADD14C,0.016*%
%ADD15C,0.012*%
%ADD16C,0.02*%
%ADD17C,0.035*%
G04 #@! TA.AperFunction,ViaPad*
%ADD18C,0.03*%
G04 #@! TA.AperFunction,ComponentPad*
%ADD20C,0.06*%
G04 #@! TA.AperFunction,CopperBalancing*
%ADD21C,0.025*%
%ADD23R,0.062992X0.163386*%
%ADD24R,0.059055X0.051181*%
%ADD25R,0.062992X0.070866*%
%ADD27R,0.066929X0.098425*%
G04 #@! TA.AperFunction,ComponentPad*
%ADD28R,0.059055X0.059055*%
%ADD29C,0.059055*%
%ADD30R,0.066929X0.066929*%
%ADD31C,0.066929*%
%ADD32O,0.07874X0.11811*%
%ADD33O,0.11811X0.07874*%
%ADD34R,0.051181X0.027559*%
%ADD35R,0.07874X0.047244*%
%ADD36R,0.055118X0.047244*%
%ADD37R,0.055118X0.031496*%
%ADD38R,0.09252X0.137795*%
G04 #@! TA.AperFunction,ComponentPad*
%ADD39C,0.2*%
%ADD40R,0.051181X0.059055*%
G04 #@! TA.AperFunction,ComponentPad*
%ADD41R,0.059X0.059*%
%ADD42C,0.059*%
%ADD44R,0.024016X0.062992*%
%ADD45R,0.138189X0.10315*%
%ADD47R,0.098425X0.066929*%
G04 #@! TA.AperFunction,ViaPad*
%ADD48C,0.04*%
%FSLAX26Y26*%
G04*
G70*
G90*
G75*
G01*
G04 Top*
%LPD*%
X1243701Y743701D2*
D14*
X1293701Y693701D1*
Y481201D1*
X1343701Y431201D1*
X1993701D1*
Y693701D1*
D15*
X1943701Y743701D1*
X2643701D2*
X2693701Y693701D1*
Y431201D1*
X1993701D1*
X743701Y1043701D2*
Y1143701D1*
Y1243701D1*
X1443701Y1043701D2*
Y1143701D1*
Y1243701D1*
X2143701Y1043701D2*
Y1143701D1*
Y1243701D1*
X2843701Y1043701D2*
Y1143701D1*
Y1243701D1*
X3343701Y743701D2*
X3393701D1*
Y468701D1*
X3356201Y431201D1*
X2693701D1*
X2318701Y2793701D2*
D16*
Y2493701D1*
X2443701Y2368701D1*
X2456201Y2356201D1*
Y2043701D1*
X2956201Y1543701D1*
Y1268701D1*
X2931201Y1243701D1*
X2843701D1*
X3343701Y743701D2*
X3381201D1*
X3456201Y818701D1*
Y1431201D1*
X3343701Y1543701D1*
X2956201D1*
X968701Y2373622D2*
D15*
Y2368701D1*
X1031201D1*
X2381201D2*
X2443701D1*
X2331201Y1056201D2*
X2381201D1*
X2393701Y1068701D1*
X2331201Y1006201D2*
X2393701Y1068701D1*
X1631201Y1043701D2*
X1668701D1*
X1693701Y1068701D1*
X1643701Y1043701D2*
X1668701D1*
X1631201Y993701D2*
Y1006201D1*
X1693701Y1068701D1*
X931201Y1043701D2*
X968701D1*
X993701Y1068701D1*
X931201Y993701D2*
Y1006201D1*
X993701Y1068701D1*
X2803409Y2634255D2*
X2816409D1*
X2894409Y2556255D1*
X2318701Y1793701D2*
D16*
Y1893701D1*
X968701Y2460236D2*
D15*
X927165D1*
X881201Y2506201D1*
Y2631201D1*
X935236Y2633465D2*
X883465D1*
X881201Y2631201D1*
X553346Y2633465D2*
X628937D1*
X631201Y2631201D1*
X553346Y2055512D2*
X618012D1*
X618701Y2056201D1*
X935236Y2055512D2*
X881890D1*
X881201Y2056201D1*
X2106201Y3006201D2*
D16*
X2056201D1*
X3093701Y1068701D2*
X3043701D1*
X3031201Y1056201D1*
X3093701Y1068701D2*
X3031201Y1006201D1*
X743701Y743701D2*
D15*
X706201D1*
X656201Y793701D1*
Y1468701D1*
X1068701D2*
Y2268701D1*
X1093701Y2293701D1*
Y2418701D1*
X1068701Y2443701D1*
Y2743701D1*
X1118701Y2793701D1*
X743701Y643701D2*
X693701D1*
X606201Y731201D1*
Y1618701D1*
X1468701D2*
Y2368701D1*
X1418701Y2418701D1*
Y2793701D1*
X743701Y943701D2*
Y843701D1*
X2751409Y2478255D2*
X2803409D1*
X3056201Y3168701D2*
D17*
Y3031201D1*
X3306201D1*
X3518409Y2818992D1*
Y2634255D1*
X826181Y3006201D2*
Y2963681D1*
X806201Y2943701D1*
X826181Y3006201D2*
Y2961220D1*
X843701Y2943701D1*
X2218701Y2793701D2*
D16*
Y3003937D1*
X2216437Y3006201D1*
X518701Y1793701D2*
Y1893701D1*
X843701Y493701D2*
D18*
Y743701D1*
X1243701Y1143701D1*
X943701Y493701D2*
Y743701D1*
X1243701Y1043701D1*
X1043701Y493701D2*
Y743701D1*
X1243701Y943701D1*
X1143701Y493701D2*
Y743701D1*
X1243701Y843701D1*
X1443701Y743701D2*
D15*
X1418701D1*
X1368701Y793701D1*
Y2468701D1*
X1268701D2*
Y2668701D1*
X1218701Y2718701D1*
Y2793701D1*
X2143701Y743701D2*
X2106201D1*
X2081201Y768701D1*
Y1681201D1*
X2068701Y1693701D1*
Y2693701D1*
X1318701D2*
Y2793701D1*
X518701D2*
D17*
Y2893701D1*
X631201Y3006201D1*
X668701D1*
X1443701Y643701D2*
D15*
X1418701D1*
X1318701Y743701D1*
Y1543701D1*
X1581201D2*
Y1706201D1*
X1568701Y1718701D1*
Y2156201D1*
X1531201Y2193701D1*
Y2606201D1*
X1518701Y2618701D1*
Y2793701D1*
X2143701Y643701D2*
X2093701D1*
X2031201Y706201D1*
Y1568701D1*
X1968701Y1631201D1*
Y2431201D1*
X1668701D2*
Y2581201D1*
X1618701Y2631201D1*
Y2793701D1*
X2843701Y643701D2*
X2793701D1*
X2731201Y706201D1*
Y1606201D1*
X2393701Y1943701D1*
Y2256201D1*
X1718701D2*
Y2793701D1*
X2218701Y1793701D2*
D16*
Y1893701D1*
X968701Y2330315D2*
D15*
X918701D1*
X2218701D2*
Y1893701D1*
X1418701Y1793701D2*
D16*
Y1893701D1*
X968701Y2287008D2*
D15*
Y2293701D1*
X1031201D1*
X1418701D2*
Y1893701D1*
X1618701Y1793701D2*
D16*
Y1893701D1*
X968701Y2503543D2*
D15*
X1028543D1*
X1618701Y2506201D2*
Y1893701D1*
X618701Y1793701D2*
D16*
Y1893701D1*
X718701Y1793701D2*
Y1893701D1*
X1443701Y943701D2*
D15*
Y843701D1*
X1543701Y493701D2*
D18*
Y743701D1*
X1943701Y1143701D1*
Y1043701D2*
X1643701Y743701D1*
Y493701D1*
X1743701D2*
Y743701D1*
X1943701Y943701D1*
X1843701Y493701D2*
Y743701D1*
X1943701Y843701D1*
X818701Y1793701D2*
D16*
Y1893701D1*
X2843701Y743701D2*
D15*
X2806201D1*
X2768701Y781201D1*
Y1581201D1*
X818701Y1543701D2*
Y1793701D1*
X2843701Y843701D2*
Y943701D1*
X2143701D2*
Y843701D1*
X2943701Y493701D2*
D18*
Y743701D1*
X3343701Y1143701D1*
X1518701Y1793701D2*
D16*
Y1893701D1*
X968701Y2416929D2*
D15*
X920472D1*
X1493701Y2418701D2*
Y1918701D1*
X1518701Y1893701D1*
X2987462Y2268612D2*
Y2233307D1*
X2972409Y2218255D1*
Y2182451D1*
X2969213Y2179255D1*
X2643701Y1143701D2*
D18*
X2243701Y743701D1*
Y493701D1*
X2343701D2*
Y743701D1*
X2643701Y1043701D1*
X2443701Y493701D2*
Y743701D1*
X2643701Y943701D1*
X2543701Y493701D2*
Y743701D1*
X2643701Y843701D1*
X3043701Y493701D2*
Y743701D1*
X3343701Y1043701D1*
X2985409Y2556255D2*
D15*
Y2483262D1*
X2987462Y2481210D1*
X2894409Y2631058D2*
X2985409D1*
X3143701Y493701D2*
D18*
Y743701D1*
X3343701Y943701D1*
X2937462Y2481210D2*
D15*
X2881168D1*
X2878213Y2478255D1*
Y2484648D1*
X2803409Y2559451D1*
X3243701Y493701D2*
D18*
Y743701D1*
X3343701Y843701D1*
X918701Y1793701D2*
D16*
Y1893701D1*
X2956201Y3168701D2*
D15*
Y3131201D1*
X2593701Y2768701D1*
Y2068701D1*
X918701Y1981201D2*
Y1893701D1*
X1018701Y1793701D2*
D16*
Y1893701D1*
X1118701Y1793701D2*
Y1893701D1*
X1543701Y3193701D2*
D15*
Y3006201D1*
X1568701Y2981201D1*
Y2256201D1*
X1118701D2*
Y1893701D1*
X1218701Y1793701D2*
D16*
Y1893701D1*
X1343701Y3193701D2*
D15*
Y3056201D1*
X1368701Y3031201D1*
Y2568701D1*
X1218701D2*
Y1893701D1*
X1318701Y1793701D2*
D16*
Y1893701D1*
X1143701Y3193701D2*
D15*
Y2918701D1*
X1168701Y2893701D1*
Y2631201D1*
X1318701D2*
Y1893701D1*
X1718701Y1793701D2*
D16*
Y1893701D1*
X1818701Y1793701D2*
Y1893701D1*
X943701Y3193701D2*
D15*
Y3006201D1*
X1768701D2*
Y2618701D1*
X1818701Y2568701D1*
Y1893701D1*
X1918701Y1793701D2*
D16*
Y1893701D1*
X2018701Y1793701D2*
Y1893701D1*
X2118701Y1793701D2*
Y1893701D1*
X2518701Y3168701D2*
D15*
Y2206201D1*
X2118701D2*
Y1893701D1*
X743701Y1343701D2*
Y1681201D1*
X1168701D2*
Y2556201D1*
X1118701Y2606201D1*
Y2693701D1*
X2393701Y1316732D2*
D17*
X2416732D1*
X2443701Y1343701D1*
X2643701D1*
X1693701Y1316732D2*
X1716732D1*
X1743701Y1343701D1*
X1943701D1*
X993701Y1316732D2*
X1066732D1*
X1093701Y1343701D1*
X1243701D1*
X3037462Y2268612D2*
D15*
Y2185966D1*
X3044173Y2179255D1*
D20*
X3050409D1*
Y2007255D1*
X3043701D1*
Y1843701D1*
X3143701Y1743701D1*
X3343701Y1343701D2*
D17*
X3120669D1*
X3093701Y1316732D1*
D48*
X1031201Y2368701D3*
X2381201D3*
X656201Y1468701D3*
X1068701D3*
X606201Y1618701D3*
X1468701D3*
X1368701Y2468701D3*
X1268701D3*
X2068701Y2693701D3*
X1318701D3*
Y1543701D3*
X1581201D3*
X1968701Y2431201D3*
X1668701D3*
X2393701Y2256201D3*
X1718701D3*
X918701Y2330315D3*
X2218701D3*
X1031201Y2293701D3*
X1418701D3*
X1028543Y2503543D3*
X1618701Y2506201D3*
X2768701Y1581201D3*
X818701Y1543701D3*
X920472Y2416929D3*
X1493701Y2418701D3*
X2593701Y2068701D3*
X918701Y1981201D3*
X1568701Y2256201D3*
X1118701D3*
X1368701Y2568701D3*
X1218701D3*
X1168701Y2631201D3*
X1318701D3*
X943701Y3006201D3*
X1768701D3*
X2518701Y2206201D3*
X2118701D3*
X743701Y1681201D3*
X1168701D3*
X1118701Y2693701D3*
D18*
X3050409Y2400255D3*
D48*
X931201Y1043701D3*
Y993701D3*
X1631201Y1043701D3*
Y993701D3*
X2331201Y1056201D3*
Y1006201D3*
D18*
X3050409Y2374255D3*
Y2348255D3*
X3011409Y2400255D3*
Y2374255D3*
Y2348255D3*
X2972409Y2400255D3*
Y2374255D3*
Y2348255D3*
X3401409Y2140255D3*
X3362409D3*
D48*
X2751409Y2478255D3*
X3518409Y2634255D3*
X631201Y2631201D3*
X618701Y2056201D3*
X881201Y2631201D3*
Y2056201D3*
X806201Y2943701D3*
X843701D3*
X2056201Y3006201D3*
X3031201Y1006201D3*
Y1056201D3*
X3377451Y2625072D2*
D21*
X3559909D1*
X3377451Y2600203D2*
X3559909D1*
X3377451Y2575335D2*
X3559909D1*
X3377451Y2550466D2*
X3559909D1*
X3377451Y2525597D2*
X3559909D1*
X3377451Y2500728D2*
X3559909D1*
X3377451Y2475860D2*
X3559909D1*
X3377451Y2450991D2*
X3559909D1*
X3377451Y2426122D2*
X3559909D1*
X3398946Y2401253D2*
X3559909D1*
X3430058Y2376385D2*
X3559909D1*
X3461133Y2351516D2*
X3559909D1*
X3471181Y2326647D2*
X3559909D1*
X3471181Y2301778D2*
X3559909D1*
X3471181Y2276909D2*
X3559909D1*
X3471181Y2252041D2*
X3559909D1*
X3471181Y2227172D2*
X3559909D1*
X3471181Y2202303D2*
X3559909D1*
X3471181Y2177434D2*
X3559909D1*
X3562387Y2649941D2*
X3374928D1*
X3374933Y2418465D1*
X3465413Y2345894D1*
X3467123Y2343505D1*
X3468228Y2340782D1*
X3468667Y2337873D1*
X3468673Y2156224D1*
X3562427Y2156245D1*
X3562411Y2649963D1*
X3158699Y2625072D2*
X3247429D1*
X3158699Y2600203D2*
X3247429D1*
X3158699Y2575335D2*
X3247429D1*
X3158699Y2550466D2*
X3247429D1*
X3152025Y2525597D2*
X3247429D1*
X3089982Y2500728D2*
X3247429D1*
X3097697Y2475860D2*
X3247429D1*
X3132539Y2450991D2*
X3258445D1*
X3133724Y2426122D2*
X3279151D1*
X3133724Y2401253D2*
X3299891D1*
X3133724Y2376385D2*
X3309940D1*
X3133724Y2351516D2*
X3309940D1*
X3212202Y2326647D2*
X3309940D1*
X3237071Y2301778D2*
X3309940D1*
X3210825Y2325534D2*
X3223429D1*
Y2312938D1*
X3236370Y2299984D1*
X3312403Y2299980D1*
X3312437Y2389199D1*
X3251707Y2462310D1*
X3250509Y2464993D1*
X3249971Y2467886D1*
X3249944Y2649962D1*
X3156190Y2649941D1*
X3156052Y2535499D1*
X3155255Y2532671D1*
X3153819Y2530106D1*
X3147546Y2523615D1*
X3138555Y2514843D1*
X3135991Y2513407D1*
X3133163Y2512609D1*
X3122021Y2512455D1*
X3087465D1*
X3087463Y2481428D1*
X3127476Y2452623D1*
X3129314Y2450331D1*
X3130566Y2447672D1*
X3131161Y2444795D1*
X3131209Y2337461D1*
X3195656Y2337323D1*
X3198484Y2336525D1*
X3201049Y2335089D1*
X3210837Y2325518D1*
X3215549Y2218865D2*
X3416164D1*
X3139976Y2193996D2*
X3416164D1*
X3139976Y2169127D2*
X3416164D1*
X3139976Y2144259D2*
X3416164D1*
X3223437Y2227757D2*
Y2221361D1*
X3215937D1*
X3200232Y2208080D1*
X3197563Y2206849D1*
X3194681Y2206276D1*
X3137470Y2206238D1*
X3137458Y2124972D1*
X3418671Y2124999D1*
X3418676Y2243727D1*
X3242102Y2243734D1*
X3223430Y2227757D1*
X2701428Y2622886D2*
X2735720D1*
X2701428Y2598017D2*
X2735003D1*
X2701428Y2573148D2*
X2735003D1*
X2701428Y2548280D2*
X2735003D1*
X2701428Y2523411D2*
X2735003D1*
X2701428Y2448804D2*
X2712954D1*
X2701428Y2423936D2*
X2735039D1*
X2701428Y2399067D2*
X3059970D1*
X2701428Y2374198D2*
X3059970D1*
X2701428Y2349329D2*
X3059970D1*
X2701428Y2324461D2*
X2922462D1*
X2701428Y2299592D2*
X2922462D1*
X2701428Y2274723D2*
X2922462D1*
X2701428Y2249854D2*
X2922462D1*
X2701428Y2224986D2*
X2914639D1*
X2701428Y2200117D2*
X2909005D1*
X2701428Y2175248D2*
X2907067D1*
X2917122Y2224743D2*
Y2235282D1*
X2922398D1*
X2924978Y2246672D1*
X2925131Y2333181D1*
X2925929Y2336009D1*
X2927365Y2338573D1*
X2929360Y2340731D1*
X2931803Y2342364D1*
X2934559Y2343381D1*
X2937478Y2343726D1*
X3062462D1*
X3062463Y2406475D1*
X2748042Y2412619D1*
X2745214Y2413417D1*
X2742650Y2414853D1*
X2740492Y2416848D1*
X2738860Y2419291D1*
X2737843Y2422047D1*
X2737497Y2424966D1*
Y2433902D1*
X2730299Y2436823D1*
X2724077Y2440635D1*
X2718529Y2445374D1*
X2713790Y2450923D1*
X2709978Y2457144D1*
X2707185Y2463886D1*
X2705482Y2470980D1*
X2704909Y2478255D1*
X2705482Y2485529D1*
X2707185Y2492623D1*
X2709978Y2499365D1*
X2713790Y2505587D1*
X2718529Y2511135D1*
X2724077Y2515874D1*
X2730299Y2519686D1*
X2737493Y2522606D1*
X2737651Y2620651D1*
X2738449Y2623479D1*
X2739885Y2626043D1*
X2741879Y2628201D1*
X2744323Y2629833D1*
X2747079Y2630850D1*
X2749997Y2631196D1*
X2818142D1*
X2817449Y2647722D1*
X2698899Y2647755D1*
X2698909Y2165735D1*
X2908856Y2165755D1*
X2912803Y2215314D1*
X2913799Y2218079D1*
X2917121Y2224722D1*
X3089982Y2262610D2*
X3178711D1*
X3107256Y2287479D2*
X3087448D1*
X3087463Y2249992D1*
X3107370Y2250073D1*
X3111361Y2253848D1*
X3113925Y2255283D1*
X3116753Y2256081D1*
X3126207Y2256235D1*
X3181194D1*
X3181201Y2281234D1*
X3116753Y2281383D1*
X3113925Y2282181D1*
X3111361Y2283617D1*
X3107277Y2287483D1*
D23*
X993701Y1068701D3*
Y1316732D3*
X1693701Y1068701D3*
Y1316732D3*
X2393701Y1068701D3*
Y1316732D3*
D24*
X3167409Y2348255D3*
Y2273451D3*
D25*
X3154409Y2179255D3*
X3044173D3*
D24*
X2985409Y2556255D3*
Y2631058D3*
D25*
X3387430Y2212488D3*
X3497667D3*
D23*
X3093701Y1068701D3*
Y1316732D3*
D27*
X3271409Y2335255D3*
Y2177774D3*
D28*
X2943701Y493701D3*
D29*
X3043701D3*
X3143701D3*
X3243701D3*
D30*
X2518701Y3168701D3*
D31*
X2618701D3*
X2718701D3*
D28*
X943701Y3193701D3*
D29*
X1043701D3*
X1143701D3*
X1243701D3*
X1343701D3*
X1443701D3*
X1543701D3*
X1643701D3*
D28*
X843701Y493701D3*
D29*
X943701D3*
X1043701D3*
X1143701D3*
D28*
X518701Y1793701D3*
D29*
X618701D3*
X718701D3*
X818701D3*
X918701D3*
X1018701D3*
X1118701D3*
X1218701D3*
X1318701D3*
X1418701D3*
X1518701D3*
X1618701D3*
X1718701D3*
X1818701D3*
X1918701D3*
X2018701D3*
X2118701D3*
X2218701D3*
X2318701D3*
D30*
X2956201Y3168701D3*
D31*
X3056201D3*
X3156201D3*
D28*
X1543701Y493701D3*
D29*
X1643701D3*
X1743701D3*
X1843701D3*
D28*
X2243701D3*
D29*
X2343701D3*
X2443701D3*
X2543701D3*
D32*
X3143701Y1743701D3*
X3379921D3*
D33*
X3261811Y1928740D3*
D34*
X968701Y2243701D3*
Y2287008D3*
Y2330315D3*
Y2373622D3*
Y2416929D3*
Y2460236D3*
Y2503543D3*
Y2546850D3*
Y2590157D3*
D35*
X553346Y2055512D3*
D36*
X935236D3*
D37*
Y2633465D3*
D35*
X553346D3*
D38*
X3193701Y2568701D3*
X3431890D3*
D39*
X531496Y531496D3*
X3543307D3*
Y3149606D3*
X531496D3*
D40*
X2894409Y2179255D3*
X2969213D3*
D24*
X2894409Y2556255D3*
Y2631058D3*
X2803409Y2634255D3*
Y2559451D3*
D40*
Y2478255D3*
X2878213D3*
D41*
X743701Y1343701D3*
D42*
Y1243701D3*
Y1143701D3*
Y1043701D3*
Y943701D3*
Y843701D3*
Y743701D3*
Y643701D3*
X1243701D3*
Y743701D3*
Y843701D3*
Y943701D3*
Y1043701D3*
Y1143701D3*
Y1243701D3*
Y1343701D3*
D41*
X1443701D3*
D42*
Y1243701D3*
Y1143701D3*
Y1043701D3*
Y943701D3*
Y843701D3*
Y743701D3*
Y643701D3*
X1943701D3*
Y743701D3*
Y843701D3*
Y943701D3*
Y1043701D3*
Y1143701D3*
Y1243701D3*
Y1343701D3*
D41*
X2143701D3*
D42*
Y1243701D3*
Y1143701D3*
Y1043701D3*
Y943701D3*
Y843701D3*
Y743701D3*
Y643701D3*
X2643701D3*
Y743701D3*
Y843701D3*
Y943701D3*
Y1043701D3*
Y1143701D3*
Y1243701D3*
Y1343701D3*
D44*
X3087462Y2481210D3*
X3037462D3*
X2987462D3*
X2937462D3*
Y2268612D3*
X2987462D3*
X3037462D3*
X3087462D3*
D45*
X3012462Y2374911D3*
D41*
X2843701Y1343701D3*
D42*
Y1243701D3*
Y1143701D3*
Y1043701D3*
Y943701D3*
Y843701D3*
Y743701D3*
Y643701D3*
X3343701D3*
Y743701D3*
Y843701D3*
Y943701D3*
Y1043701D3*
Y1143701D3*
Y1243701D3*
Y1343701D3*
D20*
X518701Y2793701D3*
X618701D3*
X718701D3*
X818701D3*
X918701D3*
X1018701D3*
X1118701D3*
X1218701D3*
X1318701D3*
X1418701D3*
X1518701D3*
X1618701D3*
X1718701D3*
X1818701D3*
X1918701D3*
X2018701D3*
X2118701D3*
X2218701D3*
X2318701D3*
X518701Y1893701D3*
X618701D3*
X718701D3*
X818701D3*
X918701D3*
X1018701D3*
X1118701D3*
X1218701D3*
X1318701D3*
X1418701D3*
X1518701D3*
X1618701D3*
X1718701D3*
X1818701D3*
X1918701D3*
X2018701D3*
X2118701D3*
X2218701D3*
X2318701D3*
D47*
X668701Y3006201D3*
X826181D3*
D25*
X2106201D3*
X2216437D3*
M02*
