G04 DipTrace 3.3.1.3*
G04 TopMask.gbr*
%MOIN*%
G04 #@! TF.FileFunction,Soldermask,Top*
G04 #@! TF.Part,Single*
%ADD51C,0.03937*%
%ADD60R,0.106457X0.074961*%
%ADD62C,0.068031*%
%ADD64R,0.14622X0.111181*%
%ADD66R,0.032047X0.071024*%
%ADD68C,0.067031*%
%ADD70R,0.067031X0.067031*%
%ADD72R,0.059213X0.067087*%
%ADD74C,0.208031*%
%ADD76R,0.100551X0.145827*%
%ADD78R,0.06315X0.039528*%
%ADD80R,0.06315X0.055276*%
%ADD82R,0.086772X0.055276*%
%ADD84R,0.059213X0.035591*%
%ADD86O,0.126142X0.086772*%
%ADD88O,0.086772X0.126142*%
%ADD90C,0.074961*%
%ADD92R,0.074961X0.074961*%
%ADD94C,0.067087*%
%ADD96R,0.067087X0.067087*%
%ADD98R,0.074961X0.106457*%
%ADD100R,0.071024X0.078898*%
%ADD102R,0.067087X0.059213*%
%ADD104R,0.071024X0.171417*%
%FSLAX26Y26*%
G04*
G70*
G90*
G75*
G01*
G04 TopMask*
%LPD*%
D104*
X993701Y1068701D3*
Y1316732D3*
X1693701Y1068701D3*
Y1316732D3*
X2393701Y1068701D3*
Y1316732D3*
D102*
X3167409Y2348255D3*
Y2273451D3*
D100*
X3154409Y2179255D3*
X3044173D3*
D102*
X2985409Y2556255D3*
Y2631058D3*
D100*
X3387430Y2212488D3*
X3497667D3*
D104*
X3093701Y1068701D3*
Y1316732D3*
D98*
X3271409Y2335255D3*
Y2177774D3*
D96*
X2943701Y493701D3*
D94*
X3043701D3*
X3143701D3*
X3243701D3*
D92*
X2518701Y3168701D3*
D90*
X2618701D3*
X2718701D3*
D96*
X943701Y3193701D3*
D94*
X1043701D3*
X1143701D3*
X1243701D3*
X1343701D3*
X1443701D3*
X1543701D3*
X1643701D3*
D96*
X843701Y493701D3*
D94*
X943701D3*
X1043701D3*
X1143701D3*
D96*
X518701Y1793701D3*
D94*
X618701D3*
X718701D3*
X818701D3*
X918701D3*
X1018701D3*
X1118701D3*
X1218701D3*
X1318701D3*
X1418701D3*
X1518701D3*
X1618701D3*
X1718701D3*
X1818701D3*
X1918701D3*
X2018701D3*
X2118701D3*
X2218701D3*
X2318701D3*
D92*
X2956201Y3168701D3*
D90*
X3056201D3*
X3156201D3*
D96*
X1543701Y493701D3*
D94*
X1643701D3*
X1743701D3*
X1843701D3*
D96*
X2243701D3*
D94*
X2343701D3*
X2443701D3*
X2543701D3*
D88*
X3143701Y1743701D3*
X3379921D3*
D86*
X3261811Y1928740D3*
D84*
X968701Y2243701D3*
Y2287008D3*
Y2330315D3*
Y2373622D3*
Y2416929D3*
Y2460236D3*
Y2503543D3*
Y2546850D3*
Y2590157D3*
D82*
X553346Y2055512D3*
D80*
X935236D3*
D78*
Y2633465D3*
D82*
X553346D3*
D51*
X537598Y2522835D3*
Y2207874D3*
D76*
X3193701Y2568701D3*
X3431890D3*
D74*
X531496Y531496D3*
X3543307D3*
Y3149606D3*
X531496D3*
D72*
X2894409Y2179255D3*
X2969213D3*
D102*
X2894409Y2556255D3*
Y2631058D3*
X2803409Y2634255D3*
Y2559451D3*
D72*
Y2478255D3*
X2878213D3*
D70*
X743701Y1343701D3*
D68*
Y1243701D3*
Y1143701D3*
Y1043701D3*
Y943701D3*
Y843701D3*
Y743701D3*
Y643701D3*
X1243701D3*
Y743701D3*
Y843701D3*
Y943701D3*
Y1043701D3*
Y1143701D3*
Y1243701D3*
Y1343701D3*
D70*
X1443701D3*
D68*
Y1243701D3*
Y1143701D3*
Y1043701D3*
Y943701D3*
Y843701D3*
Y743701D3*
Y643701D3*
X1943701D3*
Y743701D3*
Y843701D3*
Y943701D3*
Y1043701D3*
Y1143701D3*
Y1243701D3*
Y1343701D3*
D70*
X2143701D3*
D68*
Y1243701D3*
Y1143701D3*
Y1043701D3*
Y943701D3*
Y843701D3*
Y743701D3*
Y643701D3*
X2643701D3*
Y743701D3*
Y843701D3*
Y943701D3*
Y1043701D3*
Y1143701D3*
Y1243701D3*
Y1343701D3*
D66*
X3087462Y2481210D3*
X3037462D3*
X2987462D3*
X2937462D3*
Y2268612D3*
X2987462D3*
X3037462D3*
X3087462D3*
D64*
X3012462Y2374911D3*
D70*
X2843701Y1343701D3*
D68*
Y1243701D3*
Y1143701D3*
Y1043701D3*
Y943701D3*
Y843701D3*
Y743701D3*
Y643701D3*
X3343701D3*
Y743701D3*
Y843701D3*
Y943701D3*
Y1043701D3*
Y1143701D3*
Y1243701D3*
Y1343701D3*
D62*
X518701Y2793701D3*
X618701D3*
X718701D3*
X818701D3*
X918701D3*
X1018701D3*
X1118701D3*
X1218701D3*
X1318701D3*
X1418701D3*
X1518701D3*
X1618701D3*
X1718701D3*
X1818701D3*
X1918701D3*
X2018701D3*
X2118701D3*
X2218701D3*
X2318701D3*
X518701Y1893701D3*
X618701D3*
X718701D3*
X818701D3*
X918701D3*
X1018701D3*
X1118701D3*
X1218701D3*
X1318701D3*
X1418701D3*
X1518701D3*
X1618701D3*
X1718701D3*
X1818701D3*
X1918701D3*
X2018701D3*
X2118701D3*
X2218701D3*
X2318701D3*
D60*
X668701Y3006201D3*
X826181D3*
D100*
X2106201D3*
X2216437D3*
M02*
