G04 DipTrace 3.3.1.3*
G04 TopSilk.gbr*
%MOIN*%
G04 #@! TF.FileFunction,Legend,Top*
G04 #@! TF.Part,Single*
%ADD10C,0.009843*%
%ADD22C,0.031482*%
%ADD26C,0.019677*%
%ADD43C,0.019692*%
%ADD46C,0.019695*%
%ADD106C,0.006176*%
%ADD107C,0.00772*%
%ADD109C,0.010807*%
%FSLAX26Y26*%
G04*
G70*
G90*
G75*
G01*
G04 TopSilk*
%LPD*%
X1158701Y1312869D2*
D10*
Y1027625D1*
X1113821Y1357795D2*
X1158701Y1312869D1*
X828701D2*
Y1027625D1*
X873581Y1357795D2*
X828701Y1312869D1*
X1040957Y1357795D2*
X1113821D1*
X873581D2*
X946445D1*
X1040957Y1027625D2*
X1158701D1*
X828701D2*
X946445D1*
D22*
X1052738Y1389566D3*
X1858701Y1312869D2*
D10*
Y1027625D1*
X1813821Y1357795D2*
X1858701Y1312869D1*
X1528701D2*
Y1027625D1*
X1573581Y1357795D2*
X1528701Y1312869D1*
X1740957Y1357795D2*
X1813821D1*
X1573581D2*
X1646445D1*
X1740957Y1027625D2*
X1858701D1*
X1528701D2*
X1646445D1*
D22*
X1752738Y1389566D3*
X2558701Y1312869D2*
D10*
Y1027625D1*
X2513821Y1357795D2*
X2558701Y1312869D1*
X2228701D2*
Y1027625D1*
X2273581Y1357795D2*
X2228701Y1312869D1*
X2440957Y1357795D2*
X2513821D1*
X2273581D2*
X2346445D1*
X2440957Y1027625D2*
X2558701D1*
X2228701D2*
X2346445D1*
D22*
X2452738Y1389566D3*
X3141839Y2389614D2*
D10*
X3192980D1*
X3103622Y2210719D2*
Y2147790D1*
X3111071Y2210719D2*
Y2147790D1*
Y2210719D2*
X3087512D1*
X3111071Y2147790D2*
X3087512D1*
X3010980Y2514895D2*
X2959839D1*
X3438218Y2181024D2*
Y2243953D1*
X3430769Y2181024D2*
Y2243953D1*
Y2181024D2*
X3454328D1*
X3430769Y2243953D2*
X3454328D1*
X3258701Y1312869D2*
Y1027625D1*
X3213821Y1357795D2*
X3258701Y1312869D1*
X2928701D2*
Y1027625D1*
X2973581Y1357795D2*
X2928701Y1312869D1*
X3140957Y1357795D2*
X3213821D1*
X2973581D2*
X3046445D1*
X3140957Y1027625D2*
X3258701D1*
X2928701D2*
X3046445D1*
D22*
X3152738Y1389566D3*
X3310776Y2374634D2*
D10*
X3330465D1*
Y2138409D1*
X3310776D1*
X3232043Y2374634D2*
X3212354D1*
Y2138409D1*
X3232043D1*
X3310776Y2276188D2*
X3232043D1*
D26*
X3271409Y2404147D3*
X3293701Y443701D2*
D10*
Y543701D1*
X2893701Y443701D2*
X3293701D1*
X2893701Y543701D2*
X3293701D1*
X2893701Y443701D2*
Y543701D1*
X2468720Y3218706D2*
X2768682D1*
Y3118701D1*
X2468720D1*
Y3218706D1*
X893701Y3243701D2*
X1693701D1*
X893701Y3143701D2*
Y3243701D1*
Y3143701D2*
X1693701D1*
Y3243701D1*
X1193701Y443701D2*
Y543701D1*
X793701Y443701D2*
X1193701D1*
X793701Y543701D2*
X1193701D1*
X793701Y443701D2*
Y543701D1*
X1994401Y1843701D2*
X2002001D1*
X542801D2*
X2368701D1*
X468701D2*
X542801D1*
X468701Y1743701D2*
Y1843701D1*
Y1743701D2*
X2368701D1*
Y1843701D1*
X2906220Y3218706D2*
X3206182D1*
Y3118701D1*
X2906220D1*
Y3218706D1*
X1893701Y443701D2*
Y543701D1*
X1493701Y443701D2*
X1893701D1*
X1493701Y543701D2*
X1893701D1*
X1493701Y443701D2*
Y543701D1*
X2593701Y443701D2*
Y543701D1*
X2193701Y443701D2*
X2593701D1*
X2193701Y543701D2*
X2593701D1*
X2193701Y443701D2*
Y543701D1*
X3338605Y1920886D2*
X3683071D1*
Y1566543D1*
X3679135D1*
X3683071D2*
X3116137D1*
Y1672838D1*
Y1814551D2*
Y1920886D1*
X3185065D1*
X419291Y2633447D2*
X444311Y2608472D1*
X419291Y2683465D2*
X1019291D1*
Y2008465D1*
X419291D1*
Y2683465D1*
X444311Y2608472D2*
Y2083457D1*
X419291Y2058482D1*
X444311Y2358452D2*
X619271D1*
X594311Y2408470D1*
X619271Y2358452D2*
X594311Y2308435D1*
X3154320Y2647437D2*
Y2706496D1*
X3469287D1*
Y2647437D1*
Y2489965D2*
Y2430906D1*
X3154320D1*
Y2489965D1*
X693701Y1393701D2*
X793721D1*
Y593701D1*
X693701D1*
Y1393701D1*
X1193681D2*
X1293701D1*
Y593701D1*
X1193681D1*
Y1393701D1*
X793721D2*
X1193681D1*
Y593701D1*
X793721D1*
Y1393701D1*
X1393701D2*
X1493721D1*
Y593701D1*
X1393701D1*
Y1393701D1*
X1893681D2*
X1993701D1*
Y593701D1*
X1893681D1*
Y1393701D1*
X1493721D2*
X1893681D1*
Y593701D1*
X1493721D1*
Y1393701D1*
X2093701D2*
X2193721D1*
Y593701D1*
X2093701D1*
Y1393701D1*
X2593681D2*
X2693701D1*
Y593701D1*
X2593681D1*
Y1393701D1*
X2193721D2*
X2593681D1*
Y593701D1*
X2193721D1*
Y1393701D1*
X3107147Y2313895D2*
X2920139D1*
Y2441852D1*
X3107147D1*
Y2313895D1*
D43*
X3097301Y2431999D3*
G36*
X3107147Y2353249D2*
X3087455D1*
Y2402470D1*
X3107147D1*
Y2353249D1*
G37*
X2793701Y1393701D2*
D10*
X2893721D1*
Y593701D1*
X2793701D1*
Y1393701D1*
X3293681D2*
X3393701D1*
Y593701D1*
X3293681D1*
Y1393701D1*
X2893721D2*
X3293681D1*
Y593701D1*
X2893721D1*
Y1393701D1*
X2368717Y2843701D2*
X468701D1*
Y1843701D1*
X2368717D1*
Y2843701D1*
Y2743701D2*
X468701D1*
X2368717Y1943701D2*
X468701D1*
X2369146Y2659801D2*
D3*
X618601Y2493701D2*
X468701D1*
Y2193701D1*
X618601D1*
Y2493701D1*
X629322Y3045567D2*
Y3065256D1*
X865546D1*
Y3045567D1*
X629322Y2966835D2*
Y2947146D1*
X865546D1*
Y2966835D1*
X727768Y3045567D2*
Y2966835D1*
D46*
X599808Y3006201D3*
X2156988Y2974736D2*
D10*
Y3037665D1*
X2149539Y2974736D2*
Y3037665D1*
Y2974736D2*
X2173098D1*
X2149539Y3037665D2*
X2173098D1*
X2468701Y3118701D2*
X2768701D1*
Y2868701D1*
X2468701D1*
Y3118701D1*
Y2956201D2*
X2768701D1*
Y2868701D1*
X2468701D1*
Y2956201D1*
X2906201Y3118701D2*
X3206201D1*
Y2868701D1*
X2906201D1*
Y3118701D1*
Y2956201D2*
X3206201D1*
Y2868701D1*
X2906201D1*
Y2956201D1*
X2418701Y2031201D2*
X3068701D1*
Y1618701D1*
X2418701D1*
Y2031201D1*
X1693701Y3243701D2*
X2018701D1*
Y3143701D1*
X1693701D1*
Y3243701D1*
X863476Y1004343D2*
D106*
X861574Y1008145D1*
X857728Y1011992D1*
X853925Y1013893D1*
X846276D1*
X842429Y1011992D1*
X838627Y1008145D1*
X836681Y1004343D1*
X834780Y998595D1*
Y989000D1*
X836681Y983296D1*
X838627Y979449D1*
X842429Y975647D1*
X846276Y973701D1*
X853925D1*
X857728Y975647D1*
X861574Y979449D1*
X863476Y983296D1*
X898775Y1013849D2*
X879674D1*
X877773Y996649D1*
X879674Y998551D1*
X885422Y1000496D1*
X891126D1*
X896874Y998551D1*
X900721Y994748D1*
X902622Y989000D1*
Y985197D1*
X900721Y979449D1*
X896874Y975603D1*
X891126Y973701D1*
X885422D1*
X879674Y975603D1*
X877773Y977548D1*
X875827Y981351D1*
X1564448Y979343D2*
X1562547Y983145D1*
X1558700Y986992D1*
X1554898Y988893D1*
X1547249D1*
X1543402Y986992D1*
X1539599Y983145D1*
X1537654Y979343D1*
X1535753Y973595D1*
Y964000D1*
X1537654Y958296D1*
X1539599Y954449D1*
X1543402Y950647D1*
X1547249Y948701D1*
X1554898D1*
X1558700Y950647D1*
X1562547Y954449D1*
X1564448Y958296D1*
X1599748Y983145D2*
X1597847Y986948D1*
X1592098Y988849D1*
X1588296D1*
X1582548Y986948D1*
X1578701Y981200D1*
X1576800Y971649D1*
Y962099D1*
X1578701Y954449D1*
X1582548Y950603D1*
X1588296Y948701D1*
X1590197D1*
X1595901Y950603D1*
X1599748Y954449D1*
X1601649Y960197D1*
Y962099D1*
X1599748Y967847D1*
X1595901Y971649D1*
X1590197Y973551D1*
X1588296D1*
X1582548Y971649D1*
X1578701Y967847D1*
X1576800Y962099D1*
X2263476Y979343D2*
X2261574Y983145D1*
X2257728Y986992D1*
X2253925Y988893D1*
X2246276D1*
X2242429Y986992D1*
X2238627Y983145D1*
X2236681Y979343D1*
X2234780Y973595D1*
Y964000D1*
X2236681Y958296D1*
X2238627Y954449D1*
X2242429Y950647D1*
X2246276Y948701D1*
X2253925D1*
X2257728Y950647D1*
X2261574Y954449D1*
X2263476Y958296D1*
X2283476Y948701D2*
X2302622Y988849D1*
X2275827D1*
X3215406Y2415265D2*
X3213505Y2419068D1*
X3209658Y2422915D1*
X3205856Y2424816D1*
X3198206D1*
X3194360Y2422915D1*
X3190557Y2419068D1*
X3188612Y2415265D1*
X3186710Y2409517D1*
Y2399923D1*
X3188612Y2394219D1*
X3190557Y2390372D1*
X3194360Y2386569D1*
X3198206Y2384624D1*
X3205856D1*
X3209658Y2386569D1*
X3213505Y2390372D1*
X3215406Y2394219D1*
X3229703Y2415221D2*
Y2417122D1*
X3231604Y2420969D1*
X3233506Y2422871D1*
X3237352Y2424772D1*
X3245002D1*
X3248804Y2422871D1*
X3250705Y2420969D1*
X3252651Y2417122D1*
Y2413320D1*
X3250705Y2409473D1*
X3246903Y2403769D1*
X3227758Y2384624D1*
X3254552D1*
X3102166Y2120216D2*
X3100265Y2124018D1*
X3096418Y2127865D1*
X3092616Y2129766D1*
X3084966D1*
X3081120Y2127865D1*
X3077317Y2124018D1*
X3075372Y2120216D1*
X3073470Y2114468D1*
Y2104873D1*
X3075372Y2099169D1*
X3077317Y2095322D1*
X3081120Y2091520D1*
X3084966Y2089574D1*
X3092616D1*
X3096418Y2091520D1*
X3100265Y2095322D1*
X3102166Y2099169D1*
X3114518Y2122073D2*
X3118364Y2124018D1*
X3124112Y2129722D1*
Y2089574D1*
X2970590Y2717547D2*
X2966788Y2715645D1*
X2962941Y2711799D1*
X2961040Y2707996D1*
Y2700347D1*
X2962941Y2696500D1*
X2966788Y2692698D1*
X2970590Y2690752D1*
X2976338Y2688851D1*
X2985933D1*
X2991637Y2690752D1*
X2995484Y2692698D1*
X2999286Y2696500D1*
X3001232Y2700347D1*
Y2707996D1*
X2999286Y2711799D1*
X2995484Y2715645D1*
X2991637Y2717547D1*
X2961084Y2733745D2*
Y2754747D1*
X2976383Y2743295D1*
Y2749043D1*
X2978284Y2752846D1*
X2980185Y2754747D1*
X2985933Y2756693D1*
X2989736D1*
X2995484Y2754747D1*
X2999330Y2750945D1*
X3001232Y2745197D1*
Y2739449D1*
X2999330Y2733745D1*
X2997385Y2731843D1*
X2993582Y2729898D1*
X3442624Y2153198D2*
X3440722Y2157001D1*
X3436875Y2160848D1*
X3433073Y2162749D1*
X3425424D1*
X3421577Y2160848D1*
X3417774Y2157001D1*
X3415829Y2153198D1*
X3413928Y2147450D1*
Y2137856D1*
X3415829Y2132152D1*
X3417774Y2128305D1*
X3421577Y2124503D1*
X3425424Y2122557D1*
X3433073D1*
X3436875Y2124503D1*
X3440722Y2128305D1*
X3442624Y2132152D1*
X3474120Y2122557D2*
Y2162705D1*
X3454975Y2135954D1*
X3483671D1*
X2963498Y979343D2*
X2961597Y983145D1*
X2957750Y986992D1*
X2953947Y988893D1*
X2946298D1*
X2942451Y986992D1*
X2938649Y983145D1*
X2936703Y979343D1*
X2934802Y973595D1*
Y964000D1*
X2936703Y958296D1*
X2938649Y954449D1*
X2942451Y950647D1*
X2946298Y948701D1*
X2953947D1*
X2957750Y950647D1*
X2961597Y954449D1*
X2963498Y958296D1*
X2985400Y988849D2*
X2979696Y986948D1*
X2977751Y983145D1*
Y979299D1*
X2979696Y975496D1*
X2983499Y973551D1*
X2991148Y971649D1*
X2996896Y969748D1*
X3000698Y965901D1*
X3002600Y962099D1*
Y956351D1*
X3000698Y952548D1*
X2998797Y950603D1*
X2993049Y948701D1*
X2985400D1*
X2979696Y950603D1*
X2977751Y952548D1*
X2975849Y956351D1*
Y962099D1*
X2977751Y965901D1*
X2981597Y969748D1*
X2987301Y971649D1*
X2994950Y973551D1*
X2998797Y975496D1*
X3000698Y979299D1*
Y983145D1*
X2998797Y986948D1*
X2993049Y988849D1*
X2985400D1*
X3262767Y2057647D2*
X3302959D1*
Y2071044D1*
X3301013Y2076792D1*
X3297211Y2080639D1*
X3293364Y2082540D1*
X3287660Y2084441D1*
X3278065D1*
X3272317Y2082540D1*
X3268515Y2080639D1*
X3264668Y2076792D1*
X3262767Y2071044D1*
Y2057647D1*
X3270460Y2096793D2*
X3268515Y2100640D1*
X3262811Y2106388D1*
X3302959D1*
X2395250Y3202279D2*
Y3171682D1*
X2393349Y3165934D1*
X2391403Y3164033D1*
X2387600Y3162087D1*
X2383754D1*
X2379951Y3164033D1*
X2378050Y3165934D1*
X2376104Y3171682D1*
Y3175485D1*
X2426747Y3162087D2*
Y3202235D1*
X2407601Y3175485D1*
X2436297D1*
X833700Y3214779D2*
Y3184182D1*
X831799Y3178434D1*
X829854Y3176533D1*
X826051Y3174587D1*
X822204D1*
X818402Y3176533D1*
X816501Y3178434D1*
X814555Y3184182D1*
Y3187985D1*
X849899Y3214735D2*
X870901D1*
X859449Y3199436D1*
X865197D1*
X869000Y3197535D1*
X870901Y3195634D1*
X872847Y3189886D1*
Y3186083D1*
X870901Y3180335D1*
X867098Y3176489D1*
X861350Y3174587D1*
X855602D1*
X849899Y3176489D1*
X847997Y3178434D1*
X846052Y3182237D1*
X3246200Y3189779D2*
Y3159182D1*
X3244299Y3153434D1*
X3242354Y3151533D1*
X3238551Y3149587D1*
X3234704D1*
X3230902Y3151533D1*
X3229001Y3153434D1*
X3227055Y3159182D1*
Y3162985D1*
X3281500Y3189735D2*
X3262399D1*
X3260497Y3172535D1*
X3262399Y3174436D1*
X3268147Y3176382D1*
X3273850D1*
X3279598Y3174436D1*
X3283445Y3170634D1*
X3285347Y3164886D1*
Y3161083D1*
X3283445Y3155335D1*
X3279598Y3151489D1*
X3273850Y3149587D1*
X3268147D1*
X3262399Y3151489D1*
X3260497Y3153434D1*
X3258552Y3157237D1*
X3290348Y2765075D2*
Y2724883D1*
X3313296D1*
X3325648Y2757381D2*
X3329494Y2759326D1*
X3335242Y2765030D1*
Y2724883D1*
X2896691Y2120715D2*
X2913891D1*
X2919639Y2122661D1*
X2921585Y2124562D1*
X2923486Y2128365D1*
Y2132211D1*
X2921585Y2136014D1*
X2919639Y2137959D1*
X2913891Y2139861D1*
X2896691D1*
Y2099669D1*
X2910089Y2120715D2*
X2923486Y2099669D1*
X2935837Y2132167D2*
X2939684Y2134113D1*
X2945432Y2139816D1*
Y2099669D1*
X2901449Y2681186D2*
Y2698386D1*
X2899503Y2704134D1*
X2897602Y2706079D1*
X2893800Y2707981D1*
X2889953D1*
X2886150Y2706079D1*
X2884205Y2704134D1*
X2882303Y2698386D1*
Y2681186D1*
X2922495D1*
X2901449Y2694583D2*
X2922495Y2707981D1*
X2891898Y2722277D2*
X2889997D1*
X2886150Y2724179D1*
X2884249Y2726080D1*
X2882348Y2729927D1*
Y2737576D1*
X2884249Y2741379D1*
X2886150Y2743280D1*
X2889997Y2745225D1*
X2893800D1*
X2897646Y2743280D1*
X2903350Y2739477D1*
X2922495Y2720332D1*
Y2747127D1*
X2801949Y2688883D2*
Y2706083D1*
X2800003Y2711831D1*
X2798102Y2713776D1*
X2794300Y2715677D1*
X2790453D1*
X2786650Y2713776D1*
X2784705Y2711831D1*
X2782803Y2706083D1*
Y2688883D1*
X2822995D1*
X2801949Y2702280D2*
X2822995Y2715677D1*
X2782848Y2731876D2*
Y2752878D1*
X2798146Y2741426D1*
Y2747174D1*
X2800048Y2750977D1*
X2801949Y2752878D1*
X2807697Y2754823D1*
X2811499D1*
X2817247Y2752878D1*
X2821094Y2749075D1*
X2822995Y2743327D1*
Y2737579D1*
X2821094Y2731875D1*
X2819149Y2729974D1*
X2815346Y2728029D1*
X2813139Y2410466D2*
X2830339D1*
X2836087Y2412411D1*
X2838033Y2414313D1*
X2839934Y2418115D1*
Y2421962D1*
X2838033Y2425765D1*
X2836087Y2427710D1*
X2830339Y2429611D1*
X2813139D1*
Y2389419D1*
X2826537Y2410466D2*
X2839934Y2389419D1*
X2871431D2*
Y2429567D1*
X2852285Y2402817D1*
X2880981D1*
X735730Y1452279D2*
Y1423583D1*
X737632Y1417835D1*
X741478Y1414033D1*
X747226Y1412087D1*
X751029D1*
X756777Y1414033D1*
X760624Y1417835D1*
X762525Y1423583D1*
Y1452279D1*
X778723Y1452235D2*
X799726D1*
X788274Y1436936D1*
X794022D1*
X797824Y1435035D1*
X799726Y1433134D1*
X801671Y1427386D1*
Y1423583D1*
X799726Y1417835D1*
X795923Y1413989D1*
X790175Y1412087D1*
X784427D1*
X778723Y1413989D1*
X776822Y1415934D1*
X774876Y1419737D1*
X1409780Y1452279D2*
Y1423583D1*
X1411681Y1417835D1*
X1415528Y1414033D1*
X1421276Y1412087D1*
X1425078D1*
X1430826Y1414033D1*
X1434673Y1417835D1*
X1436574Y1423583D1*
Y1452279D1*
X1468071Y1412087D2*
Y1452235D1*
X1448926Y1425485D1*
X1477622D1*
X2135730Y1452279D2*
Y1423583D1*
X2137632Y1417835D1*
X2141478Y1414033D1*
X2147226Y1412087D1*
X2151029D1*
X2156777Y1414033D1*
X2160624Y1417835D1*
X2162525Y1423583D1*
Y1452279D1*
X2197824Y1452235D2*
X2178723D1*
X2176822Y1435035D1*
X2178723Y1436936D1*
X2184471Y1438882D1*
X2190175D1*
X2195923Y1436936D1*
X2199770Y1433134D1*
X2201671Y1427386D1*
Y1423583D1*
X2199770Y1417835D1*
X2195923Y1413989D1*
X2190175Y1412087D1*
X2184471D1*
X2178723Y1413989D1*
X2176822Y1415934D1*
X2174876Y1419737D1*
X3018938Y2313557D2*
Y2284862D1*
X3020839Y2279113D1*
X3024686Y2275311D1*
X3030434Y2273365D1*
X3034236D1*
X3039984Y2275311D1*
X3043831Y2279113D1*
X3045732Y2284862D1*
Y2313557D1*
X3060029Y2303963D2*
Y2305864D1*
X3061931Y2309711D1*
X3063832Y2311612D1*
X3067679Y2313513D1*
X3075328D1*
X3079130Y2311612D1*
X3081032Y2309711D1*
X3082977Y2305864D1*
Y2302061D1*
X3081032Y2298215D1*
X3077229Y2292511D1*
X3058084Y2273365D1*
X3084879D1*
X2811703Y1464779D2*
Y1436083D1*
X2813604Y1430335D1*
X2817451Y1426533D1*
X2823199Y1424587D1*
X2827002D1*
X2832750Y1426533D1*
X2836597Y1430335D1*
X2838498Y1436083D1*
Y1464779D1*
X2873797Y1459031D2*
X2871896Y1462834D1*
X2866148Y1464735D1*
X2862345D1*
X2856597Y1462834D1*
X2852751Y1457086D1*
X2850849Y1447535D1*
Y1437985D1*
X2852751Y1430335D1*
X2856597Y1426489D1*
X2862345Y1424587D1*
X2864247D1*
X2869950Y1426489D1*
X2873797Y1430335D1*
X2875698Y1436083D1*
Y1437985D1*
X2873797Y1443733D1*
X2869950Y1447535D1*
X2864247Y1449436D1*
X2862345D1*
X2856597Y1447535D1*
X2852751Y1443733D1*
X2850849Y1437985D1*
X1516574Y2902279D2*
Y2873583D1*
X1518476Y2867835D1*
X1522322Y2864033D1*
X1528071Y2862087D1*
X1531873D1*
X1537621Y2864033D1*
X1541468Y2867835D1*
X1543369Y2873583D1*
Y2902279D1*
X1555721Y2894586D2*
X1559567Y2896531D1*
X1565315Y2902235D1*
Y2862087D1*
X699707Y3123834D2*
Y3083642D1*
X713104D1*
X718852Y3085588D1*
X722699Y3089390D1*
X724600Y3093237D1*
X726501Y3098941D1*
Y3108536D1*
X724600Y3114284D1*
X722699Y3118086D1*
X718852Y3121933D1*
X713104Y3123834D1*
X699707D1*
X740798Y3114240D2*
Y3116141D1*
X742700Y3119988D1*
X744601Y3121889D1*
X748448Y3123790D1*
X756097D1*
X759900Y3121889D1*
X761801Y3119988D1*
X763746Y3116141D1*
Y3112338D1*
X761801Y3108492D1*
X757998Y3102788D1*
X738853Y3083642D1*
X765648D1*
X2157044Y3090662D2*
X2155143Y3094464D1*
X2151296Y3098311D1*
X2147494Y3100212D1*
X2139845D1*
X2135998Y3098311D1*
X2132195Y3094464D1*
X2130250Y3090662D1*
X2128349Y3084914D1*
Y3075319D1*
X2130250Y3069615D1*
X2132195Y3065768D1*
X2135998Y3061966D1*
X2139845Y3060020D1*
X2147494D1*
X2151296Y3061966D1*
X2155143Y3065768D1*
X2157044Y3069615D1*
X2194289Y3086815D2*
X2192344Y3081067D1*
X2188541Y3077220D1*
X2182793Y3075319D1*
X2180892D1*
X2175144Y3077220D1*
X2171341Y3081067D1*
X2169396Y3086815D1*
Y3088716D1*
X2171341Y3094464D1*
X2175144Y3098267D1*
X2180892Y3100168D1*
X2182793D1*
X2188541Y3098267D1*
X2192344Y3094464D1*
X2194289Y3086815D1*
Y3077220D1*
X2192344Y3067670D1*
X2188541Y3061922D1*
X2182793Y3060020D1*
X2178991D1*
X2173243Y3061922D1*
X2171341Y3065768D1*
X1119892Y3073887D2*
X1139038Y3089186D1*
X1160084D1*
X1119892Y3104484D2*
X1139038Y3089186D1*
X919892Y3077690D2*
X960084Y3104485D1*
X919892D2*
X960084Y3077690D1*
X1029443Y3043154D2*
X1025640Y3041253D1*
X1021794Y3037406D1*
X1019892Y3033603D1*
Y3025954D1*
X1021794Y3022107D1*
X1025640Y3018305D1*
X1029443Y3016359D1*
X1035191Y3014458D1*
X1044786D1*
X1050490Y3016359D1*
X1054336Y3018305D1*
X1058139Y3022107D1*
X1060084Y3025954D1*
Y3033603D1*
X1058139Y3037406D1*
X1054336Y3041253D1*
X1050490Y3043154D1*
X1044786D1*
Y3033603D1*
X1033290Y3055505D2*
X1060084D1*
X1040939D2*
X1035191Y3061253D1*
X1033290Y3065100D1*
Y3070804D1*
X1035191Y3074651D1*
X1040939Y3076552D1*
X1060084D1*
X1019892Y3111851D2*
X1060084D1*
X1039038D2*
X1035191Y3108049D1*
X1033290Y3104202D1*
Y3098454D1*
X1035191Y3094651D1*
X1039038Y3090805D1*
X1044786Y3088903D1*
X1048588D1*
X1054336Y3090805D1*
X1058139Y3094651D1*
X1060084Y3098454D1*
Y3104202D1*
X1058139Y3108049D1*
X1054336Y3111851D1*
X1519892Y3087020D2*
X1560084D1*
Y3104264D1*
X1558139Y3110012D1*
X1556238Y3111913D1*
X1552435Y3113814D1*
X1546687D1*
X1542840Y3111913D1*
X1540939Y3110012D1*
X1539038Y3104264D1*
X1537092Y3110012D1*
X1535191Y3111913D1*
X1531389Y3113814D1*
X1527542D1*
X1523739Y3111913D1*
X1521794Y3110012D1*
X1519892Y3104264D1*
Y3087020D1*
X1539038D2*
Y3104264D1*
X1360084Y3108332D2*
X1319892Y3092989D1*
X1360084Y3077690D1*
X1346687Y3083438D2*
Y3102584D1*
X905296Y1526745D2*
D107*
X938789Y1476505D1*
Y1526745D2*
X905296Y1476505D1*
X954228Y1501597D2*
X981863D1*
X1035604Y1476505D2*
X1016425Y1526745D1*
X997302Y1476505D1*
X1004487Y1493251D2*
X1028419D1*
X1051043Y1509998D2*
X1077351Y1476505D1*
Y1509998D2*
X1051043Y1476505D1*
X1092791Y1526745D2*
X1095167Y1524368D1*
X1097599Y1526745D1*
X1095167Y1529177D1*
X1092791Y1526745D1*
X1095167Y1509998D2*
Y1476505D1*
X1139347Y1502813D2*
X1136970Y1507621D1*
X1129785Y1509998D1*
X1122600D1*
X1115415Y1507621D1*
X1113038Y1502813D1*
X1115415Y1498060D1*
X1120223Y1495628D1*
X1132162Y1493251D1*
X1136970Y1490875D1*
X1139347Y1486066D1*
Y1483690D1*
X1136970Y1478937D1*
X1129785Y1476505D1*
X1122600D1*
X1115415Y1478937D1*
X1113038Y1483690D1*
X2331097Y1464005D2*
X2311919Y1514245D1*
X2292796Y1464005D1*
X2299981Y1480751D2*
X2323912D1*
X2346537Y1489097D2*
X2374171D1*
X2427912Y1464005D2*
X2408734Y1514245D1*
X2389611Y1464005D1*
X2396796Y1480751D2*
X2420727D1*
X2443352Y1497498D2*
X2469660Y1464005D1*
Y1497498D2*
X2443352Y1464005D1*
X2485099Y1514245D2*
X2487476Y1511868D1*
X2489908Y1514245D1*
X2487476Y1516677D1*
X2485099Y1514245D1*
X2487476Y1497498D2*
Y1464005D1*
X2531655Y1490313D2*
X2529279Y1495121D1*
X2522093Y1497498D1*
X2514908D1*
X2507723Y1495121D1*
X2505347Y1490313D1*
X2507723Y1485560D1*
X2512532Y1483128D1*
X2524470Y1480751D1*
X2529279Y1478375D1*
X2531655Y1473566D1*
Y1471190D1*
X2529279Y1466437D1*
X2522093Y1464005D1*
X2514908D1*
X2507723Y1466437D1*
X2505347Y1471190D1*
X1567796Y1514245D2*
X1586919Y1490313D1*
Y1464005D1*
X1606042Y1514245D2*
X1586919Y1490313D1*
X1621481Y1489097D2*
X1649116D1*
X1702857Y1464005D2*
X1683679Y1514245D1*
X1664555Y1464005D1*
X1671740Y1480751D2*
X1695672D1*
X1718296Y1497498D2*
X1744605Y1464005D1*
Y1497498D2*
X1718296Y1464005D1*
X1760044Y1514245D2*
X1762420Y1511868D1*
X1764852Y1514245D1*
X1762420Y1516677D1*
X1760044Y1514245D1*
X1762420Y1497498D2*
Y1464005D1*
X1806600Y1490313D2*
X1804223Y1495121D1*
X1797038Y1497498D1*
X1789853D1*
X1782668Y1495121D1*
X1780292Y1490313D1*
X1782668Y1485560D1*
X1787477Y1483128D1*
X1799415Y1480751D1*
X1804223Y1478375D1*
X1806600Y1473566D1*
Y1471190D1*
X1804223Y1466437D1*
X1797038Y1464005D1*
X1789853D1*
X1782668Y1466437D1*
X1780292Y1471190D1*
X494937Y2897468D2*
D106*
Y2878366D1*
X512137Y2876465D1*
X510235Y2878366D1*
X508290Y2884115D1*
Y2889818D1*
X510235Y2895566D1*
X514038Y2899413D1*
X519786Y2901314D1*
X523588D1*
X529336Y2899413D1*
X533183Y2895566D1*
X535084Y2889818D1*
Y2884114D1*
X533183Y2878366D1*
X531238Y2876465D1*
X527435Y2874520D1*
X494892Y2913666D2*
X535084Y2928964D1*
X494892Y2944263D1*
X615086Y2874520D2*
X613140Y2878366D1*
X607437Y2884115D1*
X647584Y2884114D1*
X615086Y2896466D2*
X613140Y2900313D1*
X607437Y2906061D1*
X647584D1*
X702586Y2874520D2*
X700640Y2878366D1*
X694937Y2884115D1*
X735084Y2884114D1*
X694937Y2907962D2*
X696838Y2902214D1*
X702586Y2898367D1*
X712137Y2896466D1*
X717885D1*
X727435Y2898367D1*
X733183Y2902214D1*
X735084Y2907962D1*
Y2911764D1*
X733183Y2917512D1*
X727435Y2921315D1*
X717885Y2923261D1*
X712137D1*
X702586Y2921315D1*
X696838Y2917513D1*
X694937Y2911764D1*
Y2907962D1*
X702586Y2921315D2*
X727435Y2898367D1*
X808290Y2899413D2*
X814038Y2897468D1*
X817885Y2893665D1*
X819786Y2887917D1*
Y2886016D1*
X817885Y2880268D1*
X814038Y2876465D1*
X808290Y2874520D1*
X806388D1*
X800640Y2876465D1*
X796838Y2880268D1*
X794937Y2886016D1*
Y2887917D1*
X796838Y2893665D1*
X800640Y2897468D1*
X808290Y2899413D1*
X817885D1*
X827435Y2897468D1*
X833183Y2893665D1*
X835084Y2887917D1*
Y2884114D1*
X833183Y2878366D1*
X829336Y2876465D1*
X908835Y2874520D2*
X906890Y2878366D1*
X901186Y2884115D1*
X941334Y2884114D1*
X901186Y2900313D2*
Y2921315D1*
X916485Y2909863D1*
Y2915611D1*
X918386Y2919414D1*
X920287Y2921315D1*
X926035Y2923261D1*
X929838Y2923260D1*
X935586Y2921315D1*
X939433Y2917512D1*
X941334Y2911764D1*
Y2906016D1*
X939433Y2900313D1*
X937487Y2898411D1*
X933685Y2896466D1*
X1016943Y2903216D2*
X1013140Y2901314D1*
X1009294Y2897468D1*
X1007392Y2893665D1*
Y2886016D1*
X1009294Y2882169D1*
X1013140Y2878366D1*
X1016943Y2876421D1*
X1022691Y2874520D1*
X1032286D1*
X1037990Y2876421D1*
X1041836Y2878366D1*
X1045639Y2882169D1*
X1047584Y2886016D1*
Y2893665D1*
X1045639Y2897468D1*
X1041836Y2901314D1*
X1037990Y2903216D1*
X1032286D1*
Y2893665D1*
X1102586Y2874520D2*
X1100640Y2878366D1*
X1094937Y2884115D1*
X1135084Y2884114D1*
X1104487Y2898411D2*
X1102586D1*
X1098739Y2900313D1*
X1096838Y2902214D1*
X1094937Y2906061D1*
Y2913710D1*
X1096838Y2917513D1*
X1098739Y2919414D1*
X1102586Y2921359D1*
X1106389D1*
X1110235Y2919414D1*
X1115939Y2915611D1*
X1135084Y2896466D1*
Y2923260D1*
X1202586Y2874520D2*
X1200640Y2878366D1*
X1194937Y2884115D1*
X1235084Y2884114D1*
Y2915611D2*
X1194937D1*
X1221687Y2896466D1*
Y2925162D1*
X1310738Y2876465D2*
X1308837D1*
X1304990Y2878366D1*
X1303089Y2880268D1*
X1301187Y2884115D1*
Y2891764D1*
X1303089Y2895566D1*
X1304990Y2897468D1*
X1308837Y2899413D1*
X1312639D1*
X1316486Y2897468D1*
X1322190Y2893665D1*
X1341335Y2874520D1*
Y2901314D1*
Y2921315D2*
X1301187Y2940460D1*
Y2913666D1*
X1404487Y2876465D2*
X1402586D1*
X1398739Y2878366D1*
X1396838Y2880268D1*
X1394937Y2884115D1*
Y2891764D1*
X1396838Y2895566D1*
X1398739Y2897468D1*
X1402586Y2899413D1*
X1406389D1*
X1410235Y2897468D1*
X1415939Y2893665D1*
X1435084Y2874520D1*
Y2901314D1*
X1400641Y2936614D2*
X1396838Y2934712D1*
X1394937Y2928964D1*
Y2925162D1*
X1396838Y2919414D1*
X1402586Y2915567D1*
X1412137Y2913666D1*
X1421687D1*
X1429336Y2915567D1*
X1433183Y2919414D1*
X1435084Y2925162D1*
Y2927063D1*
X1433183Y2932767D1*
X1429336Y2936614D1*
X1423588Y2938515D1*
X1421687D1*
X1415939Y2936614D1*
X1412137Y2932767D1*
X1410235Y2927063D1*
Y2925162D1*
X1412137Y2919414D1*
X1415939Y2915567D1*
X1421687Y2913666D1*
X1510737Y2876465D2*
X1508835D1*
X1504989Y2878366D1*
X1503087Y2880268D1*
X1501186Y2884115D1*
Y2891764D1*
X1503087Y2895566D1*
X1504989Y2897468D1*
X1508835Y2899413D1*
X1512638D1*
X1516485Y2897468D1*
X1522188Y2893665D1*
X1541334Y2874520D1*
Y2901314D1*
X1501186Y2936614D2*
Y2917513D1*
X1518386Y2915611D1*
X1516485Y2917512D1*
X1514539Y2923261D1*
Y2928964D1*
X1516485Y2934712D1*
X1520287Y2938559D1*
X1526035Y2940460D1*
X1529838D1*
X1535586Y2938559D1*
X1539433Y2934712D1*
X1541334Y2928964D1*
Y2923260D1*
X1539433Y2917512D1*
X1537487Y2915611D1*
X1533685Y2913666D1*
X1594937Y2878366D2*
Y2899369D1*
X1610235Y2887917D1*
Y2893665D1*
X1612137Y2897468D1*
X1614038Y2899369D1*
X1619786Y2901314D1*
X1623588D1*
X1629336Y2899369D1*
X1633183Y2895566D1*
X1635084Y2889818D1*
Y2884070D1*
X1633183Y2878366D1*
X1631238Y2876465D1*
X1627435Y2874520D1*
X1594937Y2917513D2*
Y2938515D1*
X1610235Y2927063D1*
Y2932811D1*
X1612137Y2936614D1*
X1614038Y2938515D1*
X1619786Y2940460D1*
X1623588D1*
X1629336Y2938515D1*
X1633183Y2934712D1*
X1635084Y2928964D1*
Y2923216D1*
X1633183Y2917512D1*
X1631238Y2915611D1*
X1627435Y2913666D1*
X1701187Y2878366D2*
Y2899369D1*
X1716486Y2887917D1*
Y2893665D1*
X1718387Y2897468D1*
X1720288Y2899369D1*
X1726037Y2901314D1*
X1729839D1*
X1735587Y2899369D1*
X1739434Y2895566D1*
X1741335Y2889818D1*
Y2884070D1*
X1739434Y2878366D1*
X1737488Y2876465D1*
X1733686Y2874520D1*
X1710738Y2915611D2*
X1708837D1*
X1704990Y2917513D1*
X1703089Y2919414D1*
X1701187Y2923261D1*
Y2930910D1*
X1703089Y2934712D1*
X1704990Y2936614D1*
X1708837Y2938559D1*
X1712639D1*
X1716486Y2936614D1*
X1722190Y2932811D1*
X1741335Y2913666D1*
Y2940460D1*
X1807437Y2878366D2*
Y2899369D1*
X1822735Y2887917D1*
Y2893665D1*
X1824637Y2897468D1*
X1826538Y2899369D1*
X1832286Y2901314D1*
X1836088D1*
X1841836Y2899369D1*
X1845683Y2895566D1*
X1847584Y2889818D1*
Y2884070D1*
X1845683Y2878366D1*
X1843738Y2876465D1*
X1839935Y2874520D1*
X1807437Y2936614D2*
Y2917513D1*
X1824637Y2915611D1*
X1822735Y2917512D1*
X1820790Y2923261D1*
Y2928964D1*
X1822735Y2934712D1*
X1826538Y2938559D1*
X1832286Y2940460D1*
X1836088D1*
X1841836Y2938559D1*
X1845683Y2934712D1*
X1847584Y2928964D1*
Y2923260D1*
X1845683Y2917512D1*
X1843738Y2915611D1*
X1839935Y2913666D1*
X1901186Y2878366D2*
Y2899369D1*
X1916485Y2887917D1*
Y2893665D1*
X1918386Y2897468D1*
X1920287Y2899369D1*
X1926035Y2901314D1*
X1929838D1*
X1935586Y2899369D1*
X1939433Y2895566D1*
X1941334Y2889818D1*
Y2884070D1*
X1939433Y2878366D1*
X1937487Y2876465D1*
X1933684Y2874520D1*
X1941334Y2932811D2*
X1901186D1*
X1927936Y2913666D1*
Y2942362D1*
X2001186Y2878366D2*
Y2899369D1*
X2016485Y2887917D1*
Y2893665D1*
X2018386Y2897468D1*
X2020287Y2899369D1*
X2026035Y2901314D1*
X2029838D1*
X2035586Y2899369D1*
X2039433Y2895566D1*
X2041334Y2889818D1*
Y2884070D1*
X2039433Y2878366D1*
X2037487Y2876465D1*
X2033684Y2874520D1*
X2014539Y2938559D2*
X2020287Y2936614D1*
X2024134Y2932811D1*
X2026035Y2927063D1*
Y2925162D1*
X2024134Y2919414D1*
X2020287Y2915611D1*
X2014539Y2913666D1*
X2012638D1*
X2006890Y2915611D1*
X2003087Y2919414D1*
X2001186Y2925162D1*
Y2927063D1*
X2003087Y2932811D1*
X2006890Y2936614D1*
X2014539Y2938559D1*
X2024134D1*
X2033685Y2936614D1*
X2039433Y2932811D1*
X2041334Y2927063D1*
Y2923260D1*
X2039433Y2917512D1*
X2035586Y2915611D1*
X2101187Y2878366D2*
Y2899369D1*
X2116486Y2887917D1*
Y2893665D1*
X2118387Y2897468D1*
X2120288Y2899369D1*
X2126037Y2901314D1*
X2129839D1*
X2135587Y2899369D1*
X2139434Y2895566D1*
X2141335Y2889818D1*
Y2884070D1*
X2139434Y2878366D1*
X2137488Y2876465D1*
X2133686Y2874520D1*
X2106891Y2936614D2*
X2103089Y2934712D1*
X2101187Y2928964D1*
Y2925162D1*
X2103089Y2919414D1*
X2108837Y2915567D1*
X2118387Y2913666D1*
X2127938D1*
X2135587Y2915567D1*
X2139434Y2919414D1*
X2141335Y2925162D1*
Y2927063D1*
X2139434Y2932767D1*
X2135587Y2936614D1*
X2129839Y2938515D1*
X2127938D1*
X2122190Y2936614D1*
X2118387Y2932767D1*
X2116486Y2927063D1*
Y2925162D1*
X2118387Y2919414D1*
X2122190Y2915567D1*
X2127938Y2913666D1*
X2207392Y2899369D2*
Y2874520D1*
X2247584D1*
Y2899369D1*
X2226538Y2874520D2*
Y2889818D1*
X2207392Y2938515D2*
X2247584D1*
X2207392Y2911720D1*
X2247584D1*
X2294937Y2878366D2*
Y2899369D1*
X2310235Y2887917D1*
Y2893665D1*
X2312137Y2897468D1*
X2314038Y2899369D1*
X2319786Y2901314D1*
X2323588D1*
X2329336Y2899369D1*
X2333183Y2895566D1*
X2335084Y2889818D1*
Y2884070D1*
X2333183Y2878366D1*
X2331238Y2876465D1*
X2327435Y2874520D1*
X2308290Y2913666D2*
X2335084Y2925162D1*
X2308290Y2936614D1*
X2294937Y2952812D2*
Y2973814D1*
X2310235Y2962362D1*
Y2968110D1*
X2312137Y2971913D1*
X2314038Y2973814D1*
X2319786Y2975760D1*
X2323588D1*
X2329336Y2973814D1*
X2333183Y2970012D1*
X2335084Y2964264D1*
Y2958516D1*
X2333183Y2952812D1*
X2331238Y2950910D1*
X2327435Y2948965D1*
X506891Y1705359D2*
X503089Y1703457D1*
X501187Y1697709D1*
Y1693907D1*
X503089Y1688159D1*
X508837Y1684312D1*
X518387Y1682411D1*
X527938D1*
X535587Y1684312D1*
X539434Y1688159D1*
X541335Y1693907D1*
Y1695808D1*
X539434Y1701512D1*
X535587Y1705359D1*
X529839Y1707260D1*
X527938D1*
X522190Y1705359D1*
X518387Y1701512D1*
X516486Y1695808D1*
Y1693907D1*
X518387Y1688159D1*
X522190Y1684312D1*
X527938Y1682411D1*
X635084Y1688115D2*
X594937Y1707261D1*
Y1680466D1*
X701186Y1690060D2*
X703087Y1684356D1*
X706890Y1682411D1*
X710737D1*
X714539Y1684356D1*
X716485Y1688159D1*
X718386Y1695808D1*
X720287Y1701556D1*
X724134Y1705358D1*
X727936Y1707260D1*
X733685D1*
X737487Y1705358D1*
X739433Y1703457D1*
X741334Y1697709D1*
Y1690060D1*
X739433Y1684356D1*
X737487Y1682411D1*
X733684Y1680509D1*
X727936D1*
X724134Y1682411D1*
X720287Y1686257D1*
X718386Y1691961D1*
X716485Y1699610D1*
X714539Y1703457D1*
X710737Y1705358D1*
X706890D1*
X703087Y1703457D1*
X701186Y1697709D1*
Y1690060D1*
X808835Y1658520D2*
X806890Y1662366D1*
X801186Y1668115D1*
X841334Y1668114D1*
X801186Y1703414D2*
Y1684313D1*
X818386Y1682411D1*
X816485Y1684313D1*
X814539Y1690061D1*
Y1695764D1*
X816485Y1701512D1*
X820287Y1705359D1*
X826035Y1707261D1*
X829838Y1707260D1*
X835586Y1705359D1*
X839433Y1701512D1*
X841334Y1695764D1*
Y1690061D1*
X839433Y1684313D1*
X837487Y1682411D1*
X833685Y1680466D1*
X904487Y1682411D2*
X902586D1*
X898739Y1684313D1*
X896838Y1686214D1*
X894937Y1690061D1*
Y1697710D1*
X896838Y1701513D1*
X898739Y1703414D1*
X902586Y1705359D1*
X906389D1*
X910235Y1703414D1*
X915939Y1699611D1*
X935084Y1680466D1*
Y1707261D1*
X1001186Y1691962D2*
X1003087Y1686214D1*
X1008835Y1682367D1*
X1018386Y1680466D1*
X1024134D1*
X1033684Y1682367D1*
X1039433Y1686214D1*
X1041334Y1691962D1*
Y1695764D1*
X1039433Y1701512D1*
X1033685Y1705315D1*
X1024134Y1707261D1*
X1018386D1*
X1008835Y1705315D1*
X1003087Y1701513D1*
X1001186Y1695765D1*
Y1691962D1*
X1008835Y1705315D2*
X1033684Y1682367D1*
X1141334Y1697710D2*
X1101186D1*
X1127936Y1678564D1*
Y1707260D1*
X1202586Y1660465D2*
X1200640Y1664311D1*
X1194937Y1670059D1*
X1235084D1*
X1200641Y1705359D2*
X1196838Y1703457D1*
X1194937Y1697709D1*
Y1693907D1*
X1196838Y1688159D1*
X1202586Y1684312D1*
X1212137Y1682411D1*
X1221687D1*
X1229336Y1684312D1*
X1233183Y1688159D1*
X1235084Y1693907D1*
Y1695808D1*
X1233183Y1701512D1*
X1229336Y1705359D1*
X1223588Y1707260D1*
X1221687D1*
X1215939Y1705359D1*
X1212137Y1701512D1*
X1210235Y1695808D1*
Y1693907D1*
X1212137Y1688159D1*
X1215939Y1684312D1*
X1221687Y1682411D1*
X1302586Y1658520D2*
X1300640Y1662366D1*
X1294937Y1668115D1*
X1335084Y1668114D1*
Y1688115D2*
X1294937Y1707261D1*
Y1680466D1*
X1394937Y1703414D2*
Y1684313D1*
X1412137Y1682411D1*
X1410235Y1684313D1*
X1408290Y1690061D1*
Y1695765D1*
X1410235Y1701513D1*
X1414038Y1705359D1*
X1419786Y1707261D1*
X1423588D1*
X1429336Y1705359D1*
X1433183Y1701512D1*
X1435084Y1695764D1*
Y1690061D1*
X1433183Y1684313D1*
X1431238Y1682411D1*
X1427435Y1680466D1*
X1508837Y1658563D2*
X1506891Y1662410D1*
X1501187Y1668158D1*
X1541335D1*
X1501187Y1690060D2*
X1503089Y1684356D1*
X1506891Y1682410D1*
X1510738D1*
X1514540Y1684356D1*
X1516486Y1688158D1*
X1518387Y1695808D1*
X1520288Y1701556D1*
X1524135Y1705358D1*
X1527938Y1707260D1*
X1533686D1*
X1537488Y1705358D1*
X1539434Y1703457D1*
X1541335Y1697709D1*
Y1690060D1*
X1539434Y1684356D1*
X1537488Y1682410D1*
X1533686Y1680509D1*
X1527938D1*
X1524135Y1682410D1*
X1520288Y1686257D1*
X1518387Y1691961D1*
X1516486Y1699610D1*
X1514540Y1703457D1*
X1510738Y1705358D1*
X1506891D1*
X1503089Y1703457D1*
X1501187Y1697709D1*
Y1690060D1*
X1608837Y1660420D2*
X1606891Y1664267D1*
X1601187Y1670015D1*
X1641335D1*
X1614540Y1707260D2*
X1620288Y1705314D1*
X1624135Y1701511D1*
X1626037Y1695763D1*
Y1693862D1*
X1624135Y1688114D1*
X1620288Y1684312D1*
X1614540Y1682366D1*
X1612639D1*
X1606891Y1684312D1*
X1603089Y1688114D1*
X1601187Y1693862D1*
Y1695763D1*
X1603089Y1701512D1*
X1606891Y1705314D1*
X1614540Y1707260D1*
X1624135Y1707259D1*
X1633686Y1705314D1*
X1639434Y1701511D1*
X1641335Y1695763D1*
Y1691961D1*
X1639434Y1686213D1*
X1635587Y1684312D1*
X1710692Y1707260D2*
X1706890Y1705359D1*
X1703043Y1701512D1*
X1701142Y1697710D1*
Y1690060D1*
X1703043Y1686214D1*
X1706890Y1682411D1*
X1710692Y1680466D1*
X1716440Y1678564D1*
X1726035D1*
X1731739Y1680466D1*
X1735586Y1682411D1*
X1739388Y1686214D1*
X1741334Y1690060D1*
Y1697710D1*
X1739388Y1701512D1*
X1735586Y1705359D1*
X1731739Y1707260D1*
X1726035D1*
Y1697710D1*
X1810738Y1660465D2*
X1808837D1*
X1804990Y1662366D1*
X1803089Y1664268D1*
X1801187Y1668115D1*
Y1675764D1*
X1803089Y1679566D1*
X1804990Y1681468D1*
X1808837Y1683413D1*
X1812639D1*
X1816486Y1681468D1*
X1822190Y1677665D1*
X1841335Y1658520D1*
Y1685314D1*
X1808837Y1697666D2*
X1806891Y1701513D1*
X1801187Y1707261D1*
X1841335Y1707260D1*
X1907437Y1684313D2*
Y1705315D1*
X1922735Y1693863D1*
Y1699611D1*
X1924637Y1703414D1*
X1926538Y1705315D1*
X1932286Y1707261D1*
X1936088D1*
X1941836Y1705315D1*
X1945683Y1701512D1*
X1947584Y1695764D1*
Y1690016D1*
X1945683Y1684313D1*
X1943738Y1682411D1*
X1939935Y1680466D1*
X2008835Y1697665D2*
X2006890Y1701512D1*
X2001186Y1707260D1*
X2041334D1*
X2110738Y1643264D2*
X2108837D1*
X2104990Y1645166D1*
X2103089Y1647067D1*
X2101187Y1650914D1*
Y1658563D1*
X2103089Y1662366D1*
X2104990Y1664267D1*
X2108837Y1666212D1*
X2112639D1*
X2116486Y1664267D1*
X2122190Y1660464D1*
X2141335Y1641319D1*
Y1668114D1*
X2110738Y1682410D2*
X2108837D1*
X2104990Y1684312D1*
X2103089Y1686213D1*
X2101187Y1690060D1*
Y1697709D1*
X2103089Y1701512D1*
X2104990Y1703413D1*
X2108837Y1705358D1*
X2112639D1*
X2116486Y1703413D1*
X2122190Y1699610D1*
X2141335Y1680465D1*
Y1707260D1*
X2210738Y1643264D2*
X2208837D1*
X2204990Y1645166D1*
X2203089Y1647067D1*
X2201187Y1650914D1*
Y1658563D1*
X2203089Y1662366D1*
X2204990Y1664267D1*
X2208837Y1666212D1*
X2212639D1*
X2216486Y1664267D1*
X2222190Y1660464D1*
X2241335Y1641319D1*
Y1668114D1*
X2201187Y1684312D2*
Y1705314D1*
X2216486Y1693862D1*
Y1699610D1*
X2218387Y1703413D1*
X2220288Y1705314D1*
X2226037Y1707260D1*
X2229839D1*
X2235587Y1705314D1*
X2239434Y1701512D1*
X2241335Y1695764D1*
Y1690015D1*
X2239434Y1684312D1*
X2237488Y1682410D1*
X2233686Y1680465D1*
X2310692Y1707260D2*
X2306890Y1705359D1*
X2303043Y1701512D1*
X2301142Y1697710D1*
Y1690060D1*
X2303043Y1686214D1*
X2306890Y1682411D1*
X2310692Y1680466D1*
X2316440Y1678564D1*
X2326035D1*
X2331739Y1680466D1*
X2335586Y1682411D1*
X2339388Y1686214D1*
X2341334Y1690060D1*
Y1697710D1*
X2339388Y1701512D1*
X2335586Y1705359D1*
X2331739Y1707260D1*
X2326035D1*
Y1697710D1*
X1731201Y3220723D2*
Y3180531D1*
X1754149D1*
X1766500Y3220723D2*
X1768401Y3218822D1*
X1770347Y3220723D1*
X1768401Y3222669D1*
X1766500Y3220723D1*
X1768401Y3207326D2*
Y3180531D1*
X1782698Y3207326D2*
Y3180531D1*
Y3199676D2*
X1788446Y3205424D1*
X1792293Y3207326D1*
X1797997D1*
X1801844Y3205424D1*
X1803745Y3199676D1*
Y3180531D1*
Y3199676D2*
X1809493Y3205424D1*
X1813340Y3207326D1*
X1819043D1*
X1822890Y3205424D1*
X1824836Y3199676D1*
Y3180531D1*
X1837187Y3220723D2*
X1839088Y3218822D1*
X1841034Y3220723D1*
X1839088Y3222669D1*
X1837187Y3220723D1*
X1839088Y3207326D2*
Y3180531D1*
X1859133Y3220723D2*
Y3188180D1*
X1861035Y3182477D1*
X1864881Y3180531D1*
X1868684D1*
X1853385Y3207326D2*
X1866783D1*
X1946711Y3214975D2*
X1942908Y3218822D1*
X1937160Y3220723D1*
X1929511D1*
X1923763Y3218822D1*
X1919916Y3214975D1*
Y3211172D1*
X1921861Y3207326D1*
X1923763Y3205424D1*
X1927565Y3203523D1*
X1939061Y3199676D1*
X1942908Y3197775D1*
X1944809Y3195830D1*
X1946711Y3192027D1*
Y3186279D1*
X1942908Y3182477D1*
X1937160Y3180531D1*
X1929511D1*
X1923763Y3182477D1*
X1919916Y3186279D1*
X1959062Y3207326D2*
X1966711Y3180531D1*
X1974361Y3207326D1*
X1982010Y3180531D1*
X1989659Y3207326D1*
X2992796Y1514245D2*
D107*
Y1464005D1*
X3014351D1*
X3021536Y1466437D1*
X3023912Y1468813D1*
X3026289Y1473566D1*
Y1480751D1*
X3023912Y1485560D1*
X3021536Y1487936D1*
X3014351Y1490313D1*
X3021536Y1492745D1*
X3023912Y1495121D1*
X3026289Y1499875D1*
Y1504683D1*
X3023912Y1509436D1*
X3021536Y1511868D1*
X3014351Y1514245D1*
X2992796D1*
Y1490313D2*
X3014351D1*
X3041728Y1489097D2*
X3069363D1*
X3123104Y1464005D2*
X3103925Y1514245D1*
X3084802Y1464005D1*
X3091987Y1480751D2*
X3115919D1*
X3138543Y1497498D2*
X3164851Y1464005D1*
Y1497498D2*
X3138543Y1464005D1*
X3180291Y1514245D2*
X3182667Y1511868D1*
X3185099Y1514245D1*
X3182667Y1516677D1*
X3180291Y1514245D1*
X3182667Y1497498D2*
Y1464005D1*
X3226847Y1490313D2*
X3224470Y1495121D1*
X3217285Y1497498D1*
X3210100D1*
X3202915Y1495121D1*
X3200538Y1490313D1*
X3202915Y1485560D1*
X3207723Y1483128D1*
X3219662Y1480751D1*
X3224470Y1478375D1*
X3226847Y1473566D1*
Y1471190D1*
X3224470Y1466437D1*
X3217285Y1464005D1*
X3210100D1*
X3202915Y1466437D1*
X3200538Y1471190D1*
X1229443Y3043154D2*
D106*
X1225640Y3041253D1*
X1221794Y3037406D1*
X1219892Y3033603D1*
Y3025954D1*
X1221794Y3022107D1*
X1225640Y3018305D1*
X1229443Y3016359D1*
X1235191Y3014458D1*
X1244786D1*
X1250490Y3016359D1*
X1254336Y3018305D1*
X1258139Y3022107D1*
X1260084Y3025954D1*
Y3033603D1*
X1258139Y3037406D1*
X1254336Y3041253D1*
X1250490Y3043154D1*
X1244786D1*
Y3033603D1*
X1233290Y3055505D2*
X1260084D1*
X1240939D2*
X1235191Y3061253D1*
X1233290Y3065100D1*
Y3070804D1*
X1235191Y3074651D1*
X1240939Y3076552D1*
X1260084D1*
X1219892Y3111851D2*
X1260084D1*
X1239038D2*
X1235191Y3108049D1*
X1233290Y3104202D1*
Y3098454D1*
X1235191Y3094651D1*
X1239038Y3090805D1*
X1244786Y3088903D1*
X1248588D1*
X1254336Y3090805D1*
X1258139Y3094651D1*
X1260084Y3098454D1*
Y3104202D1*
X1258139Y3108049D1*
X1254336Y3111851D1*
X1429443Y3043154D2*
X1425640Y3041253D1*
X1421794Y3037406D1*
X1419892Y3033603D1*
Y3025954D1*
X1421794Y3022107D1*
X1425640Y3018305D1*
X1429443Y3016359D1*
X1435191Y3014458D1*
X1444786D1*
X1450490Y3016359D1*
X1454336Y3018305D1*
X1458139Y3022107D1*
X1460084Y3025954D1*
Y3033603D1*
X1458139Y3037406D1*
X1454336Y3041253D1*
X1450490Y3043154D1*
X1444786D1*
Y3033603D1*
X1433290Y3055505D2*
X1460084D1*
X1440939D2*
X1435191Y3061253D1*
X1433290Y3065100D1*
Y3070804D1*
X1435191Y3074651D1*
X1440939Y3076552D1*
X1460084D1*
X1419892Y3111851D2*
X1460084D1*
X1439038D2*
X1435191Y3108049D1*
X1433290Y3104202D1*
Y3098454D1*
X1435191Y3094651D1*
X1439038Y3090805D1*
X1444786Y3088903D1*
X1448588D1*
X1454336Y3090805D1*
X1458139Y3094651D1*
X1460084Y3098454D1*
Y3104202D1*
X1458139Y3108049D1*
X1454336Y3111851D1*
X1629443Y3043154D2*
X1625640Y3041253D1*
X1621794Y3037406D1*
X1619892Y3033603D1*
Y3025954D1*
X1621794Y3022107D1*
X1625640Y3018305D1*
X1629443Y3016359D1*
X1635191Y3014458D1*
X1644786D1*
X1650490Y3016359D1*
X1654336Y3018305D1*
X1658139Y3022107D1*
X1660084Y3025954D1*
Y3033603D1*
X1658139Y3037406D1*
X1654336Y3041253D1*
X1650490Y3043154D1*
X1644786D1*
Y3033603D1*
X1633290Y3055505D2*
X1660084D1*
X1640939D2*
X1635191Y3061253D1*
X1633290Y3065100D1*
Y3070804D1*
X1635191Y3074651D1*
X1640939Y3076552D1*
X1660084D1*
X1619892Y3111851D2*
X1660084D1*
X1639038D2*
X1635191Y3108049D1*
X1633290Y3104202D1*
Y3098454D1*
X1635191Y3094651D1*
X1639038Y3090805D1*
X1644786Y3088903D1*
X1648588D1*
X1654336Y3090805D1*
X1658139Y3094651D1*
X1660084Y3098454D1*
Y3104202D1*
X1658139Y3108049D1*
X1654336Y3111851D1*
X2704443Y3028216D2*
X2700640Y3026314D1*
X2696794Y3022468D1*
X2694892Y3018665D1*
Y3011016D1*
X2696794Y3007169D1*
X2700640Y3003366D1*
X2704443Y3001421D1*
X2710191Y2999520D1*
X2719786D1*
X2725490Y3001421D1*
X2729336Y3003366D1*
X2733139Y3007169D1*
X2735084Y3011016D1*
Y3018665D1*
X2733139Y3022468D1*
X2729336Y3026314D1*
X2725490Y3028216D1*
X2719786D1*
Y3018665D1*
X2708290Y3040567D2*
X2735084D1*
X2715939D2*
X2710191Y3046315D1*
X2708290Y3050162D1*
Y3055866D1*
X2710191Y3059712D1*
X2715939Y3061614D1*
X2735084D1*
X2694892Y3096913D2*
X2735084D1*
X2714038D2*
X2710191Y3093110D1*
X2708290Y3089264D1*
Y3083516D1*
X2710191Y3079713D1*
X2714038Y3075866D1*
X2719786Y3073965D1*
X2723588D1*
X2729336Y3075866D1*
X2733139Y3079713D1*
X2735084Y3083516D1*
Y3089264D1*
X2733139Y3093110D1*
X2729336Y3096913D1*
X2607437Y3047468D2*
Y3028366D1*
X2624637Y3026465D1*
X2622735Y3028366D1*
X2620790Y3034115D1*
Y3039818D1*
X2622735Y3045566D1*
X2626538Y3049413D1*
X2632286Y3051314D1*
X2636088D1*
X2641836Y3049413D1*
X2645683Y3045566D1*
X2647584Y3039818D1*
Y3034114D1*
X2645683Y3028366D1*
X2643738Y3026465D1*
X2639935Y3024520D1*
X2607392Y3063666D2*
X2647584Y3078964D1*
X2607392Y3094263D1*
X2515939Y2974520D2*
Y2991764D1*
X2514038Y2997468D1*
X2512092Y2999413D1*
X2508290Y3001314D1*
X2502542D1*
X2498739Y2999413D1*
X2496794Y2997468D1*
X2494892Y2991764D1*
Y2974520D1*
X2535084D1*
X2494892Y3013666D2*
X2535084Y3023260D1*
X2494892Y3032811D1*
X2535084Y3042362D1*
X2494892Y3051956D1*
X2535084Y3094905D2*
X2494892D1*
X2535084Y3079606D1*
X2494892Y3064308D1*
X2535084D1*
X3141943Y3028216D2*
X3138140Y3026314D1*
X3134294Y3022468D1*
X3132392Y3018665D1*
Y3011016D1*
X3134294Y3007169D1*
X3138140Y3003366D1*
X3141943Y3001421D1*
X3147691Y2999520D1*
X3157286D1*
X3162990Y3001421D1*
X3166836Y3003366D1*
X3170639Y3007169D1*
X3172584Y3011016D1*
Y3018665D1*
X3170639Y3022468D1*
X3166836Y3026314D1*
X3162990Y3028216D1*
X3157286D1*
Y3018665D1*
X3145790Y3040567D2*
X3172584D1*
X3153439D2*
X3147691Y3046315D1*
X3145790Y3050162D1*
Y3055866D1*
X3147691Y3059712D1*
X3153439Y3061614D1*
X3172584D1*
X3132392Y3096913D2*
X3172584D1*
X3151538D2*
X3147691Y3093110D1*
X3145790Y3089264D1*
Y3083516D1*
X3147691Y3079713D1*
X3151538Y3075866D1*
X3157286Y3073965D1*
X3161088D1*
X3166836Y3075866D1*
X3170639Y3079713D1*
X3172584Y3083516D1*
Y3089264D1*
X3170639Y3093110D1*
X3166836Y3096913D1*
X2506201Y2933223D2*
X2532995D1*
X2506201Y2893031D1*
X2532995D1*
X2611022Y2927475D2*
X2607220Y2931322D1*
X2601472Y2933223D1*
X2593822D1*
X2588074Y2931322D1*
X2584228Y2927475D1*
Y2923672D1*
X2586173Y2919826D1*
X2588074Y2917924D1*
X2591877Y2916023D1*
X2603373Y2912176D1*
X2607220Y2910275D1*
X2609121Y2908330D1*
X2611022Y2904527D1*
Y2898779D1*
X2607220Y2894977D1*
X2601472Y2893031D1*
X2593822D1*
X2588074Y2894977D1*
X2584228Y2898779D1*
X2623374Y2908330D2*
X2646322D1*
Y2912176D1*
X2644420Y2916023D1*
X2642519Y2917924D1*
X2638672Y2919826D1*
X2632924D1*
X2629122Y2917924D1*
X2625275Y2914078D1*
X2623374Y2908330D1*
Y2904527D1*
X2625275Y2898779D1*
X2629122Y2894977D1*
X2632924Y2893031D1*
X2638672D1*
X2642519Y2894977D1*
X2646322Y2898779D1*
X2658673Y2919826D2*
Y2893031D1*
Y2908330D2*
X2660618Y2914078D1*
X2664421Y2917924D1*
X2668268Y2919826D1*
X2674016D1*
X2686367D2*
X2697863Y2893031D1*
X2709315Y2919826D1*
X2731217D2*
X2727414Y2917924D1*
X2723568Y2914078D1*
X2721666Y2908330D1*
Y2904527D1*
X2723568Y2898779D1*
X2727414Y2894977D1*
X2731217Y2893031D1*
X2736965D1*
X2740812Y2894977D1*
X2744614Y2898779D1*
X2746560Y2904527D1*
Y2908330D1*
X2744614Y2914078D1*
X2740812Y2917924D1*
X2736965Y2919826D1*
X2731217D1*
X3044937Y3047468D2*
Y3028366D1*
X3062137Y3026465D1*
X3060235Y3028366D1*
X3058290Y3034115D1*
Y3039818D1*
X3060235Y3045566D1*
X3064038Y3049413D1*
X3069786Y3051314D1*
X3073588D1*
X3079336Y3049413D1*
X3083183Y3045566D1*
X3085084Y3039818D1*
Y3034114D1*
X3083183Y3028366D1*
X3081238Y3026465D1*
X3077435Y3024520D1*
X3044892Y3063666D2*
X3085084Y3078964D1*
X3044892Y3094263D1*
X2953439Y2974520D2*
Y2991764D1*
X2951538Y2997468D1*
X2949592Y2999413D1*
X2945790Y3001314D1*
X2940042D1*
X2936239Y2999413D1*
X2934294Y2997468D1*
X2932392Y2991764D1*
Y2974520D1*
X2972584D1*
X2932392Y3013666D2*
X2972584Y3023260D1*
X2932392Y3032811D1*
X2972584Y3042362D1*
X2932392Y3051956D1*
X2972584Y3094905D2*
X2932392D1*
X2972584Y3079606D1*
X2932392Y3064308D1*
X2972584D1*
X2959897Y2923672D2*
X2957995Y2927475D1*
X2954149Y2931322D1*
X2950346Y2933223D1*
X2942697D1*
X2938850Y2931322D1*
X2935047Y2927475D1*
X2933102Y2923672D1*
X2931201Y2917924D1*
Y2908330D1*
X2933102Y2902626D1*
X2935047Y2898779D1*
X2938850Y2894977D1*
X2942697Y2893031D1*
X2950346D1*
X2954149Y2894977D1*
X2957995Y2898779D1*
X2959897Y2902626D1*
X3037923Y2927475D2*
X3034121Y2931322D1*
X3028373Y2933223D1*
X3020724D1*
X3014976Y2931322D1*
X3011129Y2927475D1*
Y2923672D1*
X3013074Y2919826D1*
X3014976Y2917924D1*
X3018778Y2916023D1*
X3030274Y2912176D1*
X3034121Y2910275D1*
X3036022Y2908330D1*
X3037923Y2904527D1*
Y2898779D1*
X3034121Y2894977D1*
X3028373Y2893031D1*
X3020724D1*
X3014976Y2894977D1*
X3011129Y2898779D1*
X3050275Y2908330D2*
X3073223D1*
Y2912176D1*
X3071322Y2916023D1*
X3069420Y2917924D1*
X3065573Y2919826D1*
X3059825D1*
X3056023Y2917924D1*
X3052176Y2914078D1*
X3050275Y2908330D1*
Y2904527D1*
X3052176Y2898779D1*
X3056023Y2894977D1*
X3059825Y2893031D1*
X3065573D1*
X3069420Y2894977D1*
X3073223Y2898779D1*
X3085574Y2919826D2*
Y2893031D1*
Y2908330D2*
X3087520Y2914078D1*
X3091322Y2917924D1*
X3095169Y2919826D1*
X3100917D1*
X3113268D2*
X3124764Y2893031D1*
X3136216Y2919826D1*
X3158118D2*
X3154316Y2917924D1*
X3150469Y2914078D1*
X3148568Y2908330D1*
Y2904527D1*
X3150469Y2898779D1*
X3154316Y2894977D1*
X3158118Y2893031D1*
X3163866D1*
X3167713Y2894977D1*
X3171516Y2898779D1*
X3173461Y2904527D1*
Y2908330D1*
X3171516Y2914078D1*
X3167713Y2917924D1*
X3163866Y2919826D1*
X3158118D1*
X2466649Y1989975D2*
X2464747Y1993778D1*
X2458999Y1995679D1*
X2455197D1*
X2449449Y1993778D1*
X2445602Y1988030D1*
X2443701Y1978479D1*
Y1968928D1*
X2445602Y1961279D1*
X2449449Y1957432D1*
X2455197Y1955531D1*
X2457098D1*
X2462802Y1957432D1*
X2466649Y1961279D1*
X2468550Y1967027D1*
Y1968928D1*
X2466649Y1974676D1*
X2462802Y1978479D1*
X2457098Y1980380D1*
X2455197D1*
X2449449Y1978479D1*
X2445602Y1974676D1*
X2443701Y1968928D1*
X2550423Y1955531D2*
X2535081Y1995723D1*
X2519782Y1955531D1*
X2525530Y1968928D2*
X2544675D1*
X2562775Y1982326D2*
X2583822Y1955531D1*
Y1982326D2*
X2562775Y1955531D1*
X2596173Y1995723D2*
X2598074Y1993822D1*
X2600020Y1995723D1*
X2598074Y1997669D1*
X2596173Y1995723D1*
X2598074Y1982326D2*
Y1955531D1*
X2633418Y1976578D2*
X2631516Y1980424D1*
X2625768Y1982326D1*
X2620020D1*
X2614272Y1980424D1*
X2612371Y1976578D1*
X2614272Y1972775D1*
X2618119Y1970830D1*
X2627670Y1968928D1*
X2631516Y1967027D1*
X2633418Y1963180D1*
Y1961279D1*
X2631516Y1957477D1*
X2625768Y1955531D1*
X2620020D1*
X2614272Y1957477D1*
X2612371Y1961279D1*
X2713346Y1986172D2*
X2711445Y1989975D1*
X2707598Y1993822D1*
X2703795Y1995723D1*
X2696146D1*
X2692299Y1993822D1*
X2688497Y1989975D1*
X2686551Y1986172D1*
X2684650Y1980424D1*
Y1970830D1*
X2686551Y1965126D1*
X2688497Y1961279D1*
X2692299Y1957477D1*
X2696146Y1955531D1*
X2703795D1*
X2707598Y1957477D1*
X2711445Y1961279D1*
X2713346Y1965126D1*
X2735248Y1982326D2*
X2731445Y1980424D1*
X2727599Y1976578D1*
X2725697Y1970830D1*
Y1967027D1*
X2727599Y1961279D1*
X2731445Y1957477D1*
X2735248Y1955531D1*
X2740996D1*
X2744843Y1957477D1*
X2748645Y1961279D1*
X2750591Y1967027D1*
Y1970830D1*
X2748645Y1976578D1*
X2744843Y1980424D1*
X2740996Y1982326D1*
X2735248D1*
X2762942D2*
Y1955531D1*
Y1974676D2*
X2768690Y1980424D1*
X2772537Y1982326D1*
X2778241D1*
X2782087Y1980424D1*
X2783989Y1974676D1*
Y1955531D1*
X2802088Y1995723D2*
Y1963180D1*
X2803989Y1957477D1*
X2807836Y1955531D1*
X2811639D1*
X2796340Y1982326D2*
X2809737D1*
X2823990D2*
Y1955531D1*
Y1970830D2*
X2825936Y1976578D1*
X2829738Y1980424D1*
X2833585Y1982326D1*
X2839333D1*
X2861235D2*
X2857432Y1980424D1*
X2853586Y1976578D1*
X2851684Y1970830D1*
Y1967027D1*
X2853586Y1961279D1*
X2857432Y1957477D1*
X2861235Y1955531D1*
X2866983D1*
X2870830Y1957477D1*
X2874632Y1961279D1*
X2876578Y1967027D1*
Y1970830D1*
X2874632Y1976578D1*
X2870830Y1980424D1*
X2866983Y1982326D1*
X2861235D1*
X2888929Y1995723D2*
Y1955531D1*
X2901280Y1995723D2*
Y1955531D1*
X2913632Y1970830D2*
X2936580D1*
Y1974676D1*
X2934679Y1978523D1*
X2932777Y1980424D1*
X2928930Y1982326D1*
X2923182D1*
X2919380Y1980424D1*
X2915533Y1976578D1*
X2913632Y1970830D1*
Y1967027D1*
X2915533Y1961279D1*
X2919380Y1957477D1*
X2923182Y1955531D1*
X2928930D1*
X2932777Y1957477D1*
X2936580Y1961279D1*
X2948931Y1982326D2*
Y1955531D1*
Y1970830D2*
X2950877Y1976578D1*
X2954679Y1980424D1*
X2958526Y1982326D1*
X2964274D1*
X2462846Y1880531D2*
Y1920679D1*
X2443701Y1893928D1*
X2472397D1*
X2550423Y1914975D2*
X2546621Y1918822D1*
X2540873Y1920723D1*
X2533224D1*
X2527476Y1918822D1*
X2523629Y1914975D1*
Y1911172D1*
X2525574Y1907326D1*
X2527476Y1905424D1*
X2531278Y1903523D1*
X2542774Y1899676D1*
X2546621Y1897775D1*
X2548522Y1895830D1*
X2550423Y1892027D1*
Y1886279D1*
X2546621Y1882477D1*
X2540873Y1880531D1*
X2533224D1*
X2527476Y1882477D1*
X2523629Y1886279D1*
X2568523Y1920723D2*
Y1888180D1*
X2570424Y1882477D1*
X2574271Y1880531D1*
X2578073D1*
X2562775Y1907326D2*
X2576172D1*
X2590425Y1895830D2*
X2613373D1*
Y1899676D1*
X2611472Y1903523D1*
X2609570Y1905424D1*
X2605724Y1907326D1*
X2599975D1*
X2596173Y1905424D1*
X2592326Y1901578D1*
X2590425Y1895830D1*
Y1892027D1*
X2592326Y1886279D1*
X2596173Y1882477D1*
X2599975Y1880531D1*
X2605724D1*
X2609570Y1882477D1*
X2613373Y1886279D1*
X2625724Y1907326D2*
Y1867134D1*
Y1901578D2*
X2629571Y1905380D1*
X2633374Y1907326D1*
X2639122D1*
X2642968Y1905380D1*
X2646771Y1901578D1*
X2648716Y1895830D1*
Y1891983D1*
X2646771Y1886279D1*
X2642968Y1882432D1*
X2639122Y1880531D1*
X2633374D1*
X2629571Y1882432D1*
X2625724Y1886279D1*
X2661068Y1907326D2*
Y1867134D1*
Y1901578D2*
X2664914Y1905380D1*
X2668717Y1907326D1*
X2674465D1*
X2678312Y1905380D1*
X2682114Y1901578D1*
X2684060Y1895830D1*
Y1891983D1*
X2682114Y1886279D1*
X2678312Y1882432D1*
X2674465Y1880531D1*
X2668717D1*
X2664914Y1882432D1*
X2661068Y1886279D1*
X2696411Y1895830D2*
X2719359D1*
Y1899676D1*
X2717458Y1903523D1*
X2715557Y1905424D1*
X2711710Y1907326D1*
X2705962D1*
X2702159Y1905424D1*
X2698313Y1901578D1*
X2696411Y1895830D1*
Y1892027D1*
X2698313Y1886279D1*
X2702159Y1882477D1*
X2705962Y1880531D1*
X2711710D1*
X2715557Y1882477D1*
X2719359Y1886279D1*
X2731711Y1907326D2*
Y1880531D1*
Y1895830D2*
X2733656Y1901578D1*
X2737459Y1905424D1*
X2741305Y1907326D1*
X2747053D1*
X2759405Y1880531D2*
X2786199Y1920679D1*
X2800496Y1911128D2*
Y1913030D1*
X2802398Y1916876D1*
X2804299Y1918778D1*
X2808146Y1920679D1*
X2815795D1*
X2819597Y1918778D1*
X2821499Y1916876D1*
X2823444Y1913030D1*
Y1909227D1*
X2821499Y1905380D1*
X2817696Y1899676D1*
X2798551Y1880531D1*
X2825346D1*
X2903372Y1914975D2*
X2899570Y1918822D1*
X2893822Y1920723D1*
X2886172D1*
X2880424Y1918822D1*
X2876578Y1914975D1*
Y1911172D1*
X2878523Y1907326D1*
X2880424Y1905424D1*
X2884227Y1903523D1*
X2895723Y1899676D1*
X2899570Y1897775D1*
X2901471Y1895830D1*
X2903372Y1892027D1*
Y1886279D1*
X2899570Y1882477D1*
X2893822Y1880531D1*
X2886172D1*
X2880424Y1882477D1*
X2876578Y1886279D1*
X2915724Y1895830D2*
X2938672D1*
Y1899676D1*
X2936770Y1903523D1*
X2934869Y1905424D1*
X2931022Y1907326D1*
X2925274D1*
X2921472Y1905424D1*
X2917625Y1901578D1*
X2915724Y1895830D1*
Y1892027D1*
X2917625Y1886279D1*
X2921472Y1882477D1*
X2925274Y1880531D1*
X2931022D1*
X2934869Y1882477D1*
X2938672Y1886279D1*
X2951023Y1907326D2*
Y1880531D1*
Y1895830D2*
X2952969Y1901578D1*
X2956771Y1905424D1*
X2960618Y1907326D1*
X2966366D1*
X2978717D2*
X2990213Y1880531D1*
X3001665Y1907326D1*
X3023567D2*
X3019765Y1905424D1*
X3015918Y1901578D1*
X3014017Y1895830D1*
Y1892027D1*
X3015918Y1886279D1*
X3019765Y1882477D1*
X3023567Y1880531D1*
X3029315D1*
X3033162Y1882477D1*
X3036964Y1886279D1*
X3038910Y1892027D1*
Y1895830D1*
X3036964Y1901578D1*
X3033162Y1905424D1*
X3029315Y1907326D1*
X3023567D1*
X2472397Y1836172D2*
X2470495Y1839975D1*
X2466649Y1843822D1*
X2462846Y1845723D1*
X2455197D1*
X2451350Y1843822D1*
X2447547Y1839975D1*
X2445602Y1836172D1*
X2443701Y1830424D1*
Y1820830D1*
X2445602Y1815126D1*
X2447547Y1811279D1*
X2451350Y1807477D1*
X2455197Y1805531D1*
X2462846D1*
X2466649Y1807477D1*
X2470495Y1811279D1*
X2472397Y1815126D1*
X2494299Y1832326D2*
X2490496Y1830424D1*
X2486649Y1826578D1*
X2484748Y1820830D1*
Y1817027D1*
X2486649Y1811279D1*
X2490496Y1807477D1*
X2494299Y1805531D1*
X2500047D1*
X2503893Y1807477D1*
X2507696Y1811279D1*
X2509641Y1817027D1*
Y1820830D1*
X2507696Y1826578D1*
X2503893Y1830424D1*
X2500047Y1832326D1*
X2494299D1*
X2521993D2*
Y1792134D1*
Y1826578D2*
X2525840Y1830380D1*
X2529642Y1832326D1*
X2535390D1*
X2539237Y1830380D1*
X2543039Y1826578D1*
X2544985Y1820830D1*
Y1816983D1*
X2543039Y1811279D1*
X2539237Y1807432D1*
X2535390Y1805531D1*
X2529642D1*
X2525840Y1807432D1*
X2521993Y1811279D1*
X2559282Y1832326D2*
X2570734Y1805531D1*
X2566931Y1797882D1*
X2563084Y1794035D1*
X2559282Y1792134D1*
X2557336D1*
X2582230Y1832326D2*
X2570734Y1805531D1*
X2594581Y1832326D2*
Y1805531D1*
Y1820830D2*
X2596527Y1826578D1*
X2600329Y1830424D1*
X2604176Y1832326D1*
X2609924D1*
X2622275Y1845723D2*
X2624177Y1843822D1*
X2626122Y1845723D1*
X2624177Y1847669D1*
X2622275Y1845723D1*
X2624177Y1832326D2*
Y1805531D1*
X2661421Y1830424D2*
Y1799783D1*
X2659520Y1794079D1*
X2657619Y1792134D1*
X2653772Y1790232D1*
X2648024D1*
X2644222Y1792134D1*
X2661421Y1824676D2*
X2657619Y1828479D1*
X2653772Y1830424D1*
X2648024D1*
X2644222Y1828479D1*
X2640375Y1824676D1*
X2638474Y1818928D1*
Y1815082D1*
X2640375Y1809378D1*
X2644222Y1805531D1*
X2648024Y1803630D1*
X2653772D1*
X2657619Y1805531D1*
X2661421Y1809378D1*
X2673773Y1845723D2*
Y1805531D1*
Y1824676D2*
X2679521Y1830424D1*
X2683368Y1832326D1*
X2689116D1*
X2692918Y1830424D1*
X2694819Y1824676D1*
Y1805531D1*
X2712919Y1845723D2*
Y1813180D1*
X2714820Y1807477D1*
X2718667Y1805531D1*
X2722469D1*
X2707171Y1832326D2*
X2720568D1*
X2783252Y1845679D2*
X2777548Y1843778D1*
X2775603Y1839975D1*
Y1836128D1*
X2777548Y1832326D1*
X2781351Y1830380D1*
X2789000Y1828479D1*
X2794748Y1826578D1*
X2798551Y1822731D1*
X2800452Y1818928D1*
Y1813180D1*
X2798551Y1809378D1*
X2796650Y1807432D1*
X2790902Y1805531D1*
X2783252D1*
X2777548Y1807432D1*
X2775603Y1809378D1*
X2773702Y1813180D1*
Y1818928D1*
X2775603Y1822731D1*
X2779450Y1826578D1*
X2785154Y1828479D1*
X2792803Y1830380D1*
X2796650Y1832326D1*
X2798551Y1836128D1*
Y1839975D1*
X2796650Y1843778D1*
X2790902Y1845679D1*
X2783252D1*
X2812804Y1805531D2*
X2839598Y1845679D1*
X2853895Y1836128D2*
Y1838030D1*
X2855796Y1841876D1*
X2857698Y1843778D1*
X2861544Y1845679D1*
X2869194D1*
X2872996Y1843778D1*
X2874897Y1841876D1*
X2876843Y1838030D1*
Y1834227D1*
X2874897Y1830380D1*
X2871095Y1824676D1*
X2851950Y1805531D1*
X2878744D1*
X2902592Y1845679D2*
X2896844Y1843778D1*
X2892997Y1838030D1*
X2891096Y1828479D1*
Y1822731D1*
X2892997Y1813180D1*
X2896844Y1807432D1*
X2902592Y1805531D1*
X2906394D1*
X2912142Y1807432D1*
X2915945Y1813180D1*
X2917890Y1822731D1*
Y1828479D1*
X2915945Y1838030D1*
X2912142Y1843778D1*
X2906394Y1845679D1*
X2902592D1*
X2915945Y1838030D2*
X2892997Y1813180D1*
X2930242Y1838030D2*
X2934088Y1839975D1*
X2939837Y1845679D1*
Y1805531D1*
X2977081Y1832326D2*
X2975136Y1826578D1*
X2971333Y1822731D1*
X2965585Y1820830D1*
X2963684D1*
X2957936Y1822731D1*
X2954133Y1826578D1*
X2952188Y1832326D1*
Y1834227D1*
X2954133Y1839975D1*
X2957936Y1843778D1*
X2963684Y1845679D1*
X2965585D1*
X2971333Y1843778D1*
X2975136Y1839975D1*
X2977081Y1832326D1*
Y1822731D1*
X2975136Y1813180D1*
X2971333Y1807432D1*
X2965585Y1805531D1*
X2961783D1*
X2956035Y1807432D1*
X2954133Y1811279D1*
X2464747Y1686128D2*
X2458999D1*
X2455197Y1684227D1*
X2453251Y1682326D1*
X2451350Y1678479D1*
Y1670830D1*
X2453251Y1668928D1*
X2457098D1*
X2464747Y1670830D1*
X2466649Y1667027D1*
X2468550D1*
X2472397Y1670830D1*
X2474298Y1680380D1*
X2472397Y1686128D1*
X2470495Y1689975D1*
X2466649Y1693778D1*
X2462846Y1695679D1*
X2455197D1*
X2451350Y1693778D1*
X2447547Y1689975D1*
X2445602Y1686128D1*
X2443701Y1680380D1*
Y1670830D1*
X2445602Y1665082D1*
X2447547Y1661279D1*
X2451350Y1657432D1*
X2455197Y1655531D1*
X2462846D1*
X2466649Y1657432D1*
X2470495Y1661279D1*
X2464747Y1688030D2*
Y1670830D1*
X2486649Y1695723D2*
Y1655531D1*
Y1676578D2*
X2490496Y1680424D1*
X2494299Y1682326D1*
X2500047D1*
X2503849Y1680424D1*
X2507696Y1676578D1*
X2509597Y1670830D1*
Y1667027D1*
X2507696Y1661279D1*
X2503849Y1657477D1*
X2500047Y1655531D1*
X2494299D1*
X2490496Y1657477D1*
X2486649Y1661279D1*
X2521949Y1682326D2*
Y1663180D1*
X2523850Y1657477D1*
X2527697Y1655531D1*
X2533445D1*
X2537247Y1657477D1*
X2542995Y1663180D1*
Y1682326D2*
Y1655531D1*
X2555347Y1695723D2*
X2557248Y1693822D1*
X2559193Y1695723D1*
X2557248Y1697669D1*
X2555347Y1695723D1*
X2557248Y1682326D2*
Y1655531D1*
X2571545Y1695723D2*
Y1655531D1*
X2606844Y1695723D2*
Y1655531D1*
Y1676578D2*
X2603042Y1680424D1*
X2599195Y1682326D1*
X2593447D1*
X2589644Y1680424D1*
X2585797Y1676578D1*
X2583896Y1670830D1*
Y1667027D1*
X2585797Y1661279D1*
X2589644Y1657477D1*
X2593447Y1655531D1*
X2599195D1*
X2603042Y1657477D1*
X2606844Y1661279D1*
X2619196Y1695723D2*
Y1655531D1*
X2641097Y1682326D2*
X2637295Y1680424D1*
X2633448Y1676578D1*
X2631547Y1670830D1*
Y1667027D1*
X2633448Y1661279D1*
X2637295Y1657477D1*
X2641097Y1655531D1*
X2646846D1*
X2650692Y1657477D1*
X2654495Y1661279D1*
X2656440Y1667027D1*
Y1670830D1*
X2654495Y1676578D1*
X2650692Y1680424D1*
X2646846Y1682326D1*
X2641097D1*
X2691740Y1680424D2*
Y1649783D1*
X2689838Y1644079D1*
X2687937Y1642134D1*
X2684090Y1640232D1*
X2678342D1*
X2674540Y1642134D1*
X2691740Y1674676D2*
X2687937Y1678479D1*
X2684090Y1680424D1*
X2678342D1*
X2674540Y1678479D1*
X2670693Y1674676D1*
X2668792Y1668928D1*
Y1665082D1*
X2670693Y1659378D1*
X2674540Y1655531D1*
X2678342Y1653630D1*
X2684090D1*
X2687937Y1655531D1*
X2691740Y1659378D1*
X2472397Y1761172D2*
X2470495Y1764975D1*
X2466649Y1768822D1*
X2462846Y1770723D1*
X2455197D1*
X2451350Y1768822D1*
X2447547Y1764975D1*
X2445602Y1761172D1*
X2443701Y1755424D1*
Y1745830D1*
X2445602Y1740126D1*
X2447547Y1736279D1*
X2451350Y1732477D1*
X2455197Y1730531D1*
X2462846D1*
X2466649Y1732477D1*
X2470495Y1736279D1*
X2472397Y1740126D1*
X2513444Y1761172D2*
X2511543Y1764975D1*
X2507696Y1768822D1*
X2503893Y1770723D1*
X2496244D1*
X2492397Y1768822D1*
X2488595Y1764975D1*
X2486649Y1761172D1*
X2484748Y1755424D1*
Y1745830D1*
X2486649Y1740126D1*
X2488595Y1736279D1*
X2492397Y1732477D1*
X2496244Y1730531D1*
X2503893D1*
X2507696Y1732477D1*
X2511543Y1736279D1*
X2513444Y1740126D1*
X2544941Y1730531D2*
Y1770679D1*
X2525795Y1743928D1*
X2554491D1*
X2568744Y1734378D2*
X2566843Y1732432D1*
X2568744Y1730531D1*
X2570689Y1732432D1*
X2568744Y1734378D1*
X2594537Y1770679D2*
X2588789Y1768778D1*
X2584942Y1763030D1*
X2583041Y1753479D1*
Y1747731D1*
X2584942Y1738180D1*
X2588789Y1732432D1*
X2594537Y1730531D1*
X2598339D1*
X2604088Y1732432D1*
X2607890Y1738180D1*
X2609836Y1747731D1*
Y1753479D1*
X2607890Y1763030D1*
X2604088Y1768778D1*
X2598339Y1770679D1*
X2594537D1*
X2607890Y1763030D2*
X2584942Y1738180D1*
X2622187Y1750605D2*
X2644295D1*
X2683441Y1764975D2*
X2679638Y1768822D1*
X2673890Y1770723D1*
X2666241D1*
X2660493Y1768822D1*
X2656646Y1764975D1*
Y1761172D1*
X2658592Y1757326D1*
X2660493Y1755424D1*
X2664295Y1753523D1*
X2675792Y1749676D1*
X2679638Y1747775D1*
X2681540Y1745830D1*
X2683441Y1742027D1*
Y1736279D1*
X2679638Y1732477D1*
X2673890Y1730531D1*
X2666241D1*
X2660493Y1732477D1*
X2656646Y1736279D1*
X2726434Y1730531D2*
X2711091Y1770723D1*
X2695792Y1730531D1*
X2701540Y1743928D2*
X2720686D1*
X2738785Y1750605D2*
X2760893D1*
X2803886Y1730531D2*
X2788543Y1770723D1*
X2773244Y1730531D1*
X2778992Y1743928D2*
X2798138D1*
X2821985Y1770723D2*
Y1738180D1*
X2823886Y1732477D1*
X2827733Y1730531D1*
X2831536D1*
X2816237Y1757326D2*
X2829634D1*
X2849635Y1770723D2*
Y1738180D1*
X2851536Y1732477D1*
X2855383Y1730531D1*
X2859186D1*
X2843887Y1757326D2*
X2857284D1*
X2871537D2*
Y1730531D1*
Y1745830D2*
X2873483Y1751578D1*
X2877285Y1755424D1*
X2881132Y1757326D1*
X2886880D1*
X2899231Y1770723D2*
X2901133Y1768822D1*
X2903078Y1770723D1*
X2901133Y1772669D1*
X2899231Y1770723D1*
X2901133Y1757326D2*
Y1730531D1*
X2915429Y1770723D2*
Y1730531D1*
Y1751578D2*
X2919276Y1755424D1*
X2923079Y1757326D1*
X2928827D1*
X2932629Y1755424D1*
X2936476Y1751578D1*
X2938377Y1745830D1*
Y1742027D1*
X2936476Y1736279D1*
X2932629Y1732477D1*
X2928827Y1730531D1*
X2923079D1*
X2919276Y1732477D1*
X2915429Y1736279D1*
X2094598Y3168702D2*
X2090751Y3164900D1*
X2086949Y3159152D1*
X2083102Y3151502D1*
X2081201Y3141908D1*
Y3134258D1*
X2083102Y3124708D1*
X2086949Y3117058D1*
X2090751Y3111310D1*
X2094598Y3107508D1*
X2106949Y3158223D2*
Y3118031D1*
X2120347D1*
X2126095Y3119977D1*
X2129942Y3123779D1*
X2131843Y3127626D1*
X2133744Y3133330D1*
Y3142924D1*
X2131843Y3148672D1*
X2129942Y3152475D1*
X2126095Y3156322D1*
X2120347Y3158223D1*
X2106949D1*
X2172890D2*
Y3118031D1*
X2146096Y3158223D1*
Y3118031D1*
X2185242Y3137176D2*
X2202486D1*
X2208189Y3139078D1*
X2210135Y3141023D1*
X2212036Y3144826D1*
Y3150574D1*
X2210135Y3154376D1*
X2208189Y3156322D1*
X2202486Y3158223D1*
X2185242D1*
Y3118031D1*
X2224388Y3168702D2*
X2228234Y3164900D1*
X2232037Y3159152D1*
X2235884Y3151502D1*
X2237785Y3141908D1*
Y3134258D1*
X2235884Y3124708D1*
X2232037Y3117058D1*
X2228234Y3111310D1*
X2224388Y3107508D1*
X1021809Y1367654D2*
X1037107Y1327462D1*
X1052406Y1367654D1*
X1095354Y1327462D2*
Y1367654D1*
X1080056Y1327462D1*
X1064757Y1367654D1*
Y1327462D1*
X1117256Y1354256D2*
X1113454Y1352355D1*
X1109607Y1348508D1*
X1107706Y1342760D1*
Y1338958D1*
X1109607Y1333210D1*
X1113454Y1329407D1*
X1117256Y1327462D1*
X1123004D1*
X1126851Y1329407D1*
X1130654Y1333210D1*
X1132599Y1338958D1*
Y1342760D1*
X1130654Y1348508D1*
X1126851Y1352355D1*
X1123004Y1354256D1*
X1117256D1*
X1150699Y1367654D2*
Y1335111D1*
X1152600Y1329407D1*
X1156447Y1327462D1*
X1160249D1*
X1144951Y1354256D2*
X1158348D1*
X1100485Y658103D2*
X1098583Y661906D1*
X1094737Y665753D1*
X1090934Y667654D1*
X1083285D1*
X1079438Y665753D1*
X1075635Y661906D1*
X1073690Y658103D1*
X1071789Y652355D1*
Y642760D1*
X1073690Y637057D1*
X1075635Y633210D1*
X1079438Y629407D1*
X1083285Y627462D1*
X1090934D1*
X1094737Y629407D1*
X1098583Y633210D1*
X1100485Y637057D1*
Y642760D1*
X1090934D1*
X1112836Y654256D2*
Y627462D1*
Y646607D2*
X1118584Y652355D1*
X1122431Y654256D1*
X1128135D1*
X1131981Y652355D1*
X1133883Y646607D1*
Y627462D1*
X1169182Y667654D2*
Y627462D1*
Y648508D2*
X1165379Y652355D1*
X1161533Y654256D1*
X1155785D1*
X1151982Y652355D1*
X1148135Y648508D1*
X1146234Y642760D1*
Y638958D1*
X1148135Y633210D1*
X1151982Y629407D1*
X1155785Y627462D1*
X1161533D1*
X1165379Y629407D1*
X1169182Y633210D1*
X846618Y1367654D2*
X821769D1*
Y1327462D1*
X846618D1*
X821769Y1348508D2*
X837067D1*
X858969Y1354256D2*
Y1327462D1*
Y1346607D2*
X864717Y1352355D1*
X868564Y1354256D1*
X874268D1*
X878115Y1352355D1*
X880016Y1346607D1*
Y1327462D1*
X821769Y667654D2*
Y627462D1*
X835166D1*
X840914Y629407D1*
X844761Y633210D1*
X846662Y637057D1*
X848563Y642760D1*
Y652355D1*
X846662Y658103D1*
X844761Y661906D1*
X840914Y665753D1*
X835166Y667654D1*
X821769D1*
X860915D2*
X862816Y665753D1*
X864761Y667654D1*
X862816Y669599D1*
X860915Y667654D1*
X862816Y654256D2*
Y627462D1*
X877113Y654256D2*
Y627462D1*
Y642760D2*
X879058Y648508D1*
X882861Y652355D1*
X886708Y654256D1*
X892456D1*
X1721809Y1367654D2*
X1737107Y1327462D1*
X1752406Y1367654D1*
X1795354Y1327462D2*
Y1367654D1*
X1780056Y1327462D1*
X1764757Y1367654D1*
Y1327462D1*
X1817256Y1354256D2*
X1813454Y1352355D1*
X1809607Y1348508D1*
X1807706Y1342760D1*
Y1338958D1*
X1809607Y1333210D1*
X1813454Y1329407D1*
X1817256Y1327462D1*
X1823004D1*
X1826851Y1329407D1*
X1830654Y1333210D1*
X1832599Y1338958D1*
Y1342760D1*
X1830654Y1348508D1*
X1826851Y1352355D1*
X1823004Y1354256D1*
X1817256D1*
X1850699Y1367654D2*
Y1335111D1*
X1852600Y1329407D1*
X1856447Y1327462D1*
X1860249D1*
X1844951Y1354256D2*
X1858348D1*
X1800485Y658103D2*
X1798583Y661906D1*
X1794737Y665753D1*
X1790934Y667654D1*
X1783285D1*
X1779438Y665753D1*
X1775635Y661906D1*
X1773690Y658103D1*
X1771789Y652355D1*
Y642760D1*
X1773690Y637057D1*
X1775635Y633210D1*
X1779438Y629407D1*
X1783285Y627462D1*
X1790934D1*
X1794737Y629407D1*
X1798583Y633210D1*
X1800485Y637057D1*
Y642760D1*
X1790934D1*
X1812836Y654256D2*
Y627462D1*
Y646607D2*
X1818584Y652355D1*
X1822431Y654256D1*
X1828135D1*
X1831981Y652355D1*
X1833883Y646607D1*
Y627462D1*
X1869182Y667654D2*
Y627462D1*
Y648508D2*
X1865379Y652355D1*
X1861533Y654256D1*
X1855785D1*
X1851982Y652355D1*
X1848135Y648508D1*
X1846234Y642760D1*
Y638958D1*
X1848135Y633210D1*
X1851982Y629407D1*
X1855785Y627462D1*
X1861533D1*
X1865379Y629407D1*
X1869182Y633210D1*
X1546618Y1367654D2*
X1521769D1*
Y1327462D1*
X1546618D1*
X1521769Y1348508D2*
X1537067D1*
X1558969Y1354256D2*
Y1327462D1*
Y1346607D2*
X1564717Y1352355D1*
X1568564Y1354256D1*
X1574268D1*
X1578115Y1352355D1*
X1580016Y1346607D1*
Y1327462D1*
X1521769Y667654D2*
Y627462D1*
X1535166D1*
X1540914Y629407D1*
X1544761Y633210D1*
X1546662Y637057D1*
X1548563Y642760D1*
Y652355D1*
X1546662Y658103D1*
X1544761Y661906D1*
X1540914Y665753D1*
X1535166Y667654D1*
X1521769D1*
X1560915D2*
X1562816Y665753D1*
X1564761Y667654D1*
X1562816Y669599D1*
X1560915Y667654D1*
X1562816Y654256D2*
Y627462D1*
X1577113Y654256D2*
Y627462D1*
Y642760D2*
X1579058Y648508D1*
X1582861Y652355D1*
X1586708Y654256D1*
X1592456D1*
X2421809Y1367654D2*
X2437107Y1327462D1*
X2452406Y1367654D1*
X2495354Y1327462D2*
Y1367654D1*
X2480056Y1327462D1*
X2464757Y1367654D1*
Y1327462D1*
X2517256Y1354256D2*
X2513454Y1352355D1*
X2509607Y1348508D1*
X2507706Y1342760D1*
Y1338958D1*
X2509607Y1333210D1*
X2513454Y1329407D1*
X2517256Y1327462D1*
X2523004D1*
X2526851Y1329407D1*
X2530654Y1333210D1*
X2532599Y1338958D1*
Y1342760D1*
X2530654Y1348508D1*
X2526851Y1352355D1*
X2523004Y1354256D1*
X2517256D1*
X2550699Y1367654D2*
Y1335111D1*
X2552600Y1329407D1*
X2556447Y1327462D1*
X2560249D1*
X2544951Y1354256D2*
X2558348D1*
X2500485Y658103D2*
X2498583Y661906D1*
X2494737Y665753D1*
X2490934Y667654D1*
X2483285D1*
X2479438Y665753D1*
X2475635Y661906D1*
X2473690Y658103D1*
X2471789Y652355D1*
Y642760D1*
X2473690Y637057D1*
X2475635Y633210D1*
X2479438Y629407D1*
X2483285Y627462D1*
X2490934D1*
X2494737Y629407D1*
X2498583Y633210D1*
X2500485Y637057D1*
Y642760D1*
X2490934D1*
X2512836Y654256D2*
Y627462D1*
Y646607D2*
X2518584Y652355D1*
X2522431Y654256D1*
X2528135D1*
X2531981Y652355D1*
X2533883Y646607D1*
Y627462D1*
X2569182Y667654D2*
Y627462D1*
Y648508D2*
X2565379Y652355D1*
X2561533Y654256D1*
X2555785D1*
X2551982Y652355D1*
X2548135Y648508D1*
X2546234Y642760D1*
Y638958D1*
X2548135Y633210D1*
X2551982Y629407D1*
X2555785Y627462D1*
X2561533D1*
X2565379Y629407D1*
X2569182Y633210D1*
X2246618Y1367654D2*
X2221769D1*
Y1327462D1*
X2246618D1*
X2221769Y1348508D2*
X2237067D1*
X2258969Y1354256D2*
Y1327462D1*
Y1346607D2*
X2264717Y1352355D1*
X2268564Y1354256D1*
X2274268D1*
X2278115Y1352355D1*
X2280016Y1346607D1*
Y1327462D1*
X2221769Y667654D2*
Y627462D1*
X2235166D1*
X2240914Y629407D1*
X2244761Y633210D1*
X2246662Y637057D1*
X2248563Y642760D1*
Y652355D1*
X2246662Y658103D1*
X2244761Y661906D1*
X2240914Y665753D1*
X2235166Y667654D1*
X2221769D1*
X2260915D2*
X2262816Y665753D1*
X2264761Y667654D1*
X2262816Y669599D1*
X2260915Y667654D1*
X2262816Y654256D2*
Y627462D1*
X2277113Y654256D2*
Y627462D1*
Y642760D2*
X2279058Y648508D1*
X2282861Y652355D1*
X2286708Y654256D1*
X2292456D1*
X3121809Y1367654D2*
X3137107Y1327462D1*
X3152406Y1367654D1*
X3195354Y1327462D2*
Y1367654D1*
X3180056Y1327462D1*
X3164757Y1367654D1*
Y1327462D1*
X3217256Y1354256D2*
X3213454Y1352355D1*
X3209607Y1348508D1*
X3207706Y1342760D1*
Y1338958D1*
X3209607Y1333210D1*
X3213454Y1329407D1*
X3217256Y1327462D1*
X3223004D1*
X3226851Y1329407D1*
X3230654Y1333210D1*
X3232599Y1338958D1*
Y1342760D1*
X3230654Y1348508D1*
X3226851Y1352355D1*
X3223004Y1354256D1*
X3217256D1*
X3250699Y1367654D2*
Y1335111D1*
X3252600Y1329407D1*
X3256447Y1327462D1*
X3260249D1*
X3244951Y1354256D2*
X3258348D1*
X3200485Y658103D2*
X3198583Y661906D1*
X3194737Y665753D1*
X3190934Y667654D1*
X3183285D1*
X3179438Y665753D1*
X3175635Y661906D1*
X3173690Y658103D1*
X3171789Y652355D1*
Y642760D1*
X3173690Y637057D1*
X3175635Y633210D1*
X3179438Y629407D1*
X3183285Y627462D1*
X3190934D1*
X3194737Y629407D1*
X3198583Y633210D1*
X3200485Y637057D1*
Y642760D1*
X3190934D1*
X3212836Y654256D2*
Y627462D1*
Y646607D2*
X3218584Y652355D1*
X3222431Y654256D1*
X3228135D1*
X3231981Y652355D1*
X3233883Y646607D1*
Y627462D1*
X3269182Y667654D2*
Y627462D1*
Y648508D2*
X3265379Y652355D1*
X3261533Y654256D1*
X3255785D1*
X3251982Y652355D1*
X3248135Y648508D1*
X3246234Y642760D1*
Y638958D1*
X3248135Y633210D1*
X3251982Y629407D1*
X3255785Y627462D1*
X3261533D1*
X3265379Y629407D1*
X3269182Y633210D1*
X2946618Y1367654D2*
X2921769D1*
Y1327462D1*
X2946618D1*
X2921769Y1348508D2*
X2937067D1*
X2958969Y1354256D2*
Y1327462D1*
Y1346607D2*
X2964717Y1352355D1*
X2968564Y1354256D1*
X2974268D1*
X2978115Y1352355D1*
X2980016Y1346607D1*
Y1327462D1*
X2921769Y667654D2*
Y627462D1*
X2935166D1*
X2940914Y629407D1*
X2944761Y633210D1*
X2946662Y637057D1*
X2948563Y642760D1*
Y652355D1*
X2946662Y658103D1*
X2944761Y661906D1*
X2940914Y665753D1*
X2935166Y667654D1*
X2921769D1*
X2960915D2*
X2962816Y665753D1*
X2964761Y667654D1*
X2962816Y669599D1*
X2960915Y667654D1*
X2962816Y654256D2*
Y627462D1*
X2977113Y654256D2*
Y627462D1*
Y642760D2*
X2979058Y648508D1*
X2982861Y652355D1*
X2986708Y654256D1*
X2992456D1*
X582420Y2431897D2*
D109*
X532202D1*
X522143Y2428570D1*
X515489Y2421838D1*
X512084Y2411779D1*
Y2405124D1*
X515489Y2395065D1*
X522143Y2388334D1*
X532202Y2385006D1*
X582420D1*
X572361Y2316501D2*
X579093Y2323155D1*
X582420Y2333214D1*
Y2346600D1*
X579093Y2356660D1*
X572361Y2363391D1*
X565707D1*
X558975Y2359987D1*
X555648Y2356660D1*
X552320Y2350005D1*
X545589Y2329887D1*
X542261Y2323155D1*
X538857Y2319828D1*
X532202Y2316501D1*
X522143D1*
X515489Y2323155D1*
X512084Y2333214D1*
Y2346601D1*
X515489Y2356660D1*
X522143Y2363391D1*
X582420Y2294886D2*
X512084D1*
Y2264709D1*
X515489Y2254650D1*
X518816Y2251322D1*
X525471Y2247995D1*
X535530D1*
X542261Y2251322D1*
X545589Y2254650D1*
X548916Y2264709D1*
X552320Y2254650D1*
X555648Y2251322D1*
X562302Y2247995D1*
X569034D1*
X575688Y2251322D1*
X579093Y2254650D1*
X582420Y2264709D1*
Y2294886D1*
X548916D2*
Y2264709D1*
M02*
